<svg xmlns="http://www.w3.org/2000/svg" xmlns:xlink="http://www.w3.org/1999/xlink" width="110" height="110" viewBox="0 0 110 110">
  <defs>
    <filter id="Trazado_982547" x="0" y="0" width="110" height="110" filterUnits="userSpaceOnUse">
      <feOffset dy="3" input="SourceAlpha"/>
      <feGaussianBlur stdDeviation="3" result="blur"/>
      <feFlood flood-opacity="0.161"/>
      <feComposite operator="in" in2="blur"/>
      <feComposite in="SourceGraphic"/>
    </filter>
  </defs>
  <g id="Grupo_1209363" data-name="Grupo 1209363" transform="translate(-1218 -1559.025)">
    <g id="Grupo_1209260" data-name="Grupo 1209260" transform="translate(0.81 -2394.179)">
      <g id="Grupo_1166452" data-name="Grupo 1166452" transform="translate(105.19 1993.205)">
        <g id="Grupo_1164700" data-name="Grupo 1164700" transform="translate(1121 1966)">
          <g id="Grupo_1160931" data-name="Grupo 1160931" transform="translate(0)">
            <g id="Grupo_1160749" data-name="Grupo 1160749" transform="translate(0)">
              <g id="Grupo_1158891" data-name="Grupo 1158891" transform="translate(0 0)">
                <g id="Grupo_1157406" data-name="Grupo 1157406" transform="translate(0)">
                  <g id="Grupo_1155793" data-name="Grupo 1155793" transform="translate(0)">
                    <g id="Grupo_1154704" data-name="Grupo 1154704" transform="translate(0)">
                      <g id="Grupo_1150790" data-name="Grupo 1150790" transform="translate(0)">
                        <g id="Grupo_1154214" data-name="Grupo 1154214" transform="translate(0)">
                          <g id="Grupo_1152583" data-name="Grupo 1152583" transform="translate(0 0)">
                            <g id="Grupo_1146973" data-name="Grupo 1146973" transform="translate(0 0)">
                              <g id="Grupo_1146954" data-name="Grupo 1146954">
                                <g transform="matrix(1, 0, 0, 1, -9, -6)" filter="url(#Trazado_982547)">
                                  <g id="Trazado_982547-2" data-name="Trazado 982547" transform="translate(9 6)" fill="#fef7ea">
                                    <path d="M 46.00000381469727 90.49988555908203 C 39.99188232421875 90.49988555908203 34.16427230834961 89.32352447509766 28.67905807495117 87.00347137451172 C 23.38020324707031 84.76226043701172 18.62104415893555 81.55342864990234 14.53375053405762 77.46615600585938 C 10.44647026062012 73.37887573242188 7.237643718719482 68.61971282958984 4.996417045593262 63.32085800170898 C 2.676363706588745 57.83565902709961 1.500003814697266 52.00806045532227 1.500003814697266 45.99993896484375 C 1.500003814697266 39.99181747436523 2.676363706588745 34.16421890258789 4.996417045593262 28.67901802062988 C 7.237643718719482 23.38017845153809 10.44647026062012 18.62101936340332 14.53375053405762 14.53373908996582 C 18.62104415893555 10.44645881652832 23.38020324707031 7.237632274627686 28.67905807495117 4.996418952941895 C 34.16427230834961 2.676365613937378 39.99188232421875 1.500005602836609 46.00000381469727 1.500005602836609 C 52.00812530517578 1.500005602836609 57.83573532104492 2.676365613937378 63.32094955444336 4.996418952941895 C 68.61980438232422 7.237632274627686 73.37897491455078 10.44645881652832 77.46625518798828 14.53373908996582 C 81.55355072021484 18.62101936340332 84.76236724853516 23.38017845153809 87.00359344482422 28.67901802062988 C 89.32364654541016 34.16421890258789 90.5 39.99181747436523 90.5 45.99993896484375 C 90.5 52.00806045532227 89.32364654541016 57.83565902709961 87.00359344482422 63.32085800170898 C 84.76236724853516 68.61971282958984 81.55355072021484 73.37887573242188 77.46625518798828 77.46615600585938 C 73.37897491455078 81.55342864990234 68.61980438232422 84.76226043701172 63.32094955444336 87.00347137451172 C 57.83573532104492 89.32352447509766 52.00812530517578 90.49988555908203 46.00000381469727 90.49988555908203 Z" stroke="none"/>
                                    <path d="M 46.00000381469727 2.999992370605469 C 40.19371795654297 2.999992370605469 34.56270217895508 4.136497497558594 29.26338958740234 6.377906799316406 C 24.14333343505859 8.543510437011719 19.54441833496094 11.64437866210938 15.59440612792969 15.59439849853516 C 11.64440155029297 19.54439544677734 8.54351806640625 24.14329528808594 6.377914428710938 29.26335144042969 C 4.136505126953125 34.56266784667969 3.000007629394531 40.19366836547852 3.000007629394531 45.99993896484375 C 3.000007629394531 51.80620956420898 4.136505126953125 57.43722534179688 6.377914428710938 62.73654174804688 C 8.54351806640625 67.85658264160156 11.64440155029297 72.45548248291016 15.59440612792969 76.40549468994141 C 19.54441833496094 80.35549926757812 24.14333343505859 83.45636749267578 29.26337432861328 85.62196350097656 C 34.56270217895508 87.86338043212891 40.19371795654297 88.9998779296875 46.00000381469727 88.9998779296875 C 51.80628967285156 88.9998779296875 57.43730545043945 87.86338043212891 62.73663330078125 85.62196350097656 C 67.85667419433594 83.45636749267578 72.45558929443359 80.35549926757812 76.40560150146484 76.40549468994141 C 80.35560607910156 72.45548248291016 83.45648956298828 67.85658264160156 85.62208557128906 62.73654174804688 C 87.86350250244141 57.43722534179688 89 51.80620956420898 89 45.99993896484375 C 89 40.19366836547852 87.86350250244141 34.56266784667969 85.62208557128906 29.26335144042969 C 83.45648956298828 24.14329528808594 80.35560607910156 19.54439544677734 76.40560150146484 15.59439849853516 C 72.45558929443359 11.64437866210938 67.85667419433594 8.543510437011719 62.73661804199219 6.377906799316406 C 57.43730545043945 4.136497497558594 51.80628967285156 2.999992370605469 46.00000381469727 2.999992370605469 M 46.00000381469727 -7.62939453125e-06 C 71.40510559082031 -7.62939453125e-06 92 20.59487915039062 92 45.99993896484375 C 92 71.40501403808594 71.40510559082031 91.99988555908203 46.00000381469727 91.99988555908203 C 20.59490203857422 91.99988555908203 7.62939453125e-06 71.40501403808594 7.62939453125e-06 45.99993896484375 C 7.62939453125e-06 20.59487915039062 20.59490203857422 -7.62939453125e-06 46.00000381469727 -7.62939453125e-06 Z" stroke="none" fill="#fcba3d"/>
                                  </g>
                                </g>
                              </g>
                            </g>
                          </g>
                        </g>
                      </g>
                    </g>
                  </g>
                </g>
              </g>
            </g>
          </g>
        </g>
      </g>
    </g>
    <g id="execution_17756822" transform="translate(1225.881 1552.908)">
      <g id="Grupo_1209362" data-name="Grupo 1209362" transform="translate(23.341 31.071)">
        <path id="Trazado_1050066" data-name="Trazado 1050066" d="M243.635,87.89H210.54v38.825h33.095Z" transform="translate(-192.258 -81.645)" fill="#fedc97" fill-rule="evenodd"/>
        <path id="Trazado_1050067" data-name="Trazado 1050067" d="M293.9,40.978h1.426a2.689,2.689,0,1,1,5.344-.5,2.3,2.3,0,0,1-.054.5h1.43a2.318,2.318,0,0,1,2.354,2.269v1.123a2.318,2.318,0,0,1-2.354,2.269H293.9a2.321,2.321,0,0,1-2.357-2.269V43.247A2.324,2.324,0,0,1,293.9,40.978Z" transform="translate(-263.144 -37.88)" fill="#99f" fill-rule="evenodd"/>
        <path id="Trazado_1050068" data-name="Trazado 1050068" d="M400.29,149.09h6.484v5.475H400.29Zm0,21h6.484v5.475H400.29Zm0-10.5h6.484v5.475H400.29Z" transform="translate(-358.315 -135.203)" fill="#9ff" fill-rule="evenodd"/>
        <path id="Trazado_1050069" data-name="Trazado 1050069" d="M64.13,156.483v-1.277a1.335,1.335,0,0,1,1.331-1.335h.187a1.319,1.319,0,0,0,1.281-.963,10.325,10.325,0,0,1,.885-2.134,1.321,1.321,0,0,0-.226-1.586l-.131-.131a1.335,1.335,0,0,1,0-1.887l.9-.9a1.335,1.335,0,0,1,1.887,0l.131.131a1.32,1.32,0,0,0,1.586.226,10.353,10.353,0,0,1,2.134-.885,1.319,1.319,0,0,0,.963-1.281v-.187A1.335,1.335,0,0,1,76.4,142.94h1.277a1.335,1.335,0,0,1,1.335,1.331v.187a1.319,1.319,0,0,0,.963,1.281,10.324,10.324,0,0,1,2.134.885,1.321,1.321,0,0,0,1.586-.226l.131-.131a1.335,1.335,0,0,1,1.887,0l.9.9a1.335,1.335,0,0,1,0,1.887l-.131.131a1.316,1.316,0,0,0-.224,1.586,10.783,10.783,0,0,1,.885,2.134,1.311,1.311,0,0,0,1.277.963h.187a1.335,1.335,0,0,1,1.331,1.335v1.277a1.335,1.335,0,0,1-1.331,1.335h-.187a1.319,1.319,0,0,0-1.281.963,10.521,10.521,0,0,1-.882,2.134,1.313,1.313,0,0,0,.224,1.586l.131.131a1.335,1.335,0,0,1,0,1.887l-.9.9a1.335,1.335,0,0,1-1.887,0l-.131-.131a1.315,1.315,0,0,0-1.586-.224,10.69,10.69,0,0,1-2.134.885,1.311,1.311,0,0,0-.963,1.277v.187a1.335,1.335,0,0,1-1.335,1.331H76.4a1.335,1.335,0,0,1-1.335-1.331v-.187a1.311,1.311,0,0,0-.963-1.277,10.752,10.752,0,0,1-2.134-.885,1.314,1.314,0,0,0-1.586.224l-.131.131a1.335,1.335,0,0,1-1.887,0l-.9-.9a1.335,1.335,0,0,1,0-1.887l.131-.131a1.319,1.319,0,0,0,.226-1.586,10.352,10.352,0,0,1-.885-2.134,1.319,1.319,0,0,0-1.281-.963h-.187A1.336,1.336,0,0,1,64.13,156.483Z" transform="translate(-64.13 -129.821)" fill="#cc4242" fill-rule="evenodd"/>
        <path id="Trazado_1050070" data-name="Trazado 1050070" d="M123.645,196.21a6.253,6.253,0,1,1-6.255,6.255A6.253,6.253,0,0,1,123.645,196.21Z" transform="translate(-110.74 -176.44)" fill="#fff" fill-rule="evenodd"/>
        <path id="Trazado_1050071" data-name="Trazado 1050071" d="M131.742,260.342c2.57,4.1,3.674,3.66,3.737,8.311h9.432v-1.1c0-3.122,1.483-2.884,1.483-5.961v-6.127a1.765,1.765,0,0,0-3.292-.955,1.691,1.691,0,0,0-3.122-.467,1.785,1.785,0,0,0-3.122,0v-8.081a1.663,1.663,0,0,0-1.709-1.6h-.266a1.667,1.667,0,0,0-1.713,1.6v9.429C133.171,256.863,129.791,257.234,131.742,260.342Z" transform="translate(-122.769 -218.577)" fill="#fbd1a2" fill-rule="evenodd"/>
        <path id="Trazado_1050072" data-name="Trazado 1050072" d="M155.87,438.91h9.9a1.092,1.092,0,0,1,1.09,1.086v3.164a1.1,1.1,0,0,1-1.09,1.09h-9.9a1.1,1.1,0,0,1-1.09-1.09V440A1.092,1.092,0,0,1,155.87,438.91Z" transform="translate(-143.461 -388.834)" fill="#00b2ca" fill-rule="evenodd"/>
      </g>
      <path id="Trazado_1050073" data-name="Trazado 1050073" d="M56.953,67.449a1,1,0,0,1,0-2h5.271a1,1,0,1,1,0,2Zm-5.118,3.724a1,1,0,1,1,0-2H62.224a1,1,0,1,1,0,2Zm2.813-7.794a1,1,0,1,1,.513,1.925l-2.811.754a1,1,0,0,1-1.21-.662L50.107,62.8a1,1,0,1,1,1.852-.733l.16.4a16.761,16.761,0,0,0-9.5-20.636v4.757a2.343,2.343,0,0,1,3,.251l.907.907a2.332,2.332,0,0,1-.056,3.349l-.077.077v0a.316.316,0,0,0-.056.4,11.074,11.074,0,0,1,.548,1.14,10.864,10.864,0,0,1,.418,1.2c.081.272.3.241.509.241a2.334,2.334,0,0,1,2.333,2.333V57.76a2.327,2.327,0,0,1-2.333,2.329v0c-.654,0-.368.085-.928,1.437a11.743,11.743,0,0,1-.548,1.144c-.131.241.035.378.187.531h0a2.336,2.336,0,0,1,.463,2.633,2.8,2.8,0,0,1,.974,2.151v6.127a8.561,8.561,0,0,1-.06,1.055h25.81V38.342H65.51a3.357,3.357,0,0,1-3.264,2.514H54.092a3.351,3.351,0,0,1-3.26-2.514H42.621v1.331C52.142,43.337,57.43,53.838,53.83,63.6Zm-29.775-21.7a1,1,0,0,1,.517-1.929l2.772.743a.994.994,0,0,1,.76,1.168l-.4,2.782a1,1,0,0,1-1.974-.28l.106-.733a16.728,16.728,0,0,0,1.806,28.5,1,1,0,0,1-.928,1.762A18.718,18.718,0,0,1,25.45,41.829ZM38.43,66.865v5.147a1,1,0,1,1-2,0V58.486a.667.667,0,0,0-.712-.6.988.988,0,0,0-.793.2.547.547,0,0,0-.187.4v9.432c0,2.184-3.033,2.109-1.59,4.414a31.068,31.068,0,0,0,1.827,2.58,7.489,7.489,0,0,1,2.035,5.263h7.472c0-3.589,1.483-3.267,1.483-6.06V67.988A.813.813,0,0,0,45,67.16a.741.741,0,0,0-.322.209v4.605a1,1,0,1,1-2,0V67.118c-.05-.425-.754-.534-1.123-.234v5.15a1,1,0,0,1-2,0V66.863a.848.848,0,0,0-1.124,0ZM46.483,80.35a2.1,2.1,0,0,1,1.252,1.915v3.16a2.092,2.092,0,0,1-2.088,2.088h-9.9a2.092,2.092,0,0,1-2.088-2.088v-3.16a2.092,2.092,0,0,1,1.362-1.96A6.006,6.006,0,0,0,33.4,76.132,32.042,32.042,0,0,1,31.468,73.4c-1.706-2.718-.411-3.883.722-4.9.181-.162.353-.315.457-.428a11.527,11.527,0,0,1-1.954-.845c-.247-.139-.386.042-.531.187a2.329,2.329,0,0,1-1.649.683v0a2.31,2.31,0,0,1-1.646-.679L25.96,66.5a2.329,2.329,0,0,1,0-3.3c.461-.461.2-.318-.361-1.674a12.332,12.332,0,0,1-.417-1.2c-.077-.268-.3-.241-.509-.241a2.334,2.334,0,0,1-2.333-2.333V56.484a2.337,2.337,0,0,1,2.333-2.333c.658,0,.368-.085.928-1.437a11.679,11.679,0,0,1,.548-1.14c.135-.241-.032-.382-.184-.534l0,0a2.334,2.334,0,0,1,0-3.3l.907-.907a2.336,2.336,0,0,1,3.3,0c.461.46.315.2,1.674-.357a10.606,10.606,0,0,1,1.2-.417c.268-.081.241-.3.241-.509a2.327,2.327,0,0,1,2.333-2.329v0h1.277a2.334,2.334,0,0,1,2.333,2.333c0,.652.081.372,1.409.913V41.1c-.131-.039-.266-.075-.4-.11a1,1,0,0,1,.4-1.954V37.345a1,1,0,0,1,1-1h9.122A3.329,3.329,0,0,1,54.094,33.2h.418a3.722,3.722,0,0,1,6.255-2.057A3.536,3.536,0,0,1,61.828,33.2h.418A3.328,3.328,0,0,1,65.6,36.347h9.118a1,1,0,0,1,1,1V76.17a1,1,0,0,1-1,1H47.3a5.215,5.215,0,0,0-.818,3.183Zm-.835,1.823h-9.9l-.092.092v3.16l.092.092h9.9l.092-.092v-3.16Zm-12.9-16.19v-2.51a7.247,7.247,0,1,1,5.684.562V64.7a2.821,2.821,0,0,1,2.149.432,2.821,2.821,0,0,1,3.366.315,2.623,2.623,0,0,1,1.111-.3.358.358,0,0,0,.06-.531v0a2.34,2.34,0,0,1-.8-1.455c-.139-.984.343-1.468.725-2.392s.39-1.6,1.182-2.2a2.372,2.372,0,0,1,1.586-.467v0a.343.343,0,0,0,.336-.34V56.483a.335.335,0,0,0-.336-.332,2.392,2.392,0,0,1-1.586-.467c-.793-.6-.8-1.274-1.182-2.205l-.457-.945a2.321,2.321,0,0,1,.393-2.772h0c.139-.139.365-.372.127-.606l-.9-.9a.339.339,0,0,0-.474,0,2.358,2.358,0,0,1-1.455.8,2.318,2.318,0,0,1-1.447-.268,9.578,9.578,0,0,0-1.933-.8,2.323,2.323,0,0,1-1.684-2.238c0-.166.025-.3-.1-.421a.344.344,0,0,0-.237-.1H35.606v0a.343.343,0,0,0-.336.34,2.372,2.372,0,0,1-.467,1.586c-.6.793-1.275.8-2.2,1.182l-.945.457a2.324,2.324,0,0,1-2.775-.393c-.117-.12-.195-.23-.368-.23a.322.322,0,0,0-.234.1l-.907.9a.342.342,0,0,0,0,.474,2.353,2.353,0,0,1,.793,1.455c.141.988-.34,1.472-.722,2.392s-.39,1.607-1.186,2.205c-.934.7-1.568.311-1.819.563a.328.328,0,0,0-.1.237v1.277a.338.338,0,0,0,.332.336,2.36,2.36,0,0,1,1.586.467c.8.6.8,1.274,1.186,2.2s.864,1.409.722,2.392c-.162,1.165-.888,1.335-.888,1.7a.325.325,0,0,0,.1.234l.907.907a.33.33,0,0,0,.234.1v0c.361,0,.531-.725,1.7-.888,1.034-.149,1.5.378,2.344.7Zm0-4.937V58.487a2.667,2.667,0,0,1,2.708-2.6h.268a2.669,2.669,0,0,1,2.708,2.6V61.9a5.254,5.254,0,1,0-5.685-.857Zm25.137-3.681a1,1,0,0,1,0-2h4.339a1,1,0,1,1,0,2Zm-1.111,3.724a1,1,0,0,1,0-2h5.45a1,1,0,1,1,0,2ZM53.5,46.862a1,1,0,0,1,0-2h8.724a1,1,0,1,1,0,2Zm2.3,3.724a1,1,0,0,1,0-2h6.428a1,1,0,1,1,0,2Zm9.521-6.6H71.8a1,1,0,0,1,1,1v5.475a1,1,0,0,1-1,1H65.317a1,1,0,0,1-1-1V44.987A1,1,0,0,1,65.317,43.989Zm5.487,2H66.316v3.479H70.8ZM65.317,64.993H71.8a1,1,0,0,1,1,1v5.475a1,1,0,0,1-1,1H65.317a1,1,0,0,1-1-1V65.99A1,1,0,0,1,65.317,64.993Zm5.487,2H66.316v3.476H70.8Zm-5.487-12.5H71.8a1,1,0,0,1,1,1v5.475a1,1,0,0,1-1,1H65.317a1,1,0,0,1-1-1V55.488a1,1,0,0,1,1-1Zm5.487,2H66.316v3.479H70.8ZM55.523,35.2H54.092a1.319,1.319,0,0,0-1.356,1.271v1.123a1.32,1.32,0,0,0,1.356,1.271h8.151A1.319,1.319,0,0,0,63.6,37.589V36.467A1.32,1.32,0,0,0,62.244,35.2h-1.43v0A1,1,0,0,1,59.838,34a1.7,1.7,0,0,0-2.884-1.423,1.592,1.592,0,0,0-.467,1.356A.991.991,0,0,1,55.523,35.2Z" transform="translate(0 0)"/>
    </g>
  </g>
</svg>
