<svg xmlns="http://www.w3.org/2000/svg" xmlns:xlink="http://www.w3.org/1999/xlink" width="113" height="113" viewBox="0 0 113 113">
  <defs>
    <filter id="Trazado_982547" x="0" y="0" width="113" height="113" filterUnits="userSpaceOnUse">
      <feOffset dy="3" input="SourceAlpha"/>
      <feGaussianBlur stdDeviation="3" result="blur"/>
      <feFlood flood-opacity="0.161"/>
      <feComposite operator="in" in2="blur"/>
      <feComposite in="SourceGraphic"/>
    </filter>
  </defs>
  <g id="Grupo_1209477" data-name="Grupo 1209477" transform="translate(-673 -3096)">
    <g id="Grupo_1209278" data-name="Grupo 1209278" transform="translate(682 3102)">
      <g id="Grupo_1208038" data-name="Grupo 1208038" transform="translate(0)">
        <g id="Grupo_1202104" data-name="Grupo 1202104" transform="translate(0)">
          <g id="Grupo_1201923" data-name="Grupo 1201923" transform="translate(0 0)">
            <g id="Grupo_1176928" data-name="Grupo 1176928" transform="translate(0)">
              <g id="Grupo_1172322" data-name="Grupo 1172322">
                <g id="Grupo_1164700" data-name="Grupo 1164700">
                  <g id="Grupo_1160931" data-name="Grupo 1160931">
                    <g id="Grupo_1160749" data-name="Grupo 1160749">
                      <g id="Grupo_1158891" data-name="Grupo 1158891">
                        <g id="Grupo_1157406" data-name="Grupo 1157406">
                          <g id="Grupo_1155793" data-name="Grupo 1155793">
                            <g id="Grupo_1154704" data-name="Grupo 1154704">
                              <g id="Grupo_1150790" data-name="Grupo 1150790">
                                <g id="Grupo_1154214" data-name="Grupo 1154214">
                                  <g id="Grupo_1152583" data-name="Grupo 1152583">
                                    <g id="Grupo_1146973" data-name="Grupo 1146973">
                                      <g id="Grupo_1146954" data-name="Grupo 1146954">
                                        <g transform="matrix(1, 0, 0, 1, -9, -6)" filter="url(#Trazado_982547)">
                                          <g id="Trazado_982547-2" data-name="Trazado 982547" transform="translate(9 6)" fill="#fcebe9">
                                            <path d="M 47.5000114440918 93.49987030029297 C 41.28938293457031 93.49987030029297 35.26534652709961 92.28384399414062 29.5951976776123 89.88558959960938 C 24.11773109436035 87.56881713867188 19.19814491271973 84.25183868408203 14.97310447692871 80.02680206298828 C 10.74805164337158 75.80176544189453 7.43107795715332 70.88218688964844 5.114304542541504 65.40472412109375 C 2.716038227081299 59.73458862304688 1.500011444091797 53.71054840087891 1.500011444091797 47.49993515014648 C 1.500011444091797 41.28932189941406 2.716038227081299 35.26528167724609 5.114304542541504 29.59514808654785 C 7.43107795715332 24.1176815032959 10.74805164337158 19.1981086730957 14.97310447692871 14.97306823730469 C 19.19814491271973 10.74802875518799 24.11773109436035 7.431055068969727 29.5951976776123 5.11428165435791 C 35.26534652709961 2.716028451919556 41.28938293457031 1.500001788139343 47.5000114440918 1.500001788139343 C 53.71063995361328 1.500001788139343 59.73467636108398 2.716028451919556 65.40482330322266 5.11428165435791 C 70.88229370117188 7.431055068969727 75.8018798828125 10.74802875518799 80.02691650390625 14.97306823730469 C 84.25196838378906 19.1981086730957 87.56894683837891 24.1176815032959 89.88571929931641 29.59514808654785 C 92.28398132324219 35.26528167724609 93.50001525878906 41.28932189941406 93.50001525878906 47.49993515014648 C 93.50001525878906 53.71054840087891 92.28398132324219 59.73458862304688 89.88571929931641 65.40472412109375 C 87.56894683837891 70.88218688964844 84.25196838378906 75.80176544189453 80.02691650390625 80.02680206298828 C 75.8018798828125 84.25183868408203 70.88229370117188 87.56881713867188 65.40482330322266 89.88558959960938 C 59.73467636108398 92.28384399414062 53.71063995361328 93.49987030029297 47.5000114440918 93.49987030029297 Z" stroke="none"/>
                                            <path d="M 47.5000114440918 3 C 41.49122619628906 3 35.66378021240234 4.1761474609375 30.17951965332031 6.495796203613281 C 24.880859375 8.7369384765625 20.12153625488281 11.94596862792969 16.03376770019531 16.03373718261719 C 11.94598388671875 20.12149047851562 8.736968994140625 24.88081359863281 6.495811462402344 30.17947387695312 C 4.176162719726562 35.66371917724609 3.000007629394531 41.49116516113281 3.000007629394531 47.49993515014648 C 3.000007629394531 53.50870513916016 4.176162719726562 59.33615112304688 6.495811462402344 64.82039642333984 C 8.736968994140625 70.11905670166016 11.94598388671875 74.87837982177734 16.03376770019531 78.96613311767578 C 20.12153625488281 83.05390167236328 24.880859375 86.26293182373047 30.17951965332031 88.50407409667969 C 35.66378021240234 90.82372283935547 41.49122619628906 91.99987030029297 47.5000114440918 91.99987030029297 C 53.50879669189453 91.99987030029297 59.33624267578125 90.82372283935547 64.82050323486328 88.50407409667969 C 70.11916351318359 86.26293182373047 74.87848663330078 83.05390167236328 78.96625518798828 78.96613311767578 C 83.05403900146484 74.87837982177734 86.2630615234375 70.11905670166016 88.50421142578125 64.82039642333984 C 90.82386016845703 59.33615112304688 92.00001525878906 53.50870513916016 92.00001525878906 47.49993515014648 C 92.00001525878906 41.49116516113281 90.82386016845703 35.66371917724609 88.50421142578125 30.17947387695312 C 86.2630615234375 24.88081359863281 83.05403900146484 20.12149047851562 78.96625518798828 16.03373718261719 C 74.87848663330078 11.94596862792969 70.11916351318359 8.7369384765625 64.82050323486328 6.495796203613281 C 59.33624267578125 4.1761474609375 53.50879669189453 3 47.5000114440918 3 M 47.5000114440918 0 C 73.73353576660156 0 95.00001525878906 21.26644134521484 95.00001525878906 47.49993515014648 C 95.00001525878906 73.73342895507812 73.73353576660156 94.99987030029297 47.5000114440918 94.99987030029297 C 21.26648712158203 94.99987030029297 7.62939453125e-06 73.73342895507812 7.62939453125e-06 47.49993515014648 C 7.62939453125e-06 21.26644134521484 21.26648712158203 0 47.5000114440918 0 Z" stroke="none" fill="#e44b36"/>
                                          </g>
                                        </g>
                                      </g>
                                    </g>
                                  </g>
                                </g>
                              </g>
                            </g>
                          </g>
                        </g>
                      </g>
                    </g>
                  </g>
                </g>
              </g>
            </g>
          </g>
        </g>
      </g>
    </g>
    <g id="risk-management_17575268" transform="translate(687.991 3109.251)">
      <g id="Grupo_1209471" data-name="Grupo 1209471" transform="translate(13.803 23.692)">
        <path id="Trazado_1050294" data-name="Trazado 1050294" d="M61.072,117.722a9.794,9.794,0,0,1,2.19.908l2.888-1.275,2.223,2.223L67.1,122.462a10.069,10.069,0,0,1,.908,2.193l2.942,1.136v3.145l-2.942,1.136a9.9,9.9,0,0,1-.908,2.19l1.275,2.888-2.223,2.223L63.262,136.1a10.118,10.118,0,0,1-2.19.908l-1.14,2.942H56.791l-1.14-2.942a9.977,9.977,0,0,1-2.19-.908l-2.884,1.275-2.227-2.223,1.279-2.888a9.995,9.995,0,0,1-.911-2.19l-2.938-1.136v-3.145l2.938-1.136a10.007,10.007,0,0,1,.908-2.193l-1.275-2.884,2.227-2.223,2.884,1.275a9.992,9.992,0,0,1,2.19-.908l1.14-2.942h3.141l1.14,2.942Zm-2.71,3.85a5.792,5.792,0,1,1-5.8,5.792A5.792,5.792,0,0,1,58.363,121.572Z" transform="translate(-45.007 -114.01)" fill="#b5c4cf" fill-rule="evenodd"/>
        <path id="Trazado_1050295" data-name="Trazado 1050295" d="M54.673,135.478H51.532a.768.768,0,0,1-.717-.492l-1-2.592a10.867,10.867,0,0,1-1.641-.68l-2.539,1.122a.772.772,0,0,1-.856-.159l-2.227-2.223a.772.772,0,0,1-.16-.857l1.126-2.542a10.664,10.664,0,0,1-.683-1.641l-2.588-1a.771.771,0,0,1-.492-.717v-3.145a.769.769,0,0,1,.492-.717l2.587-1a10.908,10.908,0,0,1,.68-1.644l-1.122-2.539a.77.77,0,0,1,.16-.856l2.227-2.223a.77.77,0,0,1,.856-.159l2.539,1.122a10.72,10.72,0,0,1,1.641-.682l1-2.591a.771.771,0,0,1,.717-.492h3.141a.768.768,0,0,1,.717.492l1,2.591a10.473,10.473,0,0,1,1.642.682l2.542-1.122a.77.77,0,0,1,.856.16l2.223,2.223a.772.772,0,0,1,.16.856L62.7,117.19a10.909,10.909,0,0,1,.68,1.644l2.591,1a.768.768,0,0,1,.492.719V123.7a.772.772,0,0,1-.492.719l-2.591,1a10.717,10.717,0,0,1-.68,1.641l1.122,2.543a.77.77,0,0,1-.16.856l-2.223,2.223a.772.772,0,0,1-.856.16l-2.543-1.122a10.824,10.824,0,0,1-1.641.68l-1,2.592a.771.771,0,0,1-.717.492Zm-2.614-1.54h2.087l.949-2.45a.767.767,0,0,1,.509-.463,9.272,9.272,0,0,0,2.023-.839.774.774,0,0,1,.688-.033l2.4,1.062,1.477-1.477-1.062-2.4a.769.769,0,0,1,.033-.689,9.18,9.18,0,0,0,.838-2.02.771.771,0,0,1,.464-.51l2.45-.947v-2.09l-2.45-.947a.771.771,0,0,1-.464-.51,9.378,9.378,0,0,0-.838-2.026.77.77,0,0,1-.032-.688l1.061-2.4-1.476-1.476-2.4,1.062a.769.769,0,0,1-.689-.033,9.048,9.048,0,0,0-2.018-.837.768.768,0,0,1-.511-.464l-.949-2.45H52.062l-.949,2.45a.773.773,0,0,1-.511.464,9.071,9.071,0,0,0-2.019.838.77.77,0,0,1-.688.032l-2.4-1.062-1.48,1.477,1.061,2.4a.77.77,0,0,1-.033.688,9.252,9.252,0,0,0-.838,2.026.771.771,0,0,1-.464.51l-2.446.947v2.09l2.446.947a.775.775,0,0,1,.464.509,9.157,9.157,0,0,0,.842,2.02.769.769,0,0,1,.033.689l-1.065,2.4,1.48,1.477,2.4-1.062a.769.769,0,0,1,.689.033,9.285,9.285,0,0,0,2.022.838.77.77,0,0,1,.509.463l.949,2.45Zm1.045-5.252a6.562,6.562,0,1,1,6.562-6.562A6.572,6.572,0,0,1,53.105,128.686Zm0-11.585a5.022,5.022,0,1,0,5.022,5.022A5.03,5.03,0,0,0,53.105,117.1Z" transform="translate(-39.75 -108.77)"/>
      </g>
      <g id="Grupo_1209472" data-name="Grupo 1209472" transform="translate(31.312 11.19)">
        <path id="Trazado_1050296" data-name="Trazado 1050296" d="M198.969,42.286,205.313,31.3l6.341-10.99A2.074,2.074,0,0,0,209.86,17.2H184.485a2.074,2.074,0,0,0-1.794,3.109l6.344,10.99,6.341,10.986a2.071,2.071,0,0,0,3.591,0Z" transform="translate(-181.638 -16.43)" fill="#fdd330" fill-rule="evenodd"/>
        <path id="Trazado_1050297" data-name="Trazado 1050297" d="M191.951,38.853a2.783,2.783,0,0,1-2.465-1.423l-6.341-10.986L176.8,15.454a2.806,2.806,0,0,1,0-2.842,2.777,2.777,0,0,1,2.46-1.422h25.375a2.77,2.77,0,0,1,2.462,1.426,2.8,2.8,0,0,1,0,2.839l-6.341,10.987-6.344,10.986a2.778,2.778,0,0,1-2.461,1.423ZM179.262,12.731a1.3,1.3,0,0,0-1.127,1.953l6.346,10.991,6.341,10.986a1.3,1.3,0,0,0,2.259,0l6.344-10.986,6.341-10.989a1.3,1.3,0,0,0-1.129-1.954H179.261Z" transform="translate(-176.415 -11.19)"/>
      </g>
      <g id="Grupo_1209473" data-name="Grupo 1209473" transform="translate(44.097 13.141)">
        <path id="Trazado_1050298" data-name="Trazado 1050298" d="M286.163,34.461l-.922,10.993c-.142,1.681-1.976,1.667-2.118,0L282.2,34.461a1.981,1.981,0,1,1,3.961,0Z" transform="translate(-281.431 -31.66)" fill="#fff" fill-rule="evenodd"/>
        <path id="Trazado_1050299" data-name="Trazado 1050299" d="M278.955,42.239a1.929,1.929,0,0,1-1.83-1.96L276.2,29.285c0-.022,0-.042,0-.064a2.744,2.744,0,0,1,2.742-2.8,2.716,2.716,0,0,1,2.76,2.8.535.535,0,0,1,0,.064l-.922,10.993A1.926,1.926,0,0,1,278.955,42.239ZM277.74,29.191l.92,10.958c.032.379.192.55.295.55s.256-.17.288-.551l.92-10.958a1.211,1.211,0,1,0-2.421,0Z" transform="translate(-276.2 -26.42)"/>
      </g>
      <g id="Grupo_1209474" data-name="Grupo 1209474" transform="translate(44.681 29.507)">
        <path id="Trazado_1050300" data-name="Trazado 1050300" d="M288.168,162.966a1.4,1.4,0,1,0-1.4-1.4A1.4,1.4,0,0,0,288.168,162.966Z" transform="translate(-286 -159.4)" fill="#fff" fill-rule="evenodd"/>
        <path id="Trazado_1050301" data-name="Trazado 1050301" d="M282.928,158.5a2.168,2.168,0,1,1,2.168-2.168A2.17,2.17,0,0,1,282.928,158.5Zm0-2.8a.628.628,0,1,0,.628.628A.629.629,0,0,0,282.928,155.7Z" transform="translate(-280.76 -154.16)"/>
      </g>
      <g id="Grupo_1209475" data-name="Grupo 1209475" transform="translate(9.991 55.836)">
        <path id="Trazado_1050302" data-name="Trazado 1050302" d="M0,0H5.222V17.509H0Z" transform="translate(0.786 4.229) rotate(-41.757)" fill="#ffc5b7"/>
        <path id="Trazado_1050303" data-name="Trazado 1050303" d="M22.42,377.745h-.044a.769.769,0,0,1-.53-.256L10.191,364.42a.77.77,0,0,1,.061-1.086l3.9-3.476a.777.777,0,0,1,.556-.195.769.769,0,0,1,.53.256L26.89,372.986a.77.77,0,0,1-.061,1.086l-3.9,3.476a.767.767,0,0,1-.512.2ZM11.852,363.969l10.629,11.918,2.748-2.451L14.6,361.518Z" transform="translate(-9.995 -359.662)"/>
      </g>
      <g id="Grupo_1209476" data-name="Grupo 1209476" transform="translate(16.546 47.906)">
        <path id="Trazado_1050304" data-name="Trazado 1050304" d="M95.087,312.216l1.976-1.591,6.708-5.327c2.8-2.386,6.047-1.762,7.7.295T94.618,321.4l-21.456-.014-5.992-6.715c7.423-7.663,13.663-9.7,18.017-5.448h6.831c3.072-.378,3.058,3,3.068,2.989Z" transform="translate(-66.401 -302.993)" fill="#fed9c9" fill-rule="evenodd"/>
        <path id="Trazado_1050305" data-name="Trazado 1050305" d="M89.382,316.946l-21.456-.014a.768.768,0,0,1-.574-.258l-5.992-6.715a.769.769,0,0,1,.022-1.048c5-5.163,9.48-7.809,13.31-7.863a7.848,7.848,0,0,1,5.565,2.181h6.48a3.269,3.269,0,0,1,2.574.676,3.569,3.569,0,0,1,1.065,1.671l.967-.779,6.7-5.322a6.622,6.622,0,0,1,4.889-1.686,5.711,5.711,0,0,1,3.9,2.092.77.77,0,0,1-.073,1.044s-5.618,5.27-16.852,15.812a.765.765,0,0,1-.527.209Zm-21.111-1.554q18.572.013,20.807.014,13.562-12.728,16.064-15.073a4.178,4.178,0,0,0-2.351-1.011,5.035,5.035,0,0,0-3.756,1.334.232.232,0,0,1-.021.017L92.3,306l-1.972,1.587A.771.771,0,0,1,89.079,307a2.865,2.865,0,0,0-.758-1.913,1.8,1.8,0,0,0-1.445-.322.763.763,0,0,1-.094.005H79.95a.77.77,0,0,1-.538-.219,6.34,6.34,0,0,0-4.7-1.961c-3.285.046-7.227,2.361-11.725,6.884l5.284,5.92Z" transform="translate(-61.165 -297.764)"/>
      </g>
      <path id="Trazado_1050306" data-name="Trazado 1050306" d="M189.989,347.428H180.02a.77.77,0,0,1,0-1.54h9.969a1.964,1.964,0,1,0,0-3.928h-7.082a.77.77,0,1,1,0-1.54h7.082a3.5,3.5,0,0,1,0,7.008Z" transform="translate(-147.575 -287.049)"/>
      <path id="Trazado_1050307" data-name="Trazado 1050307" d="M363.945,111.525H345.31a.77.77,0,0,1,0-1.54h17.865V63.71h-8.142a.77.77,0,0,1,0-1.54h8.912a.77.77,0,0,1,.77.77v47.815A.77.77,0,0,1,363.945,111.525Z" transform="translate(-291.688 -44.448)"/>
      <path id="Trazado_1050308" data-name="Trazado 1050308" d="M10.76,97.237a.77.77,0,0,1-.77-.77V62.94a.77.77,0,0,1,.77-.77H23.514a.77.77,0,0,1,0,1.54H11.53V96.467A.77.77,0,0,1,10.76,97.237Z" transform="translate(0 -44.448)"/>
      <path id="Trazado_1050309" data-name="Trazado 1050309" d="M346.386,415.548a.764.764,0,0,1-.384-.1l-6.378-3.682a.77.77,0,0,1,0-1.332L346,406.748a.77.77,0,1,1,.77,1.334L341.55,411.1l5.222,3.016a.77.77,0,0,1-.386,1.437Z" transform="translate(-287.067 -344.789)"/>
      <path id="Trazado_1050310" data-name="Trazado 1050310" d="M60.573,42.356a.77.77,0,0,1-.387-1.436l5.22-3.016-5.218-3.012a.77.77,0,0,1,.77-1.334l6.374,3.68a.77.77,0,0,1,0,1.332l-6.374,3.682a.764.764,0,0,1-.384.1Z" transform="translate(-43.43 -19.412)"/>
    </g>
  </g>
</svg>
