<svg xmlns="http://www.w3.org/2000/svg" xmlns:xlink="http://www.w3.org/1999/xlink" width="113" height="113" viewBox="0 0 113 113">
  <defs>
    <filter id="Trazado_982547" x="0" y="0" width="113" height="113" filterUnits="userSpaceOnUse">
      <feOffset dy="3" input="SourceAlpha"/>
      <feGaussianBlur stdDeviation="3" result="blur"/>
      <feFlood flood-opacity="0.161"/>
      <feComposite operator="in" in2="blur"/>
      <feComposite in="SourceGraphic"/>
    </filter>
  </defs>
  <g id="Grupo_1209484" data-name="Grupo 1209484" transform="translate(-12556 -3096)">
    <g id="Grupo_1209279" data-name="Grupo 1209279" transform="translate(12565 3102)">
      <g id="Grupo_1208038" data-name="Grupo 1208038" transform="translate(0)">
        <g id="Grupo_1202104" data-name="Grupo 1202104" transform="translate(0)">
          <g id="Grupo_1201923" data-name="Grupo 1201923" transform="translate(0 0)">
            <g id="Grupo_1176928" data-name="Grupo 1176928" transform="translate(0)">
              <g id="Grupo_1172322" data-name="Grupo 1172322">
                <g id="Grupo_1164700" data-name="Grupo 1164700">
                  <g id="Grupo_1160931" data-name="Grupo 1160931">
                    <g id="Grupo_1160749" data-name="Grupo 1160749">
                      <g id="Grupo_1158891" data-name="Grupo 1158891">
                        <g id="Grupo_1157406" data-name="Grupo 1157406">
                          <g id="Grupo_1155793" data-name="Grupo 1155793">
                            <g id="Grupo_1154704" data-name="Grupo 1154704">
                              <g id="Grupo_1150790" data-name="Grupo 1150790">
                                <g id="Grupo_1154214" data-name="Grupo 1154214">
                                  <g id="Grupo_1152583" data-name="Grupo 1152583">
                                    <g id="Grupo_1146973" data-name="Grupo 1146973">
                                      <g id="Grupo_1146954" data-name="Grupo 1146954">
                                        <g transform="matrix(1, 0, 0, 1, -9, -6)" filter="url(#Trazado_982547)">
                                          <g id="Trazado_982547-2" data-name="Trazado 982547" transform="translate(9 6)" fill="#fcebe9">
                                            <path d="M 47.5000114440918 93.49987030029297 C 41.28938293457031 93.49987030029297 35.26534652709961 92.28384399414062 29.5951976776123 89.88558959960938 C 24.11773109436035 87.56881713867188 19.19814491271973 84.25183868408203 14.97310447692871 80.02680206298828 C 10.74805164337158 75.80176544189453 7.43107795715332 70.88218688964844 5.114304542541504 65.40472412109375 C 2.716038227081299 59.73458862304688 1.500011444091797 53.71054840087891 1.500011444091797 47.49993515014648 C 1.500011444091797 41.28932189941406 2.716038227081299 35.26528167724609 5.114304542541504 29.59514808654785 C 7.43107795715332 24.1176815032959 10.74805164337158 19.1981086730957 14.97310447692871 14.97306823730469 C 19.19814491271973 10.74802875518799 24.11773109436035 7.431055068969727 29.5951976776123 5.11428165435791 C 35.26534652709961 2.716028451919556 41.28938293457031 1.500001788139343 47.5000114440918 1.500001788139343 C 53.71063995361328 1.500001788139343 59.73467636108398 2.716028451919556 65.40482330322266 5.11428165435791 C 70.88229370117188 7.431055068969727 75.8018798828125 10.74802875518799 80.02691650390625 14.97306823730469 C 84.25196838378906 19.1981086730957 87.56894683837891 24.1176815032959 89.88571929931641 29.59514808654785 C 92.28398132324219 35.26528167724609 93.50001525878906 41.28932189941406 93.50001525878906 47.49993515014648 C 93.50001525878906 53.71054840087891 92.28398132324219 59.73458862304688 89.88571929931641 65.40472412109375 C 87.56894683837891 70.88218688964844 84.25196838378906 75.80176544189453 80.02691650390625 80.02680206298828 C 75.8018798828125 84.25183868408203 70.88229370117188 87.56881713867188 65.40482330322266 89.88558959960938 C 59.73467636108398 92.28384399414062 53.71063995361328 93.49987030029297 47.5000114440918 93.49987030029297 Z" stroke="none"/>
                                            <path d="M 47.5000114440918 3 C 41.49122619628906 3 35.66378021240234 4.1761474609375 30.17951965332031 6.495796203613281 C 24.880859375 8.7369384765625 20.12153625488281 11.94596862792969 16.03376770019531 16.03373718261719 C 11.94598388671875 20.12149047851562 8.736968994140625 24.88081359863281 6.495811462402344 30.17947387695312 C 4.176162719726562 35.66371917724609 3.000007629394531 41.49116516113281 3.000007629394531 47.49993515014648 C 3.000007629394531 53.50870513916016 4.176162719726562 59.33615112304688 6.495811462402344 64.82039642333984 C 8.736968994140625 70.11905670166016 11.94598388671875 74.87837982177734 16.03376770019531 78.96613311767578 C 20.12153625488281 83.05390167236328 24.880859375 86.26293182373047 30.17951965332031 88.50407409667969 C 35.66378021240234 90.82372283935547 41.49122619628906 91.99987030029297 47.5000114440918 91.99987030029297 C 53.50879669189453 91.99987030029297 59.33624267578125 90.82372283935547 64.82050323486328 88.50407409667969 C 70.11916351318359 86.26293182373047 74.87848663330078 83.05390167236328 78.96625518798828 78.96613311767578 C 83.05403900146484 74.87837982177734 86.2630615234375 70.11905670166016 88.50421142578125 64.82039642333984 C 90.82386016845703 59.33615112304688 92.00001525878906 53.50870513916016 92.00001525878906 47.49993515014648 C 92.00001525878906 41.49116516113281 90.82386016845703 35.66371917724609 88.50421142578125 30.17947387695312 C 86.2630615234375 24.88081359863281 83.05403900146484 20.12149047851562 78.96625518798828 16.03373718261719 C 74.87848663330078 11.94596862792969 70.11916351318359 8.7369384765625 64.82050323486328 6.495796203613281 C 59.33624267578125 4.1761474609375 53.50879669189453 3 47.5000114440918 3 M 47.5000114440918 0 C 73.73353576660156 0 95.00001525878906 21.26644134521484 95.00001525878906 47.49993515014648 C 95.00001525878906 73.73342895507812 73.73353576660156 94.99987030029297 47.5000114440918 94.99987030029297 C 21.26648712158203 94.99987030029297 7.62939453125e-06 73.73342895507812 7.62939453125e-06 47.49993515014648 C 7.62939453125e-06 21.26644134521484 21.26648712158203 0 47.5000114440918 0 Z" stroke="none" fill="#e44b36"/>
                                          </g>
                                        </g>
                                      </g>
                                    </g>
                                  </g>
                                </g>
                              </g>
                            </g>
                          </g>
                        </g>
                      </g>
                    </g>
                  </g>
                </g>
              </g>
            </g>
          </g>
        </g>
      </g>
    </g>
    <g id="insolvency_15586566" transform="translate(12570.043 3119.315)">
      <g id="Grupo_1209483" data-name="Grupo 1209483" transform="translate(16.339 1.916)">
        <g id="Grupo_1209480" data-name="Grupo 1209480" transform="translate(0 0)">
          <path id="Trazado_1050330" data-name="Trazado 1050330" d="M61.721,49.654A2.155,2.155,0,0,1,63.872,51.8V94.986a2.155,2.155,0,0,1-2.151,2.151H25.581a2.155,2.155,0,0,1-2.151-2.151V51.8a2.155,2.155,0,0,1,2.151-2.151Z" transform="translate(-23.43 -45.001)" fill="#b4d2d7" fill-rule="evenodd"/>
          <path id="Trazado_1050331" data-name="Trazado 1050331" d="M341.675,49.654a2.155,2.155,0,0,1,2.151,2.151V94.986a2.155,2.155,0,0,1-2.151,2.151h-2.111a2.155,2.155,0,0,0,2.151-2.151V51.8a2.155,2.155,0,0,0-2.151-2.151Z" transform="translate(-303.383 -45.001)" fill="#9bb9c3" fill-rule="evenodd"/>
          <path id="Trazado_1050332" data-name="Trazado 1050332" d="M54.052,80.7v39.63a.423.423,0,0,0,.422.422H82.337l5.148-5.147V80.7a.423.423,0,0,0-.422-.422H54.474A.423.423,0,0,0,54.052,80.7Z" transform="translate(-50.547 -72.119)" fill="#eff4f7" fill-rule="evenodd"/>
          <path id="Trazado_1050333" data-name="Trazado 1050333" d="M54.052,80.7v39.63a.423.423,0,0,0,.422.422h1.832a.423.423,0,0,1-.422-.422V80.7a.423.423,0,0,1,.422-.422H54.474A.423.423,0,0,0,54.052,80.7Z" transform="translate(-50.547 -72.118)" fill="#e2e3e3" fill-rule="evenodd"/>
          <path id="Trazado_1050334" data-name="Trazado 1050334" d="M301.2,388.945v5.148l5.148-5.148Z" transform="translate(-269.41 -345.461)" fill="#e2e3e3" fill-rule="evenodd"/>
          <path id="Trazado_1050335" data-name="Trazado 1050335" d="M146.692,13.649H141.3l2.145-3.033A1.026,1.026,0,0,0,142.607,9H135.89a1.026,1.026,0,0,0-.838,1.62l2.145,3.033H131.8a.421.421,0,0,0-.413.511l.729,3.374a1.256,1.256,0,0,0,1.238,1h11.779a1.256,1.256,0,0,0,1.238-1l.729-3.374a.421.421,0,0,0-.413-.511Z" transform="translate(-119.027 -8.996)" fill="#da8c36" fill-rule="evenodd"/>
          <path id="Trazado_1050336" data-name="Trazado 1050336" d="M137.309,8.995H135.89a1.026,1.026,0,0,0-.838,1.62l2.145,3.033h1.419l-2.145-3.033A1.026,1.026,0,0,1,137.309,8.995Zm-4.085,4.653a.421.421,0,0,0-.413.511l.729,3.374a1.256,1.256,0,0,0,1.238,1h-1.419a1.256,1.256,0,0,1-1.238-1l-.729-3.374a.421.421,0,0,1,.413-.511Z" transform="translate(-119.027 -8.995)" fill="#c97629" fill-rule="evenodd"/>
        </g>
        <g id="Grupo_1209481" data-name="Grupo 1209481" transform="translate(7.559 12.757)">
          <path id="Trazado_1050337" data-name="Trazado 1050337" d="M89.478,187.074V202.19a.321.321,0,0,0,.32.32h3.4a.321.321,0,0,0,.32-.32V187.074a.321.321,0,0,0-.32-.32H89.8A.321.321,0,0,0,89.478,187.074Z" transform="translate(-89.478 -179.167)" fill="#64b5f6" fill-rule="evenodd"/>
          <path id="Trazado_1050338" data-name="Trazado 1050338" d="M89.478,201.788v.4a.321.321,0,0,0,.32.32h3.4a.321.321,0,0,0,.32-.32V187.074a.321.321,0,0,0-.32-.32h-.41v14.713a.321.321,0,0,1-.32.32Z" transform="translate(-89.478 -179.167)" fill="#42a5f5" fill-rule="evenodd"/>
          <path id="Trazado_1050339" data-name="Trazado 1050339" d="M154.811,210.812h-3.4a.321.321,0,0,0-.32.32v12.362a.321.321,0,0,0,.32.32h3.4a.321.321,0,0,0,.32-.32V211.132A.321.321,0,0,0,154.811,210.812Z" transform="translate(-144.041 -200.472)" fill="#72d561" fill-rule="evenodd"/>
          <path id="Trazado_1050340" data-name="Trazado 1050340" d="M154.81,210.812h-.41v11.96a.321.321,0,0,1-.32.32h-2.987v.4a.321.321,0,0,0,.32.32h3.4a.321.321,0,0,0,.32-.32V211.132A.321.321,0,0,0,154.81,210.812Z" transform="translate(-144.04 -200.472)" fill="#57ca5a" fill-rule="evenodd"/>
          <path id="Trazado_1050341" data-name="Trazado 1050341" d="M216.425,243.112h-3.4a.321.321,0,0,0-.32.32V252.1a.321.321,0,0,0,.32.32h3.4a.321.321,0,0,0,.32-.32v-8.665A.321.321,0,0,0,216.425,243.112Z" transform="translate(-198.604 -229.075)" fill="#ffda2d" fill-rule="evenodd"/>
          <path id="Trazado_1050342" data-name="Trazado 1050342" d="M216.424,243.112h-.41v8.263a.321.321,0,0,1-.32.32h-2.987v.4a.321.321,0,0,0,.32.32h3.4a.321.321,0,0,0,.32-.32v-8.665A.321.321,0,0,0,216.424,243.112Z" transform="translate(-198.603 -229.075)" fill="#ffc700" fill-rule="evenodd"/>
          <path id="Trazado_1050343" data-name="Trazado 1050343" d="M278.039,275.41h-3.4a.321.321,0,0,0-.32.32V280.7a.321.321,0,0,0,.32.32h3.4a.321.321,0,0,0,.32-.32V275.73A.321.321,0,0,0,278.039,275.41Z" transform="translate(-253.166 -257.677)" fill="#fc685b" fill-rule="evenodd"/>
          <path id="Trazado_1050344" data-name="Trazado 1050344" d="M278.038,275.41h-.41v4.567a.321.321,0,0,1-.32.32H274.32v.4a.321.321,0,0,0,.32.32h3.4a.321.321,0,0,0,.32-.32V275.73A.321.321,0,0,0,278.038,275.41Z" transform="translate(-253.165 -257.677)" fill="#f35244" fill-rule="evenodd"/>
          <path id="Trazado_1050345" data-name="Trazado 1050345" d="M150.682,131.843l-.664,1.151a.361.361,0,0,0,.361.538l4.357-.589a.361.361,0,0,0,.286-.495l-1.669-4.067a.361.361,0,0,0-.647-.043l-.664,1.151-15.52-8.96a.474.474,0,0,0-.646.173l-.886,1.535a.474.474,0,0,0,.173.646Z" transform="translate(-129.725 -120.465)" fill="#b4d2d7" fill-rule="evenodd"/>
          <path id="Trazado_1050346" data-name="Trazado 1050346" d="M150.438,140.356l-.42.728a.361.361,0,0,0,.361.538l4.357-.589a.361.361,0,0,0,.286-.495l-.084-.2-4.139.559A.361.361,0,0,1,150.438,140.356ZM135.409,129.6l-.419.726a.474.474,0,0,0,.173.646l15.519,8.96.42-.728-15.519-8.96A.474.474,0,0,1,135.409,129.6Z" transform="translate(-129.725 -128.554)" fill="#9bb9c3" fill-rule="evenodd"/>
        </g>
        <g id="Grupo_1209482" data-name="Grupo 1209482" transform="translate(24.679 31.975)">
          <path id="Trazado_1050347" data-name="Trazado 1050347" d="M254.205,288.868l13.229,22.076a1.32,1.32,0,0,1-1.134,2H240.4a1.32,1.32,0,0,1-1.134-2l13.229-22.076A1,1,0,0,1,254.205,288.868Z" transform="translate(-239.071 -288.384)" fill="#fc685b" fill-rule="evenodd"/>
          <path id="Trazado_1050348" data-name="Trazado 1050348" d="M254.212,288.868l13.229,22.076a1.32,1.32,0,0,1-1.134,2H240.4a1.321,1.321,0,0,1-1.324-1.274h24.681a1.32,1.32,0,0,0,1.134-2l-12.431-20.744.035-.058A1,1,0,0,1,254.212,288.868Z" transform="translate(-239.077 -288.384)" fill="#f35244" fill-rule="evenodd"/>
          <path id="Trazado_1050349" data-name="Trazado 1050349" d="M350.113,349.2a1.413,1.413,0,1,1-1.413,1.413A1.412,1.412,0,0,1,350.113,349.2Zm1.1-2.788a1.1,1.1,0,0,1-2.2,0l-.674-9.785c0-2.219,3.543-2.219,3.543,0Z" transform="translate(-335.835 -329.633)" fill="#eff4f7" fill-rule="evenodd"/>
          <path id="Trazado_1050350" data-name="Trazado 1050350" d="M350.113,349.2a1.409,1.409,0,0,1,1.037.454,1.427,1.427,0,0,0-.213-.016,1.413,1.413,0,0,0-1.037,2.371,1.413,1.413,0,0,1,.213-2.809Zm-.1-1.76a1.012,1.012,0,0,1-1-1.027l-.674-9.785c0-1.714,2.112-2.1,3.075-1.171a1.725,1.725,0,0,0-2.25,1.609l.674,9.785A1.011,1.011,0,0,0,350.013,347.443Z" transform="translate(-335.835 -329.635)" fill="#e2e3e3" fill-rule="evenodd"/>
        </g>
      </g>
      <path id="Trazado_1050351" data-name="Trazado 1050351" d="M55.48,50.609c0,.021,0,.042,0,.063,0,.044,0,.116-.182.116s-.182-.072-.182-.116c0-.021,0-.042,0-.063l-.671-9.748c.017-.687.714-.722.856-.722s.838.035.856.722Zm-.184,4.76a.5.5,0,1,1,.5-.5A.5.5,0,0,1,55.3,55.369Zm0-17.063a2.555,2.555,0,0,0-2.688,2.58.614.614,0,0,0,0,.063l.672,9.758a1.912,1.912,0,0,0,1.606,1.874,2.328,2.328,0,1,0,.813,0,1.912,1.912,0,0,0,1.607-1.874l.672-9.758c0-.021,0-.042,0-.063a2.555,2.555,0,0,0-2.687-2.58ZM68.6,57.333a.4.4,0,0,0-.007-.41L55.368,34.846a.085.085,0,0,0-.144,0L41.994,56.923a.4.4,0,0,0,.348.615H68.248A.4.4,0,0,0,68.6,57.333Zm-50.114-4.2A1.237,1.237,0,0,1,17.254,51.9V8.72A1.237,1.237,0,0,1,18.49,7.485h9.364l.362,1.674H19.843a.916.916,0,0,0-.916.915V50.548a.916.916,0,0,0,.916.915H43.131l-1,1.674ZM34.508,7.485h-4.78l.6,2.777a.341.341,0,0,0,.343.277H42.449a.341.341,0,0,0,.343-.277l.6-2.777h-4.78a.915.915,0,0,1-.748-1.444L40.01,3.007a.1.1,0,0,0,.009-.116.1.1,0,0,0-.1-.059H33.2a.11.11,0,0,0-.091.175l2.145,3.034a.915.915,0,0,1-.748,1.444Zm9.721,42.147H20.759V10.99h7.882a2.164,2.164,0,0,0,2.03,1.38H42.449a2.163,2.163,0,0,0,2.029-1.38H52.36V36.062ZM55.866,8.72A1.238,1.238,0,0,0,54.63,7.485H45.265L44.9,9.159h8.371a.915.915,0,0,1,.916.915V33.324a1.907,1.907,0,0,1,1.1-.348,1.951,1.951,0,0,1,.57.086Zm14.3,47.261L57.7,35.17V8.72A3.07,3.07,0,0,0,54.63,5.654H40.38L41.5,4.065A1.941,1.941,0,0,0,39.918,1H33.2a1.941,1.941,0,0,0-1.586,3.064l1.124,1.589H18.49A3.07,3.07,0,0,0,15.423,8.72V51.9a3.07,3.07,0,0,0,3.066,3.067H41.031l-.607,1.014a2.235,2.235,0,0,0,1.919,3.387H68.248a2.235,2.235,0,0,0,1.919-3.387ZM46.733,42.473a.916.916,0,0,1-.915.915h-14.6a.915.915,0,1,1,0-1.831h14.6A.915.915,0,0,1,46.733,42.473Zm-4.222,3.618a.915.915,0,0,1-.915.915H31.213a.916.916,0,0,1,0-1.831H41.6A.916.916,0,0,1,42.511,46.091Zm-15.005-.6a2.129,2.129,0,0,0-2.126-2.126h-.27a.3.3,0,0,1,0-.591h.381a.3.3,0,0,1,.24.125.916.916,0,1,0,1.484-1.073,2.142,2.142,0,0,0-1.054-.774v-.228a.915.915,0,0,0-1.831,0v.267a2.126,2.126,0,0,0,.781,4.1h.27a.3.3,0,1,1,0,.591H25a.3.3,0,0,1-.24-.125.915.915,0,1,0-1.484,1.072,2.137,2.137,0,0,0,1.054.774v.228a.915.915,0,0,0,1.831,0v-.267A2.129,2.129,0,0,0,27.505,45.493ZM30.177,16.52l15.136,8.739a.915.915,0,0,1,.335,1.251l-.1.173,2.527-.342-.968-2.358-.1.172a.916.916,0,0,1-1.251.336L30.62,15.751ZM43.4,26.744a1.275,1.275,0,0,0,1.276,1.9l4.357-.589a1.277,1.277,0,0,0,1.011-1.749l-1.669-4.068a1.277,1.277,0,0,0-2.287-.153l-.206.358-14.726-8.5a1.39,1.39,0,0,0-1.9.508l-.887,1.535a1.39,1.39,0,0,0,.508,1.9l14.726,8.5ZM41.123,37.1V29.626H38.917V37.1Zm-2.8-9.306h3.4a1.237,1.237,0,0,1,1.236,1.236V37.7a1.237,1.237,0,0,1-1.236,1.236h-3.4A1.238,1.238,0,0,1,37.085,37.7V29.031A1.238,1.238,0,0,1,38.321,27.795Zm-6.456-1.865V37.1h2.207V25.929Zm-.595,13h3.4A1.237,1.237,0,0,0,35.9,37.7V25.334A1.237,1.237,0,0,0,34.667,24.1h-3.4a1.237,1.237,0,0,0-1.236,1.236V37.7a1.237,1.237,0,0,0,1.236,1.236Zm16.9-1.831H45.968V33.322h2.207Zm.6-5.61a1.237,1.237,0,0,1,1.236,1.237V37.7a1.237,1.237,0,0,1-1.236,1.236h-3.4A1.237,1.237,0,0,1,44.137,37.7V32.727a1.238,1.238,0,0,1,1.236-1.237ZM27.02,37.1V23.176H24.814V37.1Zm.6-15.756h-3.4a1.237,1.237,0,0,0-1.236,1.236V37.7a1.237,1.237,0,0,0,1.236,1.236h3.4A1.237,1.237,0,0,0,28.851,37.7V22.58a1.237,1.237,0,0,0-1.236-1.236Z" fill-rule="evenodd"/>
    </g>
  </g>
</svg>
