<svg xmlns="http://www.w3.org/2000/svg" xmlns:xlink="http://www.w3.org/1999/xlink" width="113" height="113" viewBox="0 0 113 113">
  <defs>
    <filter id="Trazado_982547" x="0" y="0" width="113" height="113" filterUnits="userSpaceOnUse">
      <feOffset dy="3" input="SourceAlpha"/>
      <feGaussianBlur stdDeviation="3" result="blur"/>
      <feFlood flood-opacity="0.161"/>
      <feComposite operator="in" in2="blur"/>
      <feComposite in="SourceGraphic"/>
    </filter>
  </defs>
  <g id="Grupo_1209495" data-name="Grupo 1209495" transform="translate(-12236 -3507)">
    <g id="Grupo_1209281" data-name="Grupo 1209281" transform="translate(12245 3513)">
      <g id="Grupo_1208038" data-name="Grupo 1208038" transform="translate(0)">
        <g id="Grupo_1202104" data-name="Grupo 1202104" transform="translate(0)">
          <g id="Grupo_1201923" data-name="Grupo 1201923" transform="translate(0 0)">
            <g id="Grupo_1176928" data-name="Grupo 1176928" transform="translate(0)">
              <g id="Grupo_1172322" data-name="Grupo 1172322">
                <g id="Grupo_1164700" data-name="Grupo 1164700">
                  <g id="Grupo_1160931" data-name="Grupo 1160931">
                    <g id="Grupo_1160749" data-name="Grupo 1160749">
                      <g id="Grupo_1158891" data-name="Grupo 1158891">
                        <g id="Grupo_1157406" data-name="Grupo 1157406">
                          <g id="Grupo_1155793" data-name="Grupo 1155793">
                            <g id="Grupo_1154704" data-name="Grupo 1154704">
                              <g id="Grupo_1150790" data-name="Grupo 1150790">
                                <g id="Grupo_1154214" data-name="Grupo 1154214">
                                  <g id="Grupo_1152583" data-name="Grupo 1152583">
                                    <g id="Grupo_1146973" data-name="Grupo 1146973">
                                      <g id="Grupo_1146954" data-name="Grupo 1146954">
                                        <g transform="matrix(1, 0, 0, 1, -9, -6)" filter="url(#Trazado_982547)">
                                          <g id="Trazado_982547-2" data-name="Trazado 982547" transform="translate(9 6)" fill="#fcebe9">
                                            <path d="M 47.5000114440918 93.49987030029297 C 41.28938293457031 93.49987030029297 35.26534652709961 92.28384399414062 29.5951976776123 89.88558959960938 C 24.11773109436035 87.56881713867188 19.19814491271973 84.25183868408203 14.97310447692871 80.02680206298828 C 10.74805164337158 75.80176544189453 7.43107795715332 70.88218688964844 5.114304542541504 65.40472412109375 C 2.716038227081299 59.73458862304688 1.500011444091797 53.71054840087891 1.500011444091797 47.49993515014648 C 1.500011444091797 41.28932189941406 2.716038227081299 35.26528167724609 5.114304542541504 29.59514808654785 C 7.43107795715332 24.1176815032959 10.74805164337158 19.1981086730957 14.97310447692871 14.97306823730469 C 19.19814491271973 10.74802875518799 24.11773109436035 7.431055068969727 29.5951976776123 5.11428165435791 C 35.26534652709961 2.716028451919556 41.28938293457031 1.500001788139343 47.5000114440918 1.500001788139343 C 53.71063995361328 1.500001788139343 59.73467636108398 2.716028451919556 65.40482330322266 5.11428165435791 C 70.88229370117188 7.431055068969727 75.8018798828125 10.74802875518799 80.02691650390625 14.97306823730469 C 84.25196838378906 19.1981086730957 87.56894683837891 24.1176815032959 89.88571929931641 29.59514808654785 C 92.28398132324219 35.26528167724609 93.50001525878906 41.28932189941406 93.50001525878906 47.49993515014648 C 93.50001525878906 53.71054840087891 92.28398132324219 59.73458862304688 89.88571929931641 65.40472412109375 C 87.56894683837891 70.88218688964844 84.25196838378906 75.80176544189453 80.02691650390625 80.02680206298828 C 75.8018798828125 84.25183868408203 70.88229370117188 87.56881713867188 65.40482330322266 89.88558959960938 C 59.73467636108398 92.28384399414062 53.71063995361328 93.49987030029297 47.5000114440918 93.49987030029297 Z" stroke="none"/>
                                            <path d="M 47.5000114440918 3 C 41.49122619628906 3 35.66378021240234 4.1761474609375 30.17951965332031 6.495796203613281 C 24.880859375 8.7369384765625 20.12153625488281 11.94596862792969 16.03376770019531 16.03373718261719 C 11.94598388671875 20.12149047851562 8.736968994140625 24.88081359863281 6.495811462402344 30.17947387695312 C 4.176162719726562 35.66371917724609 3.000007629394531 41.49116516113281 3.000007629394531 47.49993515014648 C 3.000007629394531 53.50870513916016 4.176162719726562 59.33615112304688 6.495811462402344 64.82039642333984 C 8.736968994140625 70.11905670166016 11.94598388671875 74.87837982177734 16.03376770019531 78.96613311767578 C 20.12153625488281 83.05390167236328 24.880859375 86.26293182373047 30.17951965332031 88.50407409667969 C 35.66378021240234 90.82372283935547 41.49122619628906 91.99987030029297 47.5000114440918 91.99987030029297 C 53.50879669189453 91.99987030029297 59.33624267578125 90.82372283935547 64.82050323486328 88.50407409667969 C 70.11916351318359 86.26293182373047 74.87848663330078 83.05390167236328 78.96625518798828 78.96613311767578 C 83.05403900146484 74.87837982177734 86.2630615234375 70.11905670166016 88.50421142578125 64.82039642333984 C 90.82386016845703 59.33615112304688 92.00001525878906 53.50870513916016 92.00001525878906 47.49993515014648 C 92.00001525878906 41.49116516113281 90.82386016845703 35.66371917724609 88.50421142578125 30.17947387695312 C 86.2630615234375 24.88081359863281 83.05403900146484 20.12149047851562 78.96625518798828 16.03373718261719 C 74.87848663330078 11.94596862792969 70.11916351318359 8.7369384765625 64.82050323486328 6.495796203613281 C 59.33624267578125 4.1761474609375 53.50879669189453 3 47.5000114440918 3 M 47.5000114440918 0 C 73.73353576660156 0 95.00001525878906 21.26644134521484 95.00001525878906 47.49993515014648 C 95.00001525878906 73.73342895507812 73.73353576660156 94.99987030029297 47.5000114440918 94.99987030029297 C 21.26648712158203 94.99987030029297 7.62939453125e-06 73.73342895507812 7.62939453125e-06 47.49993515014648 C 7.62939453125e-06 21.26644134521484 21.26648712158203 0 47.5000114440918 0 Z" stroke="none" fill="#e44b36"/>
                                          </g>
                                        </g>
                                      </g>
                                    </g>
                                  </g>
                                </g>
                              </g>
                            </g>
                          </g>
                        </g>
                      </g>
                    </g>
                  </g>
                </g>
              </g>
            </g>
          </g>
        </g>
      </g>
    </g>
    <g id="issue_3958240" transform="translate(12267.166 3527.966)">
      <g id="Grupo_1209493" data-name="Grupo 1209493" transform="translate(1.033 1.033)">
        <g id="Grupo_1209485" data-name="Grupo 1209485" transform="translate(41.334 53.735)">
          <path id="Trazado_1050352" data-name="Trazado 1050352" d="M41,53h8.164a.839.839,0,0,1-.2.3L41.3,60.967a.839.839,0,0,1-.3.2Z" transform="translate(-41 -53)" fill="#fcd770"/>
        </g>
        <g id="Grupo_1209486" data-name="Grupo 1209486" transform="translate(0 12.4)">
          <path id="Trazado_1050353" data-name="Trazado 1050353" d="M44.4,40.9a1.036,1.036,0,0,0-1.033-1.033h-6.2A1.036,1.036,0,0,0,36.134,40.9v6.2a1.036,1.036,0,0,0,1.033,1.033h6.2A1.036,1.036,0,0,0,44.4,47.1ZM11.334,39.867h-3.1A1.036,1.036,0,0,0,7.2,40.9v6.2a1.036,1.036,0,0,0,1.033,1.033h6.2A1.036,1.036,0,0,0,15.467,47.1V40.9a1.036,1.036,0,0,0-1.033-1.033ZM25.8,48.134H22.7a1.036,1.036,0,0,0-1.033,1.033v6.2A1.036,1.036,0,0,0,22.7,56.4h6.2a1.036,1.036,0,0,0,1.033-1.033v-6.2A1.036,1.036,0,0,0,28.9,48.134Zm0-18.6h3.1a2.884,2.884,0,0,1,2.914-2.893,1.123,1.123,0,0,1,.186.01,2.82,2.82,0,0,1,1.839.837l4.381-4.381a2.825,2.825,0,0,1-.847-2.025,2.884,2.884,0,0,1,2.893-2.914V13h9.3A1.036,1.036,0,0,1,50.6,14.033V53.911a1.011,1.011,0,0,1-.093.424H42.334v8.174a1.011,1.011,0,0,1-.424.093H2.033A1.036,1.036,0,0,1,1,61.568V14.033A1.036,1.036,0,0,1,2.033,13h9.3v5.167a2.884,2.884,0,0,1,2.893,2.914,2.825,2.825,0,0,1-.847,2.025l4.381,4.381a2.82,2.82,0,0,1,1.839-.837,1.123,1.123,0,0,1,.186-.01A2.884,2.884,0,0,1,22.7,29.534Z" transform="translate(-1 -13)" fill="#e6e9ed"/>
        </g>
        <g id="Grupo_1209487" data-name="Grupo 1209487" transform="translate(35.134 39.268)">
          <path id="Trazado_1050354" data-name="Trazado 1050354" d="M43.267,40.033v6.2a1.036,1.036,0,0,1-1.033,1.033h-6.2A1.036,1.036,0,0,1,35,46.234v-6.2A1.036,1.036,0,0,1,36.033,39h6.2A1.036,1.036,0,0,1,43.267,40.033Z" transform="translate(-35 -39)" fill="#b4dd7f"/>
        </g>
        <g id="Grupo_1209488" data-name="Grupo 1209488" transform="translate(20.667 47.535)">
          <path id="Trazado_1050355" data-name="Trazado 1050355" d="M25.133,47h3.1a1.036,1.036,0,0,1,1.033,1.033v6.2a1.036,1.036,0,0,1-1.033,1.033h-6.2A1.036,1.036,0,0,1,21,54.234v-6.2A1.036,1.036,0,0,1,22.033,47Z" transform="translate(-21 -47)" fill="#ef7385"/>
        </g>
        <g id="Grupo_1209489" data-name="Grupo 1209489" transform="translate(6.2 39.268)">
          <path id="Trazado_1050356" data-name="Trazado 1050356" d="M14.234,47.267h-6.2A1.036,1.036,0,0,1,7,46.234v-6.2A1.036,1.036,0,0,1,8.033,39h6.2a1.036,1.036,0,0,1,1.033,1.033v6.2A1.036,1.036,0,0,1,14.234,47.267Z" transform="translate(-7 -39)" fill="#ef7385"/>
        </g>
        <g id="Grupo_1209490" data-name="Grupo 1209490" transform="translate(10.334)">
          <path id="Trazado_1050357" data-name="Trazado 1050357" d="M19.267,27.051a2.82,2.82,0,0,0-1.839.837l-4.381-4.381a2.825,2.825,0,0,0,.847-2.025A2.884,2.884,0,0,0,11,18.567v-6.2a2.884,2.884,0,0,0,2.893-2.914,2.825,2.825,0,0,0-.847-2.025l4.381-4.381a2.825,2.825,0,0,0,2.025.847A2.884,2.884,0,0,0,22.367,1h6.2a2.884,2.884,0,0,0,2.914,2.893,2.825,2.825,0,0,0,2.025-.847l4.381,4.381a2.9,2.9,0,0,0,2.046,4.939v6.2a2.884,2.884,0,0,0-2.893,2.914,2.825,2.825,0,0,0,.847,2.025l-4.381,4.381a2.82,2.82,0,0,0-1.839-.837,1.123,1.123,0,0,0-.186-.01,2.884,2.884,0,0,0-2.914,2.893h-6.2a2.884,2.884,0,0,0-2.914-2.893,1.123,1.123,0,0,0-.186.01ZM23.4,23.734a2.067,2.067,0,0,0,4.133,0,2.013,2.013,0,0,0-.021-.258,8.269,8.269,0,0,0,.021-16.017V6.167A1.036,1.036,0,0,0,26.5,5.133H24.434A1.036,1.036,0,0,0,23.4,6.167V7.459a8.272,8.272,0,0,0,0,16.017h.021A2.013,2.013,0,0,0,23.4,23.734Z" transform="translate(-11 -1)" fill="#fcd770"/>
        </g>
        <g id="Grupo_1209491" data-name="Grupo 1209491" transform="translate(22.734 20.667)">
          <path id="Trazado_1050358" data-name="Trazado 1050358" d="M27.113,22.808a2.013,2.013,0,0,1,.021.258,2.067,2.067,0,1,1-4.133,0,2.013,2.013,0,0,1,.021-.258,2.062,2.062,0,0,1,4.092,0Z" transform="translate(-23 -21)" fill="#ef7385"/>
        </g>
        <g id="Grupo_1209492" data-name="Grupo 1209492" transform="translate(22.734 4.133)">
          <path id="Trazado_1050359" data-name="Trazado 1050359" d="M27.133,7.325v9.042A1.036,1.036,0,0,1,26.1,17.4H24.033A1.036,1.036,0,0,1,23,16.367V6.033A1.036,1.036,0,0,1,24.033,5H26.1a1.036,1.036,0,0,1,1.033,1.033Z" transform="translate(-23 -5)" fill="#ef7385"/>
        </g>
      </g>
      <g id="Grupo_1209494" data-name="Grupo 1209494" transform="translate(0 0)">
        <path id="Trazado_1050360" data-name="Trazado 1050360" d="M22.253,24.156a3.09,3.09,0,0,0,6.095,0A9.3,9.3,0,0,0,28.4,6.6V6.067A2.069,2.069,0,0,0,26.334,4H24.267A2.069,2.069,0,0,0,22.2,6.067V6.6a9.3,9.3,0,0,0,.053,17.559Zm3.047.512a1.033,1.033,0,1,1,1.033-1.033A1.034,1.034,0,0,1,25.3,24.667Zm-1.033-18.6h2.067V16.4H24.267ZM22.2,8.841V16.4a2.069,2.069,0,0,0,2.067,2.067h2.067A2.069,2.069,0,0,0,28.4,16.4V8.84a7.214,7.214,0,0,1-.436,13.235,3.073,3.073,0,0,0-5.328,0A7.213,7.213,0,0,1,22.2,8.841Z" transform="translate(0.534 0.133)"/>
        <path id="Trazado_1050361" data-name="Trazado 1050361" d="M49.6,12.4H41.334V11.367H40.3a1.859,1.859,0,0,1-1.314-3.173l.731-.731L33.871,1.618l-.731.731a1.81,1.81,0,0,1-2.025.4,1.809,1.809,0,0,1-1.148-1.718V0H21.7V1.033a1.807,1.807,0,0,1-1.148,1.717,1.807,1.807,0,0,1-2.025-.4L17.8,1.617,11.951,7.462l.731.731a1.86,1.86,0,0,1-1.314,3.174H10.334V12.4H2.067A2.069,2.069,0,0,0,0,14.467V62a2.069,2.069,0,0,0,2.067,2.067H41.94a2.053,2.053,0,0,0,1.461-.606L51.062,55.8a2.078,2.078,0,0,0,.606-1.461V14.467A2.069,2.069,0,0,0,49.6,12.4Zm-37.2.9a3.941,3.941,0,0,0,2.38-5.745l3.109-3.11a3.855,3.855,0,0,0,3.455.214,3.859,3.859,0,0,0,2.291-2.594h4.4a3.859,3.859,0,0,0,2.291,2.594,3.855,3.855,0,0,0,3.455-.214l3.109,3.11a3.941,3.941,0,0,0,2.38,5.745v4.4a3.941,3.941,0,0,0-2.38,5.745l-3.109,3.11a3.941,3.941,0,0,0-5.745,2.38h-4.4a3.941,3.941,0,0,0-5.745-2.38l-3.109-3.11A3.941,3.941,0,0,0,12.4,17.7ZM2.067,14.467h8.267v5.167h1.033a1.859,1.859,0,0,1,1.314,3.173l-.731.731L17.8,29.383l.731-.731c.023-.023.051-.034.073-.056v4.471H12.4a2.069,2.069,0,0,0-2.067,2.067v4.133H8.267A2.069,2.069,0,0,0,6.2,41.334v6.2A2.069,2.069,0,0,0,8.267,49.6h6.2a2.069,2.069,0,0,0,2.067-2.067v-6.2a2.069,2.069,0,0,0-2.067-2.067H12.4V35.134h6.2a2.069,2.069,0,0,0,2.067-2.067v-4.75a1.794,1.794,0,0,1,1.033,1.65V31h3.1V47.535H22.734A2.069,2.069,0,0,0,20.667,49.6v6.2a2.069,2.069,0,0,0,2.067,2.067h6.2A2.069,2.069,0,0,0,31,55.8V49.6a2.069,2.069,0,0,0-2.067-2.067H26.867V31h3.1V29.967A1.8,1.8,0,0,1,31,28.317v4.75a2.069,2.069,0,0,0,2.067,2.067h6.2v4.133H37.2a2.069,2.069,0,0,0-2.067,2.067v6.2A2.069,2.069,0,0,0,37.2,49.6h6.2a2.069,2.069,0,0,0,2.067-2.067V41.762L47.232,40l-1.461-1.461L44.628,39.68a2.051,2.051,0,0,0-1.227-.412H41.334V35.134a2.069,2.069,0,0,0-2.067-2.067h-6.2V28.6c.024.022.051.033.073.056l.731.731,5.846-5.845-.731-.731A1.86,1.86,0,0,1,40.3,19.634h1.033V14.467H49.6V53.735H41.334V62H2.067Zm12.4,26.867v6.2h-6.2v-6.2ZM28.934,49.6v6.2h-6.2V49.6ZM40.3,46.929l3.1-3.1v3.707H37.2v-6.2h5.772L40.3,44.007l-1.336-1.336L37.5,44.132ZM48.14,55.8,43.4,60.54V55.8Z" transform="translate(0 0)"/>
        <path id="Trazado_1050362" data-name="Trazado 1050362" d="M23.754,53.888l1.336-1.336,1.336,1.336,1.461-1.461L26.551,51.09l1.336-1.336-1.461-1.461L25.09,49.629l-1.336-1.336-1.461,1.461,1.336,1.336-1.336,1.336Z" transform="translate(0.744 1.611)"/>
        <path id="Trazado_1050363" data-name="Trazado 1050363" d="M9.754,45.888l1.336-1.336,1.336,1.336,1.461-1.461L12.551,43.09l1.336-1.336-1.461-1.461L11.09,41.629,9.754,40.293,8.293,41.754,9.629,43.09,8.293,44.426Z" transform="translate(0.277 1.344)"/>
        <path id="Trazado_1050364" data-name="Trazado 1050364" d="M6,54H8.067v2.067H6Z" transform="translate(0.2 1.801)"/>
        <path id="Trazado_1050365" data-name="Trazado 1050365" d="M12,54h2.067v2.067H12Z" transform="translate(0.4 1.801)"/>
      </g>
    </g>
  </g>
</svg>
