<svg xmlns="http://www.w3.org/2000/svg" xmlns:xlink="http://www.w3.org/1999/xlink" width="113" height="113" viewBox="0 0 113 113">
  <defs>
    <filter id="Trazado_982547" x="0" y="0" width="113" height="113" filterUnits="userSpaceOnUse">
      <feOffset dy="3" input="SourceAlpha"/>
      <feGaussianBlur stdDeviation="3" result="blur"/>
      <feFlood flood-opacity="0.161"/>
      <feComposite operator="in" in2="blur"/>
      <feComposite in="SourceGraphic"/>
    </filter>
  </defs>
  <g id="Grupo_1209299" data-name="Grupo 1209299" transform="translate(-1911.49 -893.608)">
    <g id="Grupo_1209033" data-name="Grupo 1209033" transform="translate(1118 -2449.392)">
      <g id="Grupo_1208891" data-name="Grupo 1208891" transform="translate(0 -2284.425)">
        <g id="Grupo_1177675" data-name="Grupo 1177675" transform="translate(-4493 3707.152)">
          <g id="Grupo_1176928" data-name="Grupo 1176928" transform="translate(5295.49 1926.273)">
            <g id="Grupo_1172322" data-name="Grupo 1172322" transform="translate(0 0)">
              <g id="Grupo_1164700" data-name="Grupo 1164700">
                <g id="Grupo_1160931" data-name="Grupo 1160931">
                  <g id="Grupo_1160749" data-name="Grupo 1160749">
                    <g id="Grupo_1158891" data-name="Grupo 1158891">
                      <g id="Grupo_1157406" data-name="Grupo 1157406">
                        <g id="Grupo_1155793" data-name="Grupo 1155793">
                          <g id="Grupo_1154704" data-name="Grupo 1154704">
                            <g id="Grupo_1150790" data-name="Grupo 1150790">
                              <g id="Grupo_1154214" data-name="Grupo 1154214">
                                <g id="Grupo_1152583" data-name="Grupo 1152583">
                                  <g id="Grupo_1146973" data-name="Grupo 1146973">
                                    <g id="Grupo_1146954" data-name="Grupo 1146954">
                                      <g transform="matrix(1, 0, 0, 1, -9, -6)" filter="url(#Trazado_982547)">
                                        <g id="Trazado_982547-2" data-name="Trazado 982547" transform="translate(9 6)" fill="#fcebe9">
                                          <path d="M 47.5000114440918 93.49987030029297 C 41.28938293457031 93.49987030029297 35.26534652709961 92.28384399414062 29.5951976776123 89.88558959960938 C 24.11773109436035 87.56881713867188 19.19814491271973 84.25183868408203 14.97310447692871 80.02680206298828 C 10.74805164337158 75.80176544189453 7.43107795715332 70.88218688964844 5.114304542541504 65.40472412109375 C 2.716038227081299 59.73458862304688 1.500011444091797 53.71054840087891 1.500011444091797 47.49993515014648 C 1.500011444091797 41.28932189941406 2.716038227081299 35.26528167724609 5.114304542541504 29.59514808654785 C 7.43107795715332 24.1176815032959 10.74805164337158 19.1981086730957 14.97310447692871 14.97306823730469 C 19.19814491271973 10.74802875518799 24.11773109436035 7.431055068969727 29.5951976776123 5.11428165435791 C 35.26534652709961 2.716028451919556 41.28938293457031 1.500001788139343 47.5000114440918 1.500001788139343 C 53.71063995361328 1.500001788139343 59.73467636108398 2.716028451919556 65.40482330322266 5.11428165435791 C 70.88229370117188 7.431055068969727 75.8018798828125 10.74802875518799 80.02691650390625 14.97306823730469 C 84.25196838378906 19.1981086730957 87.56894683837891 24.1176815032959 89.88571929931641 29.59514808654785 C 92.28398132324219 35.26528167724609 93.50001525878906 41.28932189941406 93.50001525878906 47.49993515014648 C 93.50001525878906 53.71054840087891 92.28398132324219 59.73458862304688 89.88571929931641 65.40472412109375 C 87.56894683837891 70.88218688964844 84.25196838378906 75.80176544189453 80.02691650390625 80.02680206298828 C 75.8018798828125 84.25183868408203 70.88229370117188 87.56881713867188 65.40482330322266 89.88558959960938 C 59.73467636108398 92.28384399414062 53.71063995361328 93.49987030029297 47.5000114440918 93.49987030029297 Z" stroke="none"/>
                                          <path d="M 47.5000114440918 3 C 41.49122619628906 3 35.66378021240234 4.1761474609375 30.17951965332031 6.495796203613281 C 24.880859375 8.7369384765625 20.12153625488281 11.94596862792969 16.03376770019531 16.03373718261719 C 11.94598388671875 20.12149047851562 8.736968994140625 24.88081359863281 6.495811462402344 30.17947387695312 C 4.176162719726562 35.66371917724609 3.000007629394531 41.49116516113281 3.000007629394531 47.49993515014648 C 3.000007629394531 53.50870513916016 4.176162719726562 59.33615112304688 6.495811462402344 64.82039642333984 C 8.736968994140625 70.11905670166016 11.94598388671875 74.87837982177734 16.03376770019531 78.96613311767578 C 20.12153625488281 83.05390167236328 24.880859375 86.26293182373047 30.17951965332031 88.50407409667969 C 35.66378021240234 90.82372283935547 41.49122619628906 91.99987030029297 47.5000114440918 91.99987030029297 C 53.50879669189453 91.99987030029297 59.33624267578125 90.82372283935547 64.82050323486328 88.50407409667969 C 70.11916351318359 86.26293182373047 74.87848663330078 83.05390167236328 78.96625518798828 78.96613311767578 C 83.05403900146484 74.87837982177734 86.2630615234375 70.11905670166016 88.50421142578125 64.82039642333984 C 90.82386016845703 59.33615112304688 92.00001525878906 53.50870513916016 92.00001525878906 47.49993515014648 C 92.00001525878906 41.49116516113281 90.82386016845703 35.66371917724609 88.50421142578125 30.17947387695312 C 86.2630615234375 24.88081359863281 83.05403900146484 20.12149047851562 78.96625518798828 16.03373718261719 C 74.87848663330078 11.94596862792969 70.11916351318359 8.7369384765625 64.82050323486328 6.495796203613281 C 59.33624267578125 4.1761474609375 53.50879669189453 3 47.5000114440918 3 M 47.5000114440918 0 C 73.73353576660156 0 95.00001525878906 21.26644134521484 95.00001525878906 47.49993515014648 C 95.00001525878906 73.73342895507812 73.73353576660156 94.99987030029297 47.5000114440918 94.99987030029297 C 21.26648712158203 94.99987030029297 7.62939453125e-06 73.73342895507812 7.62939453125e-06 47.49993515014648 C 7.62939453125e-06 21.26644134521484 21.26648712158203 0 47.5000114440918 0 Z" stroke="none" fill="#e44b36"/>
                                        </g>
                                      </g>
                                    </g>
                                  </g>
                                </g>
                              </g>
                            </g>
                          </g>
                        </g>
                      </g>
                    </g>
                  </g>
                </g>
              </g>
            </g>
          </g>
        </g>
      </g>
    </g>
    <g id="checklist_2563777" transform="translate(1939.242 919.242)">
      <path id="Trazado_1049550" data-name="Trazado 1049550" d="M40.863,60.974,39,58.179,55.768,47l4.658,6.521v7.453Z" transform="translate(-2.6 -3.147)" fill="#a8b0bc"/>
      <path id="Trazado_1049551" data-name="Trazado 1049551" d="M40.863,61.178H51.548a12.859,12.859,0,0,0,.05-11.193L39,58.383Z" transform="translate(-2.6 -3.352)" fill="#c1c8d1"/>
      <path id="Trazado_1049552" data-name="Trazado 1049552" d="M57.725,49.739,40.863,60.974,39,58.179,55.768,47Z" transform="translate(-2.6 -3.147)" fill="#758190"/>
      <path id="Trazado_1049553" data-name="Trazado 1049553" d="M42.99,3.863A1.863,1.863,0,0,0,41.126,2H3.863A1.863,1.863,0,0,0,2,3.863V46.716a1.863,1.863,0,0,0,1.863,1.863H41.126a1.863,1.863,0,0,0,1.863-1.863Z" transform="translate(-0.068 -0.068)" fill="#758190"/>
      <path id="Trazado_1049554" data-name="Trazado 1049554" d="M40.4,5.932A.932.932,0,0,0,39.468,5H5.932A.932.932,0,0,0,5,5.932V45.058a.932.932,0,0,0,.932.932H39.468a.932.932,0,0,0,.932-.932Z" transform="translate(-0.274 -0.274)" fill="#ebf7fe"/>
      <g id="Grupo_1209285" data-name="Grupo 1209285" transform="translate(7.521 25.22)">
        <path id="Trazado_1049555" data-name="Trazado 1049555" d="M14.52,34.452H8.932A.931.931,0,0,1,8,33.52V27.931A.931.931,0,0,1,8.932,27H14.52a.931.931,0,0,1,.932.932V33.52a.931.931,0,0,1-.932.932ZM9.863,32.588h3.725V28.862H9.863Z" transform="translate(-8 -26.999)" fill="#758190"/>
      </g>
      <g id="Grupo_1209286" data-name="Grupo 1209286" transform="translate(7.521 35.468)">
        <path id="Trazado_1049556" data-name="Trazado 1049556" d="M14.52,45.452H8.932A.931.931,0,0,1,8,44.52V38.931A.931.931,0,0,1,8.932,38H14.52a.931.931,0,0,1,.932.932V44.52a.931.931,0,0,1-.932.932ZM9.863,43.588h3.725V39.862H9.863Z" transform="translate(-8 -37.999)" fill="#758190"/>
      </g>
      <g id="Grupo_1209287" data-name="Grupo 1209287" transform="translate(9.483 23.582)">
        <path id="Trazado_1049557" data-name="Trazado 1049557" d="M11.87,32.469a.946.946,0,0,1-.184-.019.93.93,0,0,1-.648-.5l-.932-1.863,1.666-.833.4.8,5.615-4.813L19,26.655l-6.521,5.589a.937.937,0,0,1-.606.225Z" transform="translate(-10.106 -25.241)" fill="#96cc7f"/>
      </g>
      <g id="Grupo_1209288" data-name="Grupo 1209288" transform="translate(9.483 33.83)">
        <path id="Trazado_1049558" data-name="Trazado 1049558" d="M11.87,43.469a.946.946,0,0,1-.184-.019.93.93,0,0,1-.648-.5l-.932-1.863,1.666-.833.4.8,5.615-4.813L19,37.655l-6.521,5.589a.937.937,0,0,1-.606.225Z" transform="translate(-10.106 -36.241)" fill="#96cc7f"/>
      </g>
      <g id="Grupo_1209289" data-name="Grupo 1209289" transform="translate(18.7 27.084)">
        <path id="Trazado_1049559" data-name="Trazado 1049559" d="M20,29h9.315v1.863H20Z" transform="translate(-20 -29)" fill="#c1c8d1"/>
      </g>
      <g id="Grupo_1209290" data-name="Grupo 1209290" transform="translate(18.7 30.811)">
        <path id="Trazado_1049560" data-name="Trazado 1049560" d="M20,33h5.589v1.863H20Z" transform="translate(-20 -33)" fill="#c1c8d1"/>
      </g>
      <g id="Grupo_1209291" data-name="Grupo 1209291" transform="translate(26.153 30.811)">
        <path id="Trazado_1049561" data-name="Trazado 1049561" d="M28,33h1.862v1.863H28Z" transform="translate(-28 -33)" fill="#c1c8d1"/>
      </g>
      <g id="Grupo_1209292" data-name="Grupo 1209292" transform="translate(18.7 37.332)">
        <path id="Trazado_1049562" data-name="Trazado 1049562" d="M20,40h9.315v1.863H20Z" transform="translate(-20 -40)" fill="#c1c8d1"/>
      </g>
      <g id="Grupo_1209293" data-name="Grupo 1209293" transform="translate(18.7 41.058)">
        <path id="Trazado_1049563" data-name="Trazado 1049563" d="M20,44h5.589v1.863H20Z" transform="translate(-20 -44)" fill="#c1c8d1"/>
      </g>
      <g id="Grupo_1209294" data-name="Grupo 1209294" transform="translate(26.153 41.058)">
        <path id="Trazado_1049564" data-name="Trazado 1049564" d="M28,44h1.862v1.863H28Z" transform="translate(-28 -44)" fill="#c1c8d1"/>
      </g>
      <path id="Trazado_1049565" data-name="Trazado 1049565" d="M8,9.863v.371a15.572,15.572,0,0,0,6.521,12.671,15.572,15.572,0,0,0,6.521-12.671V9.863L14.521,8Z" transform="translate(-0.479 -0.479)" fill="#f2c351"/>
      <g id="Grupo_1209295" data-name="Grupo 1209295" transform="translate(21.593 11.247)">
        <path id="Trazado_1049566" data-name="Trazado 1049566" d="M38.842,17.589H35.758A1.96,1.96,0,0,1,34,16.5a.1.1,0,0,0-.078-.057.107.107,0,0,0-.093.03l-.315.315a2.757,2.757,0,0,1-1.936.8,2.72,2.72,0,0,1-2.447-1.513l-.74-1.478a1.317,1.317,0,0,0-1.186-.734h0a1.322,1.322,0,0,0-1.19.734l-1.239,2.477-1.666-.834,1.239-2.476A3.173,3.173,0,0,1,27.2,12h0a3.171,3.171,0,0,1,2.853,1.764l.74,1.478a.9.9,0,0,0,1.4.227l.315-.315a1.97,1.97,0,0,1,3.156.511.108.108,0,0,0,.1.059h3.084v1.863Z" transform="translate(-23.105 -12)" fill="#c1c8d1"/>
      </g>
      <g id="Grupo_1209296" data-name="Grupo 1209296" transform="translate(21.494 17.768)">
        <path id="Trazado_1049567" data-name="Trazado 1049567" d="M23,19h12.11v1.863H23Z" transform="translate(-22.999 -19)" fill="#a8b0bc"/>
      </g>
      <g id="Grupo_1209297" data-name="Grupo 1209297" transform="translate(35.468 17.768)">
        <path id="Trazado_1049568" data-name="Trazado 1049568" d="M38,19h1.862v1.863H38Z" transform="translate(-37.999 -19)" fill="#a8b0bc"/>
      </g>
      <ellipse id="Elipse_12564" data-name="Elipse 12564" cx="3" cy="2.5" rx="3" ry="2.5" transform="translate(31.758 37.758)" fill="#c66b60"/>
      <path id="Trazado_1049569" data-name="Trazado 1049569" d="M54.173,46.193,52.426,42.7V30.589A5.589,5.589,0,0,0,46.837,25H39.384a2.795,2.795,0,1,0,0,5.589h5.589v17.7a1.863,1.863,0,0,1-1.863,1.863H31l3.726,3.726h3.726l1.048,2.1" transform="translate(-2.053 -1.642)" fill="#fadfb2"/>
      <path id="Trazado_1049570" data-name="Trazado 1049570" d="M8,9.863v.371A15.566,15.566,0,0,0,11.534,20.1,12.274,12.274,0,0,0,17.329,9.68c0-.3-.023-.6-.045-.89L14.521,8Z" transform="translate(-0.479 -0.479)" fill="#f7d881"/>
      <path id="Trazado_1049571" data-name="Trazado 1049571" d="M34,42.795a2.779,2.779,0,0,0,.893,2.038,5.041,5.041,0,0,0,2.671-4.449c0-.09-.008-.178-.013-.267A2.758,2.758,0,0,0,34,42.795Z" transform="translate(-2.258 -2.668)" fill="#e47c6e"/>
      <path id="Trazado_1049572" data-name="Trazado 1049572" d="M40.863,61.178l11.791-7.857A12.889,12.889,0,0,0,51.6,49.984L39,58.383Z" transform="translate(-2.6 -3.351)" fill="#8892a0"/>
      <g id="Grupo_1209298" data-name="Grupo 1209298" transform="translate(1 1)">
        <path id="Trazado_1049573" data-name="Trazado 1049573" d="M15.264,27.277a.914.914,0,0,0-.743-.4H8.932A.931.931,0,0,0,8,27.811V33.4a.931.931,0,0,0,.932.932H14.52a.931.931,0,0,0,.932-.932v-3.83l3.4-2.916L17.64,25.241Zm-5.4,1.465h3.692l-1.529,1.311-.4-.8-1.666.833.932,1.863a.934.934,0,0,0,.648.5.981.981,0,0,0,.18.019H9.863Zm3.725,3.725H11.729a.935.935,0,0,0,.6-.225l1.257-1.077v1.3Z" transform="translate(-1.479 -2.659)"/>
        <path id="Trazado_1049574" data-name="Trazado 1049574" d="M17.641,36.241l-2.376,2.037a.916.916,0,0,0-.744-.4H8.932A.931.931,0,0,0,8,38.811V44.4a.931.931,0,0,0,.932.932H14.52a.931.931,0,0,0,.932-.932v-3.83l3.4-2.916Zm-7.778,3.5h3.692l-1.529,1.311-.4-.8-1.666.833.932,1.863a.934.934,0,0,0,.648.5.981.981,0,0,0,.18.019H9.863Zm3.725,3.726H11.729a.935.935,0,0,0,.6-.225l1.257-1.077v1.3Z" transform="translate(-1.479 -3.411)"/>
        <path id="Trazado_1049575" data-name="Trazado 1049575" d="M20,29h9.315v1.863H20Z" transform="translate(-2.3 -2.916)"/>
        <path id="Trazado_1049576" data-name="Trazado 1049576" d="M20,33h5.589v1.863H20Z" transform="translate(-2.3 -3.189)"/>
        <path id="Trazado_1049577" data-name="Trazado 1049577" d="M28,33h1.862v1.863H28Z" transform="translate(-2.847 -3.189)"/>
        <path id="Trazado_1049578" data-name="Trazado 1049578" d="M20,40h9.315v1.863H20Z" transform="translate(-2.3 -3.668)"/>
        <path id="Trazado_1049579" data-name="Trazado 1049579" d="M20,44h5.589v1.863H20Z" transform="translate(-2.3 -3.942)"/>
        <path id="Trazado_1049580" data-name="Trazado 1049580" d="M28,44h1.862v1.863H28Z" transform="translate(-2.847 -3.942)"/>
        <path id="Trazado_1049581" data-name="Trazado 1049581" d="M13.91,23.594a.929.929,0,0,0,1.083,0,16.535,16.535,0,0,0,6.91-13.43v-.37a.932.932,0,0,0-.675-.9L14.708,7.035a.948.948,0,0,0-.512,0L7.674,8.9a.931.931,0,0,0-.674.9v.371A16.532,16.532,0,0,0,13.91,23.594ZM14.453,8.9l5.585,1.6a14.669,14.669,0,0,1-5.586,11.176A14.673,14.673,0,0,1,8.867,10.5Z" transform="translate(-1.411 -1.411)"/>
        <path id="Trazado_1049582" data-name="Trazado 1049582" d="M58.584,49.832l-4.658-6.521a.934.934,0,0,0-1.275-.234l-.17.114L51.3,40.837V28.947a6.528,6.528,0,0,0-6.521-6.521h-.932V3.795A2.8,2.8,0,0,0,41.056,1H3.795A2.8,2.8,0,0,0,1,3.795V46.647a2.8,2.8,0,0,0,2.795,2.795H28.56L32.014,52.9a.93.93,0,0,0,.66.272h3.151l.423.845-.364.243a.933.933,0,0,0-.258,1.292l1.863,2.795a.933.933,0,0,0,.776.415H57.826a.931.931,0,0,0,.932-.932V50.374a.933.933,0,0,0-.174-.542ZM28.946,47.578H3.795a.932.932,0,0,1-.932-.932V3.795a.932.932,0,0,1,.932-.932H41.057a.932.932,0,0,1,.932.932V22.426h-.932V5.658a1.864,1.864,0,0,0-1.863-1.863H5.658A1.864,1.864,0,0,0,3.795,5.658V44.784a1.864,1.864,0,0,0,1.863,1.863H39.194a1.864,1.864,0,0,0,1.863-1.863V29.879h.932V46.647a.932.932,0,0,1-.932.932Zm8.384-17.7h1.863v14.9H5.658V5.658H39.194V22.426H37.33a3.726,3.726,0,0,0,0,7.453Zm-.1,21.941A.931.931,0,0,0,36.4,51.3H33.059L31.2,49.441h9.861a2.8,2.8,0,0,0,2.795-2.795v-17.7a.929.929,0,0,0-.932-.932H37.33a1.863,1.863,0,0,1,0-3.726h7.454a4.663,4.663,0,0,1,4.658,4.658V41.058a.935.935,0,0,0,.1.416l1.379,2.757-13.111,8.74Zm15.7-6.692.869,1.218L38.521,56.533l-.829-1.244Zm3.959,11.766H41.34l13.547-9.032,2.007,2.81Z" transform="translate(-1 -1)"/>
        <path id="Trazado_1049583" data-name="Trazado 1049583" d="M38.843,15.725H35.759a.108.108,0,0,1-.1-.059,1.97,1.97,0,0,0-3.156-.511l-.315.315a.9.9,0,0,1-1.4-.227l-.74-1.478A3.169,3.169,0,0,0,27.2,12h0a3.173,3.173,0,0,0-2.853,1.764l-1.238,2.476,1.666.833L26.01,14.6a1.322,1.322,0,0,1,1.19-.734h0a1.319,1.319,0,0,1,1.187.735l.74,1.478a2.722,2.722,0,0,0,2.448,1.513,2.756,2.756,0,0,0,1.935-.8l.315-.315a.1.1,0,0,1,.093-.03A.1.1,0,0,1,34,16.5a1.959,1.959,0,0,0,1.763,1.089h3.084V15.725Z" transform="translate(-2.512 -1.753)"/>
        <path id="Trazado_1049584" data-name="Trazado 1049584" d="M23,19H35.11v1.863H23Z" transform="translate(-2.505 -2.232)"/>
        <path id="Trazado_1049585" data-name="Trazado 1049585" d="M38,19h1.862v1.863H38Z" transform="translate(-3.532 -2.232)"/>
        <path id="Trazado_1049586" data-name="Trazado 1049586" d="M33,42.726A3.726,3.726,0,1,0,36.726,39,3.73,3.73,0,0,0,33,42.726Zm3.726-1.863a1.863,1.863,0,1,1-1.863,1.863A1.864,1.864,0,0,1,36.726,40.863Z" transform="translate(-3.189 -3.6)"/>
      </g>
    </g>
  </g>
</svg>
