<svg xmlns="http://www.w3.org/2000/svg" xmlns:xlink="http://www.w3.org/1999/xlink" width="93" height="93" viewBox="0 0 93 93">
  <defs>
    <filter id="Trazado_982547" x="0" y="0" width="93" height="93" filterUnits="userSpaceOnUse">
      <feOffset dy="3" input="SourceAlpha"/>
      <feGaussianBlur stdDeviation="3" result="blur"/>
      <feFlood flood-opacity="0.161"/>
      <feComposite operator="in" in2="blur"/>
      <feComposite in="SourceGraphic"/>
    </filter>
  </defs>
  <g id="Grupo_1209345" data-name="Grupo 1209345" transform="translate(-195 -1673.732)">
    <g id="Grupo_1209042" data-name="Grupo 1209042" transform="translate(-598.49 -1669.268)">
      <g id="Grupo_1208891" data-name="Grupo 1208891" transform="translate(802.49 3349)">
        <g id="Grupo_1177675" data-name="Grupo 1177675" transform="translate(0 0)">
          <g id="Grupo_1176928" data-name="Grupo 1176928" transform="translate(0 0)">
            <g id="Grupo_1172322" data-name="Grupo 1172322" transform="translate(0 0)">
              <g id="Grupo_1164700" data-name="Grupo 1164700">
                <g id="Grupo_1160931" data-name="Grupo 1160931">
                  <g id="Grupo_1160749" data-name="Grupo 1160749">
                    <g id="Grupo_1158891" data-name="Grupo 1158891">
                      <g id="Grupo_1157406" data-name="Grupo 1157406">
                        <g id="Grupo_1155793" data-name="Grupo 1155793">
                          <g id="Grupo_1154704" data-name="Grupo 1154704">
                            <g id="Grupo_1150790" data-name="Grupo 1150790">
                              <g id="Grupo_1154214" data-name="Grupo 1154214">
                                <g id="Grupo_1152583" data-name="Grupo 1152583">
                                  <g id="Grupo_1146973" data-name="Grupo 1146973">
                                    <g id="Grupo_1146954" data-name="Grupo 1146954">
                                      <g transform="matrix(1, 0, 0, 1, -9, -6)" filter="url(#Trazado_982547)">
                                        <g id="Trazado_982547-2" data-name="Trazado 982547" transform="translate(9 6)" fill="#fef7ea">
                                          <path d="M 37.49999237060547 73.49986267089844 C 32.63936996459961 73.49986267089844 27.92492485046387 72.54824066162109 23.48763656616211 70.67143249511719 C 19.20095825195312 68.85832214355469 15.35081481933594 66.26239013671875 12.04415893554688 62.95573043823242 C 8.737492561340332 59.64907455444336 6.14155912399292 55.79894256591797 4.328447818756104 51.51226425170898 C 2.45162558555603 47.07498550415039 1.500003457069397 42.36055374145508 1.500003457069397 37.49993133544922 C 1.500003457069397 32.63930892944336 2.45162558555603 27.92487525939941 4.328447818756104 23.48759841918945 C 6.14155912399292 19.20092010498047 8.737492561340332 15.35078716278076 12.04415893554688 12.0441312789917 C 15.35081481933594 8.737475395202637 19.20095825195312 6.141542434692383 23.48763656616211 4.328431129455566 C 27.92492485046387 2.45162034034729 32.63936996459961 1.499997973442078 37.49999237060547 1.499997973442078 C 42.36061477661133 1.499997973442078 47.07505798339844 2.45162034034729 51.51234817504883 4.328431129455566 C 55.79902648925781 6.141542434692383 59.649169921875 8.737475395202637 62.95582580566406 12.0441312789917 C 66.26248931884766 15.35078716278076 68.85842895507812 19.20092010498047 70.67153930664062 23.48759841918945 C 72.54836273193359 27.92487525939941 73.49998474121094 32.63930892944336 73.49998474121094 37.49993133544922 C 73.49998474121094 42.36055374145508 72.54836273193359 47.07498550415039 70.67153930664062 51.51226425170898 C 68.85842895507812 55.79894256591797 66.26248931884766 59.64907455444336 62.95582580566406 62.95573043823242 C 59.649169921875 66.26239013671875 55.79902648925781 68.85832214355469 51.51234817504883 70.67143249511719 C 47.07505798339844 72.54824066162109 42.36061477661133 73.49986267089844 37.49999237060547 73.49986267089844 Z" stroke="none"/>
                                          <path d="M 37.49999237060547 2.999992370605469 C 32.84120559692383 2.999992370605469 28.32336807250977 3.911758422851562 24.07196807861328 5.709945678710938 C 19.96409225463867 7.447418212890625 16.27420425415039 9.935409545898438 13.10481643676758 13.10479354858398 C 9.935432434082031 16.2741813659668 7.447441101074219 19.96405792236328 5.709953308105469 24.07191848754883 C 3.911766052246094 28.32331848144531 3.000007629394531 32.84114456176758 3.000007629394531 37.49993133544922 C 3.000007629394531 42.15870666503906 3.911766052246094 46.67654418945312 5.709953308105469 50.92793273925781 C 7.447441101074219 55.03580474853516 9.935432434082031 58.72568130493164 13.10481643676758 61.89505767822266 C 16.27420425415039 65.06444549560547 19.96409225463867 67.55242919921875 24.07196807861328 69.28990936279297 C 28.32336807250977 71.08809661865234 32.84120559692383 71.99985504150391 37.49999237060547 71.99985504150391 C 42.15877914428711 71.99985504150391 46.67661666870117 71.08809661865234 50.92801666259766 69.28990936279297 C 55.03589248657227 67.55242919921875 58.72578048706055 65.06444549560547 61.89516830444336 61.89505767822266 C 65.06455230712891 58.72568130493164 67.55254364013672 55.03580474853516 69.29003143310547 50.92793273925781 C 71.08821868896484 46.67654418945312 71.99997711181641 42.15870666503906 71.99997711181641 37.49993133544922 C 71.99997711181641 32.84114456176758 71.08821868896484 28.32331848144531 69.29003143310547 24.07191848754883 C 67.55254364013672 19.96405792236328 65.06455230712891 16.2741813659668 61.89516830444336 13.10479354858398 C 58.72578048706055 9.935409545898438 55.03589248657227 7.447418212890625 50.92801666259766 5.709945678710938 C 46.67661666870117 3.911758422851562 42.15877914428711 2.999992370605469 37.49999237060547 2.999992370605469 M 37.49999237060547 -7.62939453125e-06 C 58.21065521240234 -7.62939453125e-06 74.99997711181641 16.7892951965332 74.99997711181641 37.49993133544922 C 74.99997711181641 58.2105712890625 58.21065521240234 74.99985504150391 37.49999237060547 74.99985504150391 C 16.78932952880859 74.99985504150391 7.62939453125e-06 58.2105712890625 7.62939453125e-06 37.49993133544922 C 7.62939453125e-06 16.7892951965332 16.78932952880859 -7.62939453125e-06 37.49999237060547 -7.62939453125e-06 Z" stroke="none" fill="#896521"/>
                                        </g>
                                      </g>
                                    </g>
                                  </g>
                                </g>
                              </g>
                            </g>
                          </g>
                        </g>
                      </g>
                    </g>
                  </g>
                </g>
              </g>
            </g>
          </g>
        </g>
      </g>
    </g>
    <g id="control_8655548" transform="translate(208.476 1683.698)">
      <g id="Grupo_1209344" data-name="Grupo 1209344" transform="translate(10.942 8.787)">
        <g id="Grupo_1209341" data-name="Grupo 1209341" transform="translate(0 0)">
          <path id="Trazado_1049961" data-name="Trazado 1049961" d="M52.887,56.986A2.122,2.122,0,0,1,55,59.1V98.071a2.122,2.122,0,0,1-2.118,2.118H20.274a2.122,2.122,0,0,1-2.118-2.118V59.1a2.122,2.122,0,0,1,2.118-2.118Z" transform="translate(-18.156 -52.953)" fill="#837683" fill-rule="evenodd"/>
          <path id="Trazado_1049962" data-name="Trazado 1049962" d="M343.314,100.188h2.733a2.122,2.122,0,0,0,2.118-2.118V59.1a2.122,2.122,0,0,0-2.118-2.118h-2.733Z" transform="translate(-311.316 -52.953)" fill="#685e68" fill-rule="evenodd"/>
          <path id="Trazado_1049963" data-name="Trazado 1049963" d="M78.1,86.924H49.046a.954.954,0,0,0-.952.952v35.406a.954.954,0,0,0,.952.952H78.1a.954.954,0,0,0,.952-.952V87.876a.954.954,0,0,0-.952-.952Z" transform="translate(-45.148 -79.945)" fill="#eceff1" fill-rule="evenodd"/>
          <path id="Trazado_1049964" data-name="Trazado 1049964" d="M343.314,124.234h.952q.045,0,.089,0a.954.954,0,0,0,.863-.948V87.876a.954.954,0,0,0-.863-.948q-.044,0-.089,0h-.952Z" transform="translate(-311.316 -79.945)" fill="#d1d1d6" fill-rule="evenodd"/>
          <path id="Trazado_1049965" data-name="Trazado 1049965" d="M123.481,18.756H126.5a.935.935,0,0,0,.875-.576,3.6,3.6,0,0,1,6.616,0,.935.935,0,0,0,.875.576h3.019a.954.954,0,0,1,.952.952v3.6a.954.954,0,0,1-.952.952h-14.4a.954.954,0,0,1-.952-.952v-3.6A.954.954,0,0,1,123.481,18.756Z" transform="translate(-112.258 -16.003)" fill="#e3a76f" fill-rule="evenodd"/>
          <path id="Trazado_1049966" data-name="Trazado 1049966" d="M136.931,48.531h-14.4a.954.954,0,0,0,.952.952h14.4a.954.954,0,0,0,.952-.952v-3.6a.954.954,0,0,0-.952-.952v3.6a.954.954,0,0,1-.952.952Z" transform="translate(-112.258 -41.224)" fill="#c48958" fill-rule="evenodd"/>
        </g>
        <g id="Grupo_1209342" data-name="Grupo 1209342" transform="translate(7.986 10.428)">
          <path id="Trazado_1049967" data-name="Trazado 1049967" d="M101.041,134.492a8.91,8.91,0,0,0,1.081,2.608l-.753,1.7,2,2,1.694-.753a8.91,8.91,0,0,0,2.609,1.082l.666,1.729h2.825l.666-1.73a8.91,8.91,0,0,0,2.608-1.081l1.7.753,2-2-.753-1.694a8.909,8.909,0,0,0,1.082-2.609l1.729-.666V131l-1.73-.666a8.908,8.908,0,0,0-1.082-2.609l.753-1.695-2-2-1.695.753a8.909,8.909,0,0,0-2.609-1.082l-.666-1.729h-2.825l-.666,1.73a8.91,8.91,0,0,0-2.609,1.082l-1.695-.753-2,2,.753,1.7a8.911,8.911,0,0,0-1.081,2.609l-1.73.666v2.825Z" transform="translate(-99.311 -121.976)" fill="#ffe177" fill-rule="evenodd"/>
          <path id="Trazado_1049968" data-name="Trazado 1049968" d="M150.129,140.516l.624.277,2-2L152,137.1a8.909,8.909,0,0,0,1.082-2.609l1.729-.666V131l-1.73-.666A8.908,8.908,0,0,0,152,127.726l.753-1.695-2-2-.624.277,1.721,1.721-.753,1.695a8.908,8.908,0,0,1,1.082,2.609l1.73.666v2.825l-1.729.666A8.909,8.909,0,0,1,151.1,137.1l.753,1.694Zm-5.247,2.336h.9l.666-1.73a8.91,8.91,0,0,0,2.609-1.081l-.511-.227a11.941,11.941,0,0,1-3,1.308Zm4.176-18.065a8.91,8.91,0,0,0-2.609-1.082l-.666-1.729h-.9l.666,1.729a11.941,11.941,0,0,1,3,1.309Zm-9.375,0-1.695-.753-.277.277,1.582.7Q139.486,124.895,139.684,124.786Zm-1.972,15.73.277.277,1.694-.753q-.2-.108-.39-.227Z" transform="translate(-133.933 -121.975)" fill="#ffd064" fill-rule="evenodd"/>
          <path id="Trazado_1049969" data-name="Trazado 1049969" d="M154.626,182.286a4.995,4.995,0,1,1,4.995,4.995A4.994,4.994,0,0,1,154.626,182.286Z" transform="translate(-149.183 -171.847)" fill="#eceff1" fill-rule="evenodd"/>
          <path id="Trazado_1049970" data-name="Trazado 1049970" d="M154.626,182.286a4.994,4.994,0,0,1,4.995-4.995c.118,0,.234,0,.35.012a4.995,4.995,0,0,0,0,9.965c-.116.008-.232.012-.35.012A4.994,4.994,0,0,1,154.626,182.286Z" transform="translate(-149.183 -171.847)" fill="#d1d1d6" fill-rule="evenodd"/>
        </g>
        <g id="Grupo_1209343" data-name="Grupo 1209343" transform="translate(16.551 16.516)">
          <path id="Trazado_1049971" data-name="Trazado 1049971" d="M371.723,360.226a9.644,9.644,0,0,1-1.628,1.792l4.426,4.339,1.685-1.737Z" transform="translate(-352.013 -342.867)" fill="#a79ba7" fill-rule="evenodd"/>
          <path id="Trazado_1049972" data-name="Trazado 1049972" d="M382.526,359.923a1.112,1.112,0,0,1-.482.646l4.4,4.368.539-.59Z" transform="translate(-362.786 -342.594)" fill="#837683" fill-rule="evenodd"/>
          <path id="Trazado_1049973" data-name="Trazado 1049973" d="M410.058,401.428l1.9-1.96a.874.874,0,0,0-.019-1.233l-5.267-5.111a.875.875,0,0,0-1.233.018l-1.9,1.96a.875.875,0,0,0,.019,1.233l5.267,5.111A.875.875,0,0,0,410.058,401.428Z" transform="translate(-381.945 -372.307)" fill="#f1ba84" fill-rule="evenodd"/>
          <path id="Trazado_1049974" data-name="Trazado 1049974" d="M427.729,393.125,433,398.236a.874.874,0,0,1,.019,1.233l-1.9,1.96a.863.863,0,0,1-.236.173.875.875,0,0,0,1.016-.173l1.9-1.96a.874.874,0,0,0-.019-1.233l-5.267-5.111a.875.875,0,0,0-1-.154A.863.863,0,0,1,427.729,393.125Z" transform="translate(-403.778 -372.308)" fill="#e3a76f" fill-rule="evenodd"/>
          <circle id="Elipse_12570" data-name="Elipse 12570" cx="9.592" cy="9.592" r="9.592" transform="translate(0 17.725) rotate(-67.486)" fill="#8ac9fe"/>
          <path id="Trazado_1049975" data-name="Trazado 1049975" d="M309.332,213.693a9.592,9.592,0,0,1,0,19.183q-.234,0-.466-.011a9.591,9.591,0,0,0,0-19.16Q309.1,213.693,309.332,213.693Z" transform="translate(-296.809 -210.754)" fill="#60b7ff" fill-rule="evenodd"/>
          <circle id="Elipse_12571" data-name="Elipse 12571" cx="6.887" cy="6.887" r="6.887" transform="translate(3.534 16.262) rotate(-67.486)" fill="#eceff1"/>
          <path id="Trazado_1049976" data-name="Trazado 1049976" d="M250.5,241.173c.157,0,.312.006.466.016a6.887,6.887,0,0,0,0,13.742c-.154.01-.309.016-.466.016a6.887,6.887,0,0,1,0-13.775Z" transform="translate(-237.976 -235.53)" fill="#d1d1d6" fill-rule="evenodd"/>
        </g>
      </g>
      <path id="Trazado_1049977" data-name="Trazado 1049977" d="M56.929,51.634l-5.513-5.349a.123.123,0,0,0-.088-.035h0a.123.123,0,0,0-.087.037l-1.991,2.051a.129.129,0,0,0-.034.09.125.125,0,0,0,.037.089l5.513,5.349a.129.129,0,0,0,.177,0l1.991-2.051A.13.13,0,0,0,56.929,51.634ZM47,53.9V47.031L45.834,45.9q-.1.074-.2.145v7.035a.788.788,0,0,1-.787.787H13.888a.787.787,0,0,1-.787-.787V15.766a.788.788,0,0,1,.787-.787h6.537V13.607H13.06a1.332,1.332,0,0,0-1.33,1.331V53.9a1.332,1.332,0,0,0,1.33,1.331H45.673A1.331,1.331,0,0,0,47,53.9ZM21.213,17.833H37.52a.787.787,0,0,0,.787-.787v-.493h5.751V28.383a10.142,10.142,0,0,0-4.1-.928l-1.22-.47a9.622,9.622,0,0,0-.858-2.07l.589-1.326a.786.786,0,0,0-.163-.876l-2-2a.789.789,0,0,0-.877-.163l-1.325.589a9.671,9.671,0,0,0-2.069-.858l-.521-1.353a.789.789,0,0,0-.735-.5H27.954a.786.786,0,0,0-.734.5L26.7,20.285a9.641,9.641,0,0,0-2.068.858L23.3,20.554a.787.787,0,0,0-.876.163l-2,2a.788.788,0,0,0-.163.876l.589,1.327A9.655,9.655,0,0,0,20,26.986l-1.353.521a.787.787,0,0,0-.5.734v2.825a.789.789,0,0,0,.5.735L20,32.322a9.707,9.707,0,0,0,.857,2.07l-.589,1.326a.788.788,0,0,0,.163.876l2,2a.787.787,0,0,0,.876.163l1.326-.589a9.718,9.718,0,0,0,2.068.858l.522,1.353a.787.787,0,0,0,.734.5h2.161c.062.187.13.371.2.553H18.353a.787.787,0,0,0,0,1.575H31.108a10.281,10.281,0,0,0,1.451,1.841H18.353a.787.787,0,0,0,0,1.575H34.566a10.2,10.2,0,0,0,9.492.52v5.346H14.676V16.553h5.75v.493a.787.787,0,0,0,.787.787ZM22,16.259V12.327h3.866a.787.787,0,0,0,.766-.6,2.814,2.814,0,0,1,5.468,0,.787.787,0,0,0,.766.6h3.866v3.931H22Zm16.307-2.651h7.366A1.331,1.331,0,0,1,47,14.938V30.431a10.23,10.23,0,0,0-1.371-1.146V15.766a.788.788,0,0,0-.787-.787H38.307ZM33.572,29.583a10.275,10.275,0,0,0-3.191,4.155,4.208,4.208,0,1,1,3.191-4.155ZM22.459,34.661a.789.789,0,0,0-.049-.732,8.113,8.113,0,0,1-.986-2.378A.79.79,0,0,0,20.94,31l-1.226-.471V28.782l1.226-.471a.787.787,0,0,0,.483-.553,8.139,8.139,0,0,1,.986-2.378.786.786,0,0,0,.049-.732l-.534-1.2,1.234-1.233,1.2.533a.788.788,0,0,0,.732-.049,8.093,8.093,0,0,1,2.379-.986.789.789,0,0,0,.552-.483L28.494,20h1.744l.472,1.225a.788.788,0,0,0,.553.483,8.108,8.108,0,0,1,2.378.986.789.789,0,0,0,.732.049l1.2-.533,1.233,1.233-.534,1.2a.788.788,0,0,0,.05.732,8.093,8.093,0,0,1,.986,2.378l0,.005a10.082,10.082,0,0,0-2.255.866,5.782,5.782,0,1,0-5.689,6.807c.16,0,.32-.006.478-.02a10.212,10.212,0,0,0-.117,3.889H28.494l-.471-1.225a.789.789,0,0,0-.552-.483,8.1,8.1,0,0,1-2.379-.986.788.788,0,0,0-.732-.049l-1.2.533-1.234-1.233ZM39.8,46.3a8.635,8.635,0,1,1,8.634-8.634A8.645,8.645,0,0,1,39.8,46.3Zm7.873-2.141,1.769,1.716-.667.688-1.747-1.694q.339-.34.645-.71Zm10.384,8.752-1.99,2.051a1.7,1.7,0,0,1-2.4.036l-5.09-4.938V53.9a2.908,2.908,0,0,1-2.9,2.905H13.06a2.908,2.908,0,0,1-2.9-2.905V14.938a2.908,2.908,0,0,1,2.9-2.905h7.366V11.54a.787.787,0,0,1,.787-.787h4.08a4.39,4.39,0,0,1,8.147,0h4.08a.787.787,0,0,1,.787.787v.493h7.366a2.908,2.908,0,0,1,2.9,2.905v17.51a10.193,10.193,0,0,1,.017,10.4l2.035,1.975a1.7,1.7,0,0,1,.673-.151,1.679,1.679,0,0,1,1.209.479L58.026,50.5A1.7,1.7,0,0,1,58.062,52.909ZM39.8,43.642a5.978,5.978,0,1,1,5.978-5.978A5.985,5.985,0,0,1,39.8,43.642Zm0,1.575a7.553,7.553,0,1,1,7.553-7.553A7.561,7.561,0,0,1,39.8,45.216ZM30.579,27.874A.787.787,0,0,1,31.7,28.982L29.27,31.434a.786.786,0,0,1-.557.233h0a.789.789,0,0,1-.557-.23l-1.116-1.116a.787.787,0,1,1,1.113-1.113l.557.556ZM18.353,50.245a.787.787,0,0,1,0-1.575H40.128a.787.787,0,1,1,0,1.575ZM30.319,11.738a.952.952,0,1,0-.952.952A.953.953,0,0,0,30.319,11.738Z" transform="translate(0 0)" fill-rule="evenodd"/>
    </g>
  </g>
</svg>
