<svg xmlns="http://www.w3.org/2000/svg" xmlns:xlink="http://www.w3.org/1999/xlink" width="93" height="93" viewBox="0 0 93 93">
  <defs>
    <filter id="Trazado_982547" x="0" y="0" width="93" height="93" filterUnits="userSpaceOnUse">
      <feOffset dy="3" input="SourceAlpha"/>
      <feGaussianBlur stdDeviation="3" result="blur"/>
      <feFlood flood-opacity="0.161"/>
      <feComposite operator="in" in2="blur"/>
      <feComposite in="SourceGraphic"/>
    </filter>
  </defs>
  <g id="Grupo_1209346" data-name="Grupo 1209346" transform="translate(-615 -1673.732)">
    <g id="Grupo_1209041" data-name="Grupo 1209041" transform="translate(-178.49 -1669.268)">
      <g id="Grupo_1208891" data-name="Grupo 1208891" transform="translate(802.49 3349)">
        <g id="Grupo_1177675" data-name="Grupo 1177675" transform="translate(0 0)">
          <g id="Grupo_1176928" data-name="Grupo 1176928" transform="translate(0 0)">
            <g id="Grupo_1172322" data-name="Grupo 1172322" transform="translate(0 0)">
              <g id="Grupo_1164700" data-name="Grupo 1164700">
                <g id="Grupo_1160931" data-name="Grupo 1160931">
                  <g id="Grupo_1160749" data-name="Grupo 1160749">
                    <g id="Grupo_1158891" data-name="Grupo 1158891">
                      <g id="Grupo_1157406" data-name="Grupo 1157406">
                        <g id="Grupo_1155793" data-name="Grupo 1155793">
                          <g id="Grupo_1154704" data-name="Grupo 1154704">
                            <g id="Grupo_1150790" data-name="Grupo 1150790">
                              <g id="Grupo_1154214" data-name="Grupo 1154214">
                                <g id="Grupo_1152583" data-name="Grupo 1152583">
                                  <g id="Grupo_1146973" data-name="Grupo 1146973">
                                    <g id="Grupo_1146954" data-name="Grupo 1146954">
                                      <g transform="matrix(1, 0, 0, 1, -9, -6)" filter="url(#Trazado_982547)">
                                        <g id="Trazado_982547-2" data-name="Trazado 982547" transform="translate(9 6)" fill="#fef7ea">
                                          <path d="M 37.49999237060547 73.49986267089844 C 32.63936996459961 73.49986267089844 27.92492485046387 72.54824066162109 23.48763656616211 70.67143249511719 C 19.20095825195312 68.85832214355469 15.35081481933594 66.26239013671875 12.04415893554688 62.95573043823242 C 8.737492561340332 59.64907455444336 6.14155912399292 55.79894256591797 4.328447818756104 51.51226425170898 C 2.45162558555603 47.07498550415039 1.500003457069397 42.36055374145508 1.500003457069397 37.49993133544922 C 1.500003457069397 32.63930892944336 2.45162558555603 27.92487525939941 4.328447818756104 23.48759841918945 C 6.14155912399292 19.20092010498047 8.737492561340332 15.35078716278076 12.04415893554688 12.0441312789917 C 15.35081481933594 8.737475395202637 19.20095825195312 6.141542434692383 23.48763656616211 4.328431129455566 C 27.92492485046387 2.45162034034729 32.63936996459961 1.499997973442078 37.49999237060547 1.499997973442078 C 42.36061477661133 1.499997973442078 47.07505798339844 2.45162034034729 51.51234817504883 4.328431129455566 C 55.79902648925781 6.141542434692383 59.649169921875 8.737475395202637 62.95582580566406 12.0441312789917 C 66.26248931884766 15.35078716278076 68.85842895507812 19.20092010498047 70.67153930664062 23.48759841918945 C 72.54836273193359 27.92487525939941 73.49998474121094 32.63930892944336 73.49998474121094 37.49993133544922 C 73.49998474121094 42.36055374145508 72.54836273193359 47.07498550415039 70.67153930664062 51.51226425170898 C 68.85842895507812 55.79894256591797 66.26248931884766 59.64907455444336 62.95582580566406 62.95573043823242 C 59.649169921875 66.26239013671875 55.79902648925781 68.85832214355469 51.51234817504883 70.67143249511719 C 47.07505798339844 72.54824066162109 42.36061477661133 73.49986267089844 37.49999237060547 73.49986267089844 Z" stroke="none"/>
                                          <path d="M 37.49999237060547 2.999992370605469 C 32.84120559692383 2.999992370605469 28.32336807250977 3.911758422851562 24.07196807861328 5.709945678710938 C 19.96409225463867 7.447418212890625 16.27420425415039 9.935409545898438 13.10481643676758 13.10479354858398 C 9.935432434082031 16.2741813659668 7.447441101074219 19.96405792236328 5.709953308105469 24.07191848754883 C 3.911766052246094 28.32331848144531 3.000007629394531 32.84114456176758 3.000007629394531 37.49993133544922 C 3.000007629394531 42.15870666503906 3.911766052246094 46.67654418945312 5.709953308105469 50.92793273925781 C 7.447441101074219 55.03580474853516 9.935432434082031 58.72568130493164 13.10481643676758 61.89505767822266 C 16.27420425415039 65.06444549560547 19.96409225463867 67.55242919921875 24.07196807861328 69.28990936279297 C 28.32336807250977 71.08809661865234 32.84120559692383 71.99985504150391 37.49999237060547 71.99985504150391 C 42.15877914428711 71.99985504150391 46.67661666870117 71.08809661865234 50.92801666259766 69.28990936279297 C 55.03589248657227 67.55242919921875 58.72578048706055 65.06444549560547 61.89516830444336 61.89505767822266 C 65.06455230712891 58.72568130493164 67.55254364013672 55.03580474853516 69.29003143310547 50.92793273925781 C 71.08821868896484 46.67654418945312 71.99997711181641 42.15870666503906 71.99997711181641 37.49993133544922 C 71.99997711181641 32.84114456176758 71.08821868896484 28.32331848144531 69.29003143310547 24.07191848754883 C 67.55254364013672 19.96405792236328 65.06455230712891 16.2741813659668 61.89516830444336 13.10479354858398 C 58.72578048706055 9.935409545898438 55.03589248657227 7.447418212890625 50.92801666259766 5.709945678710938 C 46.67661666870117 3.911758422851562 42.15877914428711 2.999992370605469 37.49999237060547 2.999992370605469 M 37.49999237060547 -7.62939453125e-06 C 58.21065521240234 -7.62939453125e-06 74.99997711181641 16.7892951965332 74.99997711181641 37.49993133544922 C 74.99997711181641 58.2105712890625 58.21065521240234 74.99985504150391 37.49999237060547 74.99985504150391 C 16.78932952880859 74.99985504150391 7.62939453125e-06 58.2105712890625 7.62939453125e-06 37.49993133544922 C 7.62939453125e-06 16.7892951965332 16.78932952880859 -7.62939453125e-06 37.49999237060547 -7.62939453125e-06 Z" stroke="none" fill="#896521"/>
                                        </g>
                                      </g>
                                    </g>
                                  </g>
                                </g>
                              </g>
                            </g>
                          </g>
                        </g>
                      </g>
                    </g>
                  </g>
                </g>
              </g>
            </g>
          </g>
        </g>
      </g>
    </g>
    <g id="file-explorer_12269363" transform="translate(585.145 1676.712)">
      <path id="Trazado_1049978" data-name="Trazado 1049978" d="M91,57.872l1.739,4.678a1.448,1.448,0,0,1-.852,1.859l-2.4.893a1.448,1.448,0,0,1-1.861-.852l-1.987-5.344a1.444,1.444,0,0,1,.108-1.235H56.356a3.908,3.908,0,0,1-3.9-3.9V24.561a.657.657,0,0,1,.657-.657H62.4a.658.658,0,0,1,.626.455l.42.97V16.67a.657.657,0,0,1,.657-.657H84.228a.655.655,0,0,1,.469.2L87.392,18.9h5.321a.657.657,0,0,1,.657.657V33.875h.312a.657.657,0,0,1,.657.657V57.215a.657.657,0,0,1-.657.657Z" fill-rule="evenodd"/>
      <path id="Trazado_1049979" data-name="Trazado 1049979" d="M289.709,224.027a7.356,7.356,0,1,0,3.624,9.751A7.356,7.356,0,0,0,289.709,224.027Zm-3.1.352a6.336,6.336,0,1,1-6.3,6.376,6.336,6.336,0,0,1,6.3-6.376Z" transform="translate(-203.493 -186.012)" fill="#b3b3b3" fill-rule="evenodd"/>
      <path id="Trazado_1049980" data-name="Trazado 1049980" d="M310.51,247.469a5.026,5.026,0,1,0,.045,7.108A5.026,5.026,0,0,0,310.51,247.469Z" transform="translate(-223.827 -206.343)" fill="#f9b224" fill-rule="evenodd"/>
      <path id="Trazado_1049981" data-name="Trazado 1049981" d="M384.185,393l.805-.3-.779-2.095-.806.3.772,2.078Z" transform="translate(-296.899 -336.057)" fill="gray" fill-rule="evenodd"/>
      <path id="Trazado_1049982" data-name="Trazado 1049982" d="M148.744,223.454a1.456,1.456,0,0,1,.926.3h2.755V202.381H119.654v18.784a3.882,3.882,0,0,1-.985,2.584h26.473l-.464-1.247-.313.116a.655.655,0,0,1-.842-.385l-.623-1.676a8.659,8.659,0,1,1,5.107-1.925l.631,1.7a.655.655,0,0,1-.385.842l-.314.117Zm-27.14-4.147a.657.657,0,1,1,0-1.314h8.3a.657.657,0,1,1,0,1.314Zm0,2.715a.657.657,0,1,1,0-1.314h8.3a.657.657,0,1,1,0,1.314Z" transform="translate(-59.4 -167.194)" fill="#f9b224" fill-rule="evenodd"/>
      <path id="Trazado_1049983" data-name="Trazado 1049983" d="M389.276,419.945l-2.4.894a.139.139,0,0,0-.081.177l1.987,5.344a.139.139,0,0,0,.177.081l2.349-.873c.153-.065.167-.094.116-.252l-1.966-5.289a.14.14,0,0,0-.177-.082Z" transform="translate(-299.93 -362.368)" fill="#5f6368" fill-rule="evenodd"/>
      <path id="Trazado_1049984" data-name="Trazado 1049984" d="M370.136,368.553l-.289-.777a8.753,8.753,0,0,1-2.657,1l.285.766Z" transform="translate(-282.353 -315.573)" fill="gray" fill-rule="evenodd"/>
      <path id="Trazado_1049985" data-name="Trazado 1049985" d="M408.144,70.526V56.87h-3.35l1.836,1.836a.655.655,0,0,1,.2.471V70.526Z" transform="translate(-316.088 -36.654)" fill="#b3b3b3" fill-rule="evenodd"/>
      <path id="Trazado_1049986" data-name="Trazado 1049986" d="M371.27,41.411,367.658,37.8v3.612Z" transform="translate(-282.772 -19.545)" fill="#c9c4bd" fill-rule="evenodd"/>
      <path id="Trazado_1049987" data-name="Trazado 1049987" d="M74.907,114.117V108.86l-1.474-3.4h-8.2v28.756a2.584,2.584,0,0,0,5.168,0V114.775a.657.657,0,0,1,.657-.657Z" transform="translate(-11.462 -80.245)" fill="#efa124" fill-rule="evenodd"/>
      <path id="Trazado_1049988" data-name="Trazado 1049988" d="M196.71,45.315V34.623h-5.2a.657.657,0,0,1-.657-.657v-5.2H172.043V45.315Zm-21.375-1.779a.657.657,0,1,1,0-1.314H182.2a.657.657,0,0,1,0,1.314Zm9.749,0a.657.657,0,1,1,0-1.314h6.483a.657.657,0,0,1,0,1.314Zm-9.715-2.625a.657.657,0,1,1,0-1.314h11.038a.657.657,0,0,1,0,1.314Zm13.853,0a.657.657,0,1,1,0-1.314H191.6a.657.657,0,1,1,0,1.314Zm-13.853-2.656a.657.657,0,1,1,0-1.314h6.425a.657.657,0,1,1,0,1.314Zm9.512,0a.657.657,0,1,1,0-1.314h6.72a.657.657,0,1,1,0,1.314ZM175.369,35.6a.657.657,0,0,1,0-1.314h2.695a.657.657,0,1,1,0,1.314Zm5.747,0a.657.657,0,0,1,0-1.314h8.54a.657.657,0,1,1,0,1.314Zm-5.747-2.656a.657.657,0,1,1,0-1.314h9.743a.657.657,0,1,1,0,1.314Z" transform="translate(-107.283 -11.442)" fill="#fff" fill-rule="evenodd"/>
    </g>
  </g>
</svg>
