<svg xmlns="http://www.w3.org/2000/svg" xmlns:xlink="http://www.w3.org/1999/xlink" width="93" height="93" viewBox="0 0 93 93">
  <defs>
    <filter id="Trazado_982547" x="0" y="0" width="93" height="93" filterUnits="userSpaceOnUse">
      <feOffset dy="3" input="SourceAlpha"/>
      <feGaussianBlur stdDeviation="3" result="blur"/>
      <feFlood flood-opacity="0.161"/>
      <feComposite operator="in" in2="blur"/>
      <feComposite in="SourceGraphic"/>
    </filter>
    <clipPath id="clip-path">
      <path id="path1431" d="M0-682.665H49.132v49.132H0Z" transform="translate(0 682.665)"/>
    </clipPath>
  </defs>
  <g id="Grupo_1209347" data-name="Grupo 1209347" transform="translate(-1035 -1673.732)">
    <g id="Grupo_1209040" data-name="Grupo 1209040" transform="translate(241.51 -1669.268)">
      <g id="Grupo_1208891" data-name="Grupo 1208891" transform="translate(802.49 3349)">
        <g id="Grupo_1177675" data-name="Grupo 1177675" transform="translate(0 0)">
          <g id="Grupo_1176928" data-name="Grupo 1176928" transform="translate(0 0)">
            <g id="Grupo_1172322" data-name="Grupo 1172322" transform="translate(0 0)">
              <g id="Grupo_1164700" data-name="Grupo 1164700">
                <g id="Grupo_1160931" data-name="Grupo 1160931">
                  <g id="Grupo_1160749" data-name="Grupo 1160749">
                    <g id="Grupo_1158891" data-name="Grupo 1158891">
                      <g id="Grupo_1157406" data-name="Grupo 1157406">
                        <g id="Grupo_1155793" data-name="Grupo 1155793">
                          <g id="Grupo_1154704" data-name="Grupo 1154704">
                            <g id="Grupo_1150790" data-name="Grupo 1150790">
                              <g id="Grupo_1154214" data-name="Grupo 1154214">
                                <g id="Grupo_1152583" data-name="Grupo 1152583">
                                  <g id="Grupo_1146973" data-name="Grupo 1146973">
                                    <g id="Grupo_1146954" data-name="Grupo 1146954">
                                      <g transform="matrix(1, 0, 0, 1, -9, -6)" filter="url(#Trazado_982547)">
                                        <g id="Trazado_982547-2" data-name="Trazado 982547" transform="translate(9 6)" fill="#fef7ea">
                                          <path d="M 37.49999237060547 73.49986267089844 C 32.63936996459961 73.49986267089844 27.92492485046387 72.54824066162109 23.48763656616211 70.67143249511719 C 19.20095825195312 68.85832214355469 15.35081481933594 66.26239013671875 12.04415893554688 62.95573043823242 C 8.737492561340332 59.64907455444336 6.14155912399292 55.79894256591797 4.328447818756104 51.51226425170898 C 2.45162558555603 47.07498550415039 1.500003457069397 42.36055374145508 1.500003457069397 37.49993133544922 C 1.500003457069397 32.63930892944336 2.45162558555603 27.92487525939941 4.328447818756104 23.48759841918945 C 6.14155912399292 19.20092010498047 8.737492561340332 15.35078716278076 12.04415893554688 12.0441312789917 C 15.35081481933594 8.737475395202637 19.20095825195312 6.141542434692383 23.48763656616211 4.328431129455566 C 27.92492485046387 2.45162034034729 32.63936996459961 1.499997973442078 37.49999237060547 1.499997973442078 C 42.36061477661133 1.499997973442078 47.07505798339844 2.45162034034729 51.51234817504883 4.328431129455566 C 55.79902648925781 6.141542434692383 59.649169921875 8.737475395202637 62.95582580566406 12.0441312789917 C 66.26248931884766 15.35078716278076 68.85842895507812 19.20092010498047 70.67153930664062 23.48759841918945 C 72.54836273193359 27.92487525939941 73.49998474121094 32.63930892944336 73.49998474121094 37.49993133544922 C 73.49998474121094 42.36055374145508 72.54836273193359 47.07498550415039 70.67153930664062 51.51226425170898 C 68.85842895507812 55.79894256591797 66.26248931884766 59.64907455444336 62.95582580566406 62.95573043823242 C 59.649169921875 66.26239013671875 55.79902648925781 68.85832214355469 51.51234817504883 70.67143249511719 C 47.07505798339844 72.54824066162109 42.36061477661133 73.49986267089844 37.49999237060547 73.49986267089844 Z" stroke="none"/>
                                          <path d="M 37.49999237060547 2.999992370605469 C 32.84120559692383 2.999992370605469 28.32336807250977 3.911758422851562 24.07196807861328 5.709945678710938 C 19.96409225463867 7.447418212890625 16.27420425415039 9.935409545898438 13.10481643676758 13.10479354858398 C 9.935432434082031 16.2741813659668 7.447441101074219 19.96405792236328 5.709953308105469 24.07191848754883 C 3.911766052246094 28.32331848144531 3.000007629394531 32.84114456176758 3.000007629394531 37.49993133544922 C 3.000007629394531 42.15870666503906 3.911766052246094 46.67654418945312 5.709953308105469 50.92793273925781 C 7.447441101074219 55.03580474853516 9.935432434082031 58.72568130493164 13.10481643676758 61.89505767822266 C 16.27420425415039 65.06444549560547 19.96409225463867 67.55242919921875 24.07196807861328 69.28990936279297 C 28.32336807250977 71.08809661865234 32.84120559692383 71.99985504150391 37.49999237060547 71.99985504150391 C 42.15877914428711 71.99985504150391 46.67661666870117 71.08809661865234 50.92801666259766 69.28990936279297 C 55.03589248657227 67.55242919921875 58.72578048706055 65.06444549560547 61.89516830444336 61.89505767822266 C 65.06455230712891 58.72568130493164 67.55254364013672 55.03580474853516 69.29003143310547 50.92793273925781 C 71.08821868896484 46.67654418945312 71.99997711181641 42.15870666503906 71.99997711181641 37.49993133544922 C 71.99997711181641 32.84114456176758 71.08821868896484 28.32331848144531 69.29003143310547 24.07191848754883 C 67.55254364013672 19.96405792236328 65.06455230712891 16.2741813659668 61.89516830444336 13.10479354858398 C 58.72578048706055 9.935409545898438 55.03589248657227 7.447418212890625 50.92801666259766 5.709945678710938 C 46.67661666870117 3.911758422851562 42.15877914428711 2.999992370605469 37.49999237060547 2.999992370605469 M 37.49999237060547 -7.62939453125e-06 C 58.21065521240234 -7.62939453125e-06 74.99997711181641 16.7892951965332 74.99997711181641 37.49993133544922 C 74.99997711181641 58.2105712890625 58.21065521240234 74.99985504150391 37.49999237060547 74.99985504150391 C 16.78932952880859 74.99985504150391 7.62939453125e-06 58.2105712890625 7.62939453125e-06 37.49993133544922 C 7.62939453125e-06 16.7892951965332 16.78932952880859 -7.62939453125e-06 37.49999237060547 -7.62939453125e-06 Z" stroke="none" fill="#896521"/>
                                        </g>
                                      </g>
                                    </g>
                                  </g>
                                </g>
                              </g>
                            </g>
                          </g>
                        </g>
                      </g>
                    </g>
                  </g>
                </g>
              </g>
            </g>
          </g>
        </g>
      </g>
    </g>
    <g id="g1425" transform="translate(1056.934 2375.331)">
      <g id="g1427" transform="translate(0 -682.665)">
        <g id="g1429" clip-path="url(#clip-path)">
          <g id="g1435" transform="translate(0.72 27.158)">
            <path id="path1437" d="M-192.123,0h-4.349a10.55,10.55,0,0,0-10.55,10.55v9.041h25.45V10.55A10.55,10.55,0,0,0-192.123,0" transform="translate(207.022)" fill="#7bacdf"/>
          </g>
          <g id="g1439" transform="translate(0.72 27.158)">
            <path id="path1441" d="M-174.5,0a10.55,10.55,0,0,0-10.551,10.55v9.041h-2.982V10.55A10.55,10.55,0,0,1-177.488,0Z" transform="translate(188.038)" fill="#5f99d7"/>
          </g>
          <g id="g1443" transform="translate(11.948 30.855)">
            <path id="path1445" d="M-69.645-204.947l-2.7-15.894h0l-2.7,15.894" transform="translate(75.046 220.841)" fill="#7a6d79"/>
          </g>
          <g id="g1447" transform="translate(11.948 32.583)">
            <path id="path1449" d="M-31.033,0-33.44,14.167" transform="translate(33.44)" fill="none" stroke="#000" stroke-linecap="round" stroke-linejoin="round" stroke-miterlimit="10" stroke-width="1"/>
          </g>
          <g id="g1451" transform="translate(14.942 32.583)">
            <path id="path1453" d="M-16.717-98.42l-1.3-7.633" transform="translate(18.013 106.053)" fill="none" stroke="#000" stroke-linecap="round" stroke-linejoin="round" stroke-miterlimit="10" stroke-width="1"/>
          </g>
          <g id="g1455" transform="translate(16.8 43.517)">
            <path id="path1457" d="M-7.078-41.675l-.549-3.232" transform="translate(7.627 44.907)" fill="none" stroke="#000" stroke-linecap="round" stroke-linejoin="round" stroke-miterlimit="10" stroke-width="1"/>
          </g>
          <g id="g1459" transform="translate(0.72 27.332)">
            <path id="path1461" d="M-111.4,0a10.551,10.551,0,0,0-8.639,10.376v9.041h25.45" transform="translate(120.04)" fill="none" stroke="#000" stroke-linecap="round" stroke-linejoin="round" stroke-miterlimit="10" stroke-width="1"/>
          </g>
          <g id="g1463" transform="translate(18.244 27.488)">
            <path id="path1465" d="M0,0A10.557,10.557,0,0,1,7.821,8.735" fill="none" stroke="#000" stroke-linecap="round" stroke-linejoin="round" stroke-miterlimit="10" stroke-width="1"/>
          </g>
          <g id="g1467" transform="translate(11.968 27.515)">
            <path id="path1469" d="M-69.129-34.565l-2.681-2.681-2.681,2.681,2.681,2.681Z" transform="translate(74.49 37.245)" fill="#7a6d79"/>
          </g>
          <g id="g1471" transform="translate(9.318 25.495)">
            <path id="path1473" d="M-94.315-4.138l.679.5a2.88,2.88,0,0,1,1.13,2.811L-93,2.04l-3.3-3.062-3.3,3.062-1.622-2.694a2.88,2.88,0,0,1,.759-3.8" transform="translate(101.629 4.459)" fill="#5f99d7"/>
          </g>
          <g id="g1475" transform="translate(8.151 10.934)">
            <path id="path1477" d="M-171.631,0V8.368a5.56,5.56,0,0,1-4.268,5.408,5.111,5.111,0,0,1-.562.1v1.908a2.222,2.222,0,0,1-2.849,2.131l-.073-.022a4.7,4.7,0,0,1-3.368-4.5V8.7h-.449a1.738,1.738,0,0,1-1.231-.51,1.736,1.736,0,0,1-.51-1.231,1.735,1.735,0,0,1,.3-.974c.165-.243-.111-1.7.153-1.834.237-.122.276.028.561.028h.449L-182.75,0Z" transform="translate(184.941)" fill="#ffdfcf"/>
          </g>
          <g id="g1479" transform="translate(8.151 10.934)">
            <path id="path1481" d="M-116.591-177.629a5.107,5.107,0,0,1-.562.1,5.468,5.468,0,0,1-.73.048,5.528,5.528,0,0,1-1.254-.143v4.213a2.21,2.21,0,0,1-.866-.079l-.073-.022a4.7,4.7,0,0,1-3.368-4.5V-182.7h-.449a1.738,1.738,0,0,1-1.231-.51,1.736,1.736,0,0,1-.51-1.231,1.735,1.735,0,0,1,.3-.974c.165-.243-.111-1.7.153-1.834.237-.122.276.028.561.028h.449l.729-4.184h3.169l.538,1.292v8.358a4.279,4.279,0,0,0,3.145,4.126" transform="translate(125.633 191.405)" fill="#ffcebf"/>
          </g>
          <g id="g1483" transform="translate(12.883 23.971)">
            <path id="path1485" d="M0,0A5.512,5.512,0,0,0,1.419.656,5.57,5.57,0,0,0,3.02.89a5.483,5.483,0,0,0,.73-.048" fill="none" stroke="#000" stroke-linecap="round" stroke-linejoin="round" stroke-miterlimit="10" stroke-width="1"/>
          </g>
          <g id="g1487" transform="translate(6.166 4.86)">
            <path id="path1489" d="M-251.386-55a1.767,1.767,0,0,1-.794,1.477,15.151,15.151,0,0,1-11.093,2.26l-1.018-.187-.464,2.058a1.826,1.826,0,0,1-1.781,1.424h-.619a1.739,1.739,0,0,0-1.5.858h0l-.589-.589a5.583,5.583,0,0,1-1.637-3.95A5.577,5.577,0,0,1-270.716-53a5.587,5.587,0,0,1,5.415-4.236,5.588,5.588,0,0,1,.719.046,13.792,13.792,0,0,0,7.644-1.2l1.561-.736a1.455,1.455,0,0,1,.616-.137,1.461,1.461,0,0,1,1.271.74,1.46,1.46,0,0,1-.524,1.977,1.755,1.755,0,0,1,.855-.221,1.768,1.768,0,0,1,1.549.91,1.764,1.764,0,0,1,.223.86" transform="translate(270.882 59.261)" fill="#7a6d79"/>
          </g>
          <g id="g1491" transform="translate(6.166 6.89)">
            <path id="path1493" d="M-52.111-54.615a5.571,5.571,0,0,0-.166,1.349,5.583,5.583,0,0,0,1.241,3.511,1.828,1.828,0,0,1-.772.171h-.619a1.739,1.739,0,0,0-1.5.858h0l-.589-.589a5.583,5.583,0,0,1-1.636-3.95,5.571,5.571,0,0,1,.166-1.349,5.586,5.586,0,0,1,5.415-4.236,5.592,5.592,0,0,1,.719.046,13.709,13.709,0,0,0,1.838.112,5.588,5.588,0,0,0-4.1,4.077" transform="translate(56.152 58.851)" fill="#685e68"/>
          </g>
          <g id="g1495" transform="translate(8.151 12.281)">
            <path id="path1497" d="M-171.631,0V7.02a5.559,5.559,0,0,1-4.83,5.511v1.908a2.222,2.222,0,0,1-2.849,2.131l-.073-.022a4.7,4.7,0,0,1-3.368-4.5V7.357h-.449a1.738,1.738,0,0,1-1.231-.51,1.736,1.736,0,0,1-.51-1.231,1.73,1.73,0,0,1,.241-.883,1.741,1.741,0,0,1,1.5-.858h.449" transform="translate(184.941)" fill="none" stroke="#000" stroke-linecap="round" stroke-linejoin="round" stroke-miterlimit="10" stroke-width="1"/>
          </g>
          <g id="g1499" transform="translate(6.166 10.481)">
            <path id="path1501" d="M-4.751,0a5.477,5.477,0,0,0-.2.645A5.592,5.592,0,0,0-5.12,2,5.582,5.582,0,0,0-3.484,5.944l.589.59" transform="translate(5.12)" fill="none" stroke="#000" stroke-linecap="round" stroke-linejoin="round" stroke-miterlimit="10" stroke-width="1"/>
          </g>
          <g id="g1503" transform="translate(8.612 4.859)">
            <path id="path1505" d="M0-38.655a5.57,5.57,0,0,1,3.854-.921h0a13.784,13.784,0,0,0,7.643-1.2l1.562-.736a1.449,1.449,0,0,1,.616-.137,1.46,1.46,0,0,1,1.271.74,1.46,1.46,0,0,1-.524,1.977" transform="translate(0 41.653)" fill="none" stroke="#000" stroke-linecap="round" stroke-linejoin="round" stroke-miterlimit="10" stroke-width="1"/>
          </g>
          <g id="g1507" transform="translate(10.342 7.354)">
            <path id="path1509" d="M-154.25-8.5l.677-.407.054-.031a1.767,1.767,0,0,1,.855-.222,1.77,1.77,0,0,1,1.55.911,1.767,1.767,0,0,1,.223.859,1.768,1.768,0,0,1-.794,1.478,15.143,15.143,0,0,1-11.093,2.26L-163.8-3.84l-.464,2.058a1.826,1.826,0,0,1-1.781,1.423h-.17" transform="translate(166.213 9.16)" fill="none" stroke="#000" stroke-linecap="round" stroke-linejoin="round" stroke-miterlimit="10" stroke-width="1"/>
          </g>
          <g id="g1511" transform="translate(19.717 15.389)">
            <path id="path1513" d="M0,0V.861" fill="none" stroke="#000" stroke-linecap="round" stroke-linejoin="round" stroke-miterlimit="10" stroke-width="1"/>
          </g>
          <g id="g1515" transform="translate(15.659 15.389)">
            <path id="path1517" d="M0,0V.861" fill="none" stroke="#000" stroke-linecap="round" stroke-linejoin="round" stroke-miterlimit="10" stroke-width="1"/>
          </g>
          <g id="g1519" transform="translate(17.789 13.058)">
            <path id="path1521" d="M0,0V2.39A2.838,2.838,0,0,0,1.089,4.624a.78.78,0,0,1-.48,1.395" fill="none" stroke="#000" stroke-linecap="round" stroke-linejoin="round" stroke-miterlimit="10" stroke-width="1"/>
          </g>
          <g id="g1523" transform="translate(15.509 20.593)">
            <path id="path1525" d="M0,0A4.608,4.608,0,0,0,2.3.449" fill="none" stroke="#000" stroke-linecap="round" stroke-linejoin="round" stroke-miterlimit="10" stroke-width="1"/>
          </g>
          <g id="g1527" transform="translate(12.603 30.831)">
            <path id="path1529" d="M0,0,2.045,2.045,4.09,0" fill="none" stroke="#000" stroke-linecap="round" stroke-linejoin="round" stroke-miterlimit="10" stroke-width="1"/>
          </g>
          <g id="g1531" transform="translate(6.444 37.688)">
            <path id="path1533" d="M0-116.841V-125.9" transform="translate(0 125.902)" fill="none" stroke="#000" stroke-linecap="round" stroke-linejoin="round" stroke-miterlimit="10" stroke-width="1"/>
          </g>
          <g id="g1535" transform="translate(22.412 37.688)">
            <path id="path1537" d="M0-116.841V-125.9" transform="translate(0 125.902)" fill="none" stroke="#000" stroke-linecap="round" stroke-linejoin="round" stroke-miterlimit="10" stroke-width="1"/>
          </g>
          <g id="g1539" transform="translate(9.318 25.495)">
            <path id="path1541" d="M-94.315-4.138l.679.5a2.88,2.88,0,0,1,1.13,2.811L-93,2.04l-3.3-3.062-3.3,3.062-1.622-2.694a2.88,2.88,0,0,1,.759-3.8" transform="translate(101.629 4.459)" fill="none" stroke="#000" stroke-linecap="round" stroke-linejoin="round" stroke-miterlimit="10" stroke-width="1"/>
          </g>
          <g id="g1543" transform="translate(26.444 17.138)">
            <path id="path1545" d="M-114.144-161.613a3.016,3.016,0,0,1-3.015-3.016,3.015,3.015,0,0,1,3.015-3.015,3.015,3.015,0,0,1,3.016,3.015,3.016,3.016,0,0,1-3.016,3.016m8.2-.786-1.227-.709a7.158,7.158,0,0,0,.164-1.521,7.157,7.157,0,0,0-.164-1.521l1.227-.709a1.3,1.3,0,0,0,.475-1.774l-.87-1.508a1.3,1.3,0,0,0-1.774-.476l-1.228.709a7.127,7.127,0,0,0-2.635-1.523v-1.416a1.3,1.3,0,0,0-1.3-1.3h-1.743a1.3,1.3,0,0,0-1.3,1.3v1.416a7.127,7.127,0,0,0-2.635,1.523l-1.227-.709a1.3,1.3,0,0,0-1.774.476l-.871,1.508a1.3,1.3,0,0,0,.475,1.774l1.228.709a7.157,7.157,0,0,0-.164,1.521,7.157,7.157,0,0,0,.164,1.521l-1.228.709a1.3,1.3,0,0,0-.475,1.774l.871,1.509a1.3,1.3,0,0,0,1.774.476l1.227-.709a7.128,7.128,0,0,0,2.635,1.523v1.416a1.3,1.3,0,0,0,1.3,1.3h1.743a1.3,1.3,0,0,0,1.3-1.3v-1.416a7.128,7.128,0,0,0,2.635-1.523l1.228.709a1.3,1.3,0,0,0,1.774-.476l.87-1.509a1.3,1.3,0,0,0-.475-1.774" transform="translate(122.996 174.146)" fill="#7a6d79"/>
          </g>
          <g id="g1547" transform="translate(26.444 17.138)">
            <path id="path1549" d="M-114.144-161.613a3.016,3.016,0,0,1-3.015-3.016,3.015,3.015,0,0,1,3.015-3.015,3.015,3.015,0,0,1,3.016,3.015A3.016,3.016,0,0,1-114.144-161.613Zm8.2-.786-1.227-.709a7.158,7.158,0,0,0,.164-1.521,7.157,7.157,0,0,0-.164-1.521l1.227-.709a1.3,1.3,0,0,0,.475-1.774l-.87-1.508a1.3,1.3,0,0,0-1.774-.476l-1.228.709a7.127,7.127,0,0,0-2.635-1.523v-1.416a1.3,1.3,0,0,0-1.3-1.3h-1.743a1.3,1.3,0,0,0-1.3,1.3v1.416a7.127,7.127,0,0,0-2.635,1.523l-1.227-.709a1.3,1.3,0,0,0-1.774.476l-.871,1.508a1.3,1.3,0,0,0,.475,1.774l1.228.709a7.157,7.157,0,0,0-.164,1.521,7.157,7.157,0,0,0,.164,1.521l-1.228.709a1.3,1.3,0,0,0-.475,1.774l.871,1.509a1.3,1.3,0,0,0,1.774.476l1.227-.709a7.128,7.128,0,0,0,2.635,1.523v1.416a1.3,1.3,0,0,0,1.3,1.3h1.743a1.3,1.3,0,0,0,1.3-1.3v-1.416a7.128,7.128,0,0,0,2.635-1.523l1.228.709a1.3,1.3,0,0,0,1.774-.476l.87-1.509A1.3,1.3,0,0,0-105.941-162.4Z" transform="translate(122.996 174.146)" fill="none" stroke="#000" stroke-linecap="round" stroke-linejoin="round" stroke-miterlimit="10" stroke-width="1"/>
          </g>
          <g id="g1551" transform="translate(25.419 35.877)">
            <path id="path1553" d="M-21.4,0h0a1.66,1.66,0,0,0-1.66,1.66V6.318h3.32V1.66A1.66,1.66,0,0,0-21.4,0" transform="translate(23.063)" fill="#ffcebf"/>
          </g>
          <g id="g1555" transform="translate(25.419 35.877)">
            <path id="path1557" d="M-42.813-81.481h-3.32V-86.14a1.661,1.661,0,0,1,1.66-1.66,1.661,1.661,0,0,1,1.66,1.66v1.595" transform="translate(46.133 87.8)" fill="none" stroke="#000" stroke-linecap="round" stroke-linejoin="round" stroke-miterlimit="10" stroke-width="1"/>
          </g>
          <g id="g1559" transform="translate(24.493 40.664)">
            <path id="path1561" d="M0-78.468H6.192l.926-4.554L5.253-84.553.926-83.021Z" transform="translate(0 84.553)" fill="#7bacdf"/>
          </g>
          <g id="g1563" transform="translate(24.493 40.663)">
            <path id="path1565" d="M-75.418-6.311l-2.944,1.043-.926,4.553h-1.979l.926-4.553L-76.014-6.8Z" transform="translate(81.266 6.8)" fill="#5f99d7"/>
          </g>
          <g id="g1567" transform="translate(25.419 39.132)">
            <path id="path1569" d="M0-39.5H8.394a1.532,1.532,0,0,0,1.532-1.532,1.532,1.532,0,0,0-1.532-1.532H2.858A2.858,2.858,0,0,0,0-39.708Z" transform="translate(0 42.565)" fill="#ffdfcf"/>
          </g>
          <g id="g1571" transform="translate(25.419 39.132)">
            <path id="path1573" d="M0-39.5H8.394a1.532,1.532,0,0,0,1.532-1.532,1.532,1.532,0,0,0-1.532-1.532H2.858A2.858,2.858,0,0,0,0-39.708Z" transform="translate(0 42.565)" fill="none" stroke="#000" stroke-linecap="round" stroke-linejoin="round" stroke-miterlimit="10" stroke-width="1"/>
          </g>
          <g id="g1575" transform="translate(24.493 42.196)">
            <path id="path1577" d="M0-58.717H6.192l.926-4.554H.926Z" transform="translate(0 63.271)" fill="none" stroke="#000" stroke-linecap="round" stroke-linejoin="round" stroke-miterlimit="10" stroke-width="1"/>
          </g>
          <g id="g1579" transform="translate(38.223 2.383)">
            <path id="path1581" d="M-45.287-11.78l-3.265,5.654a1.827,1.827,0,0,0,1.582,2.741h.733V.449A1.947,1.947,0,0,0-44.29,2.4h1.17A1.947,1.947,0,0,0-41.173.449V-3.385h.733a1.827,1.827,0,0,0,1.582-2.741l-3.265-5.654a1.827,1.827,0,0,0-3.165,0" transform="translate(48.799 12.694)" fill="#bbec6c"/>
          </g>
          <g id="g1583" transform="translate(38.224 2.383)">
            <path id="path1585" d="M-79.89-193.679a1.906,1.906,0,0,1-.516.07h-1.17a1.947,1.947,0,0,1-1.947-1.947v-3.835h-.733a1.827,1.827,0,0,1-1.582-2.741l3.265-5.654a1.83,1.83,0,0,1,2.684-.548,1.833,1.833,0,0,0-.482.548l-3.265,5.654a1.827,1.827,0,0,0,1.582,2.741h.732v3.835a1.945,1.945,0,0,0,1.432,1.877" transform="translate(86.086 208.699)" fill="#a2e62e"/>
          </g>
          <g id="g1587" transform="translate(38.223 2.383)">
            <path id="path1589" d="M-119.443-69.525l.678,1.176a1.827,1.827,0,0,1-1.582,2.741h-.732v3.836a1.947,1.947,0,0,1-1.947,1.946H-124.2a1.946,1.946,0,0,1-1.946-1.946v-3.836h-.733a1.827,1.827,0,0,1-1.582-2.741L-125.194-74a1.827,1.827,0,0,1,3.165,0l.91,1.576" transform="translate(128.707 74.916)" fill="none" stroke="#000" stroke-linecap="round" stroke-linejoin="round" stroke-miterlimit="10" stroke-width="1"/>
          </g>
        </g>
      </g>
    </g>
  </g>
</svg>
