<svg xmlns="http://www.w3.org/2000/svg" xmlns:xlink="http://www.w3.org/1999/xlink" width="108" height="108" viewBox="0 0 108 108">
  <defs>
    <filter id="Trazado_904820" x="0" y="0" width="108" height="108" filterUnits="userSpaceOnUse">
      <feOffset dy="3" input="SourceAlpha"/>
      <feGaussianBlur stdDeviation="3" result="blur"/>
      <feFlood flood-opacity="0.161"/>
      <feComposite operator="in" in2="blur"/>
      <feComposite in="SourceGraphic"/>
    </filter>
  </defs>
  <g id="Grupo_1209355" data-name="Grupo 1209355" transform="translate(-200 -1935.401)">
    <g id="Grupo_1209043" data-name="Grupo 1209043" transform="translate(209 1941.401)">
      <g id="Grupo_1173585" data-name="Grupo 1173585" transform="translate(0 0)">
        <g id="Grupo_1173428" data-name="Grupo 1173428">
          <g id="Grupo_1171958" data-name="Grupo 1171958">
            <g id="Grupo_1167341" data-name="Grupo 1167341">
              <g id="Grupo_1166792" data-name="Grupo 1166792">
                <g transform="matrix(1, 0, 0, 1, -9, -6)" filter="url(#Trazado_904820)">
                  <g id="Trazado_904820-2" data-name="Trazado 904820" transform="translate(9 6)" fill="#e8e7f2">
                    <path d="M 44.99999618530273 88.50002288818359 C 39.12687301635742 88.50002288818359 33.43022155761719 87.35009765625 28.06829643249512 85.08218383789062 C 22.88852119445801 82.89133453369141 18.23629570007324 79.75460815429688 14.24084663391113 75.7591552734375 C 10.24540901184082 71.76371002197266 7.108683586120605 67.11148071289062 4.917821407318115 61.93170928955078 C 2.649921178817749 56.56978225708008 1.499996185302734 50.87313079833984 1.499996185302734 45.00000762939453 C 1.499996185302734 39.12688446044922 2.649921178817749 33.43023300170898 4.917821407318115 28.06829452514648 C 7.108683586120605 22.8885326385498 10.24540901184082 18.23630714416504 14.24084663391113 14.24085807800293 C 18.23629570007324 10.2454080581665 22.88852119445801 7.108695030212402 28.06829643249512 4.917832851409912 C 33.43022155761719 2.649932622909546 39.12687301635742 1.500007629394531 44.99999618530273 1.500007629394531 C 50.87311935424805 1.500007629394531 56.56977081298828 2.649932622909546 61.93169784545898 4.917832851409912 C 67.11147308349609 7.108695030212402 71.76369476318359 10.2454080581665 75.75914764404297 14.24085807800293 C 79.75458526611328 18.23630714416504 82.89131164550781 22.8885326385498 85.08216857910156 28.06829452514648 C 87.35007476806641 33.43023300170898 88.5 39.12688446044922 88.5 45.00000762939453 C 88.5 50.87313079833984 87.35007476806641 56.56978225708008 85.08216857910156 61.93170928955078 C 82.89131164550781 67.11148071289062 79.75458526611328 71.76371002197266 75.75914764404297 75.7591552734375 C 71.76369476318359 79.75460815429688 67.11147308349609 82.89133453369141 61.93169784545898 85.08218383789062 C 56.56977081298828 87.35009765625 50.87311935424805 88.50002288818359 44.99999618530273 88.50002288818359 Z" stroke="none"/>
                    <path d="M 44.99999618530273 2.999992370605469 C 39.32870864868164 2.999992370605469 33.82865142822266 4.110054016113281 28.65262603759766 6.299339294433594 C 23.65165710449219 8.414566040039062 19.15968322753906 11.44333648681641 15.301513671875 15.30150604248047 C 11.44333648681641 19.15967559814453 8.414566040039062 23.65164947509766 6.299339294433594 28.65262222290039 C 4.110054016113281 33.82866287231445 2.999992370605469 39.32872009277344 2.999992370605469 45.00000762939453 C 2.999992370605469 50.67129516601562 4.110054016113281 56.17133712768555 6.299339294433594 61.34738159179688 C 8.414566040039062 66.34835052490234 11.44333648681641 70.84030914306641 15.301513671875 74.69849395751953 C 19.15968322753906 78.55666351318359 23.65165710449219 81.58543395996094 28.65262603759766 83.70066833496094 C 33.82865142822266 85.88995361328125 39.32870864868164 87.00000762939453 44.99999618530273 87.00000762939453 C 50.67128372192383 87.00000762939453 56.17134094238281 85.88995361328125 61.34736633300781 83.70066833496094 C 66.34834289550781 81.58543395996094 70.84030914306641 78.55666351318359 74.69847869873047 74.69849395751953 C 78.55665588378906 70.84030914306641 81.58542633056641 66.34835052490234 83.70065307617188 61.34738159179688 C 85.88993835449219 56.17133712768555 87 50.67129516601562 87 45.00000762939453 C 87 39.32872009277344 85.88993835449219 33.82866287231445 83.70065307617188 28.65262222290039 C 81.58542633056641 23.65164947509766 78.55665588378906 19.15967559814453 74.69847869873047 15.30150604248047 C 70.84030914306641 11.44333648681641 66.34834289550781 8.414566040039062 61.34736633300781 6.299339294433594 C 56.17134094238281 4.110054016113281 50.67128372192383 2.999992370605469 44.99999618530273 2.999992370605469 M 44.99999618530273 -7.62939453125e-06 C 69.85281372070312 -7.62939453125e-06 90 20.14717864990234 90 45.00000762939453 C 90 69.85280609130859 69.85281372070312 90.00000762939453 44.99999618530273 90.00000762939453 C 20.14717864990234 90.00000762939453 -7.62939453125e-06 69.85280609130859 -7.62939453125e-06 45.00000762939453 C -7.62939453125e-06 20.14717864990234 20.14717864990234 -7.62939453125e-06 44.99999618530273 -7.62939453125e-06 Z" stroke="none" fill="#292584"/>
                  </g>
                </g>
              </g>
            </g>
          </g>
        </g>
      </g>
    </g>
    <g id="revision_18158191" transform="translate(223.899 1945.602)">
      <g id="Grupo_1209354" data-name="Grupo 1209354" transform="translate(1.908 13.985)">
        <g id="Grupo_1209348" data-name="Grupo 1209348" transform="translate(16.168 4.116)">
          <rect id="Rect치ngulo_418697" data-name="Rect치ngulo 418697" width="33.794" height="46.558" rx="14.555" fill="#b4d2d7"/>
          <path id="Trazado_1049989" data-name="Trazado 1049989" d="M182.225,57.138h.557a1.665,1.665,0,0,1,1.661,1.661v43.236a1.665,1.665,0,0,1-1.661,1.661H152.31a1.665,1.665,0,0,1-1.661-1.661v-.557h29.914a1.665,1.665,0,0,0,1.661-1.661Z" transform="translate(-150.649 -57.138)" fill="#a1c6cc" fill-rule="evenodd"/>
        </g>
        <g id="Grupo_1209349" data-name="Grupo 1209349" transform="translate(12.052)">
          <rect id="Rect치ngulo_418698" data-name="Rect치ngulo 418698" width="33.794" height="46.558" rx="14.555" fill="#eff4f7"/>
          <path id="Trazado_1049990" data-name="Trazado 1049990" d="M146.165,21.078h.557a1.665,1.665,0,0,1,1.661,1.661V65.975a1.665,1.665,0,0,1-1.661,1.661H116.251a1.665,1.665,0,0,1-1.661-1.661v-.557H144.5a1.665,1.665,0,0,0,1.661-1.661V21.078Z" transform="translate(-114.59 -21.078)" fill="#dee8ee" fill-rule="evenodd"/>
        </g>
        <g id="Grupo_1209350" data-name="Grupo 1209350" transform="translate(37.621 9.073)">
          <path id="Trazado_1049991" data-name="Trazado 1049991" d="M339.027,124.2l13.278-23a1.285,1.285,0,0,1,1.752-.469l2.667,1.54a1.285,1.285,0,0,1,.469,1.752l-13.278,23-4.141,2.881a.748.748,0,0,1-1.172-.677Z" transform="translate(-338.6 -100.564)" fill="#ffda2d" fill-rule="evenodd"/>
          <path id="Trazado_1049992" data-name="Trazado 1049992" d="M355.391,108.809l1.333.77a1.285,1.285,0,0,1,.469,1.752l-13.278,23-4.141,2.881a.748.748,0,0,1-1.172-.677l.018-.218,3.961-2.756,13.278-23a1.285,1.285,0,0,0-.469-1.752Z" transform="translate(-338.6 -107.868)" fill="#ffc700" fill-rule="evenodd"/>
          <path id="Trazado_1049993" data-name="Trazado 1049993" d="M343.914,310.513l-4.886-2.821-.424,5.024a.749.749,0,0,0,1.172.677l4.138-2.879Z" transform="translate(-338.601 -284.05)" fill="#da8c36" fill-rule="evenodd"/>
          <path id="Trazado_1049994" data-name="Trazado 1049994" d="M343.913,326.431l-1.333-.77-3.958,2.754-.018.218a.749.749,0,0,0,1.172.677l4.138-2.879Z" transform="translate(-338.6 -299.968)" fill="#cd7d25" fill-rule="evenodd"/>
          <path id="Trazado_1049995" data-name="Trazado 1049995" d="M445.965,103.717l4.888,2.822,1.451-2.513a1.285,1.285,0,0,0-.469-1.752l-2.667-1.54a1.285,1.285,0,0,0-1.752.469l-1.451,2.513Z" transform="translate(-433.71 -100.564)" fill="#fdb800" fill-rule="evenodd"/>
          <path id="Trazado_1049996" data-name="Trazado 1049996" d="M477.107,113.073l1.333.77,1.451-2.513a1.285,1.285,0,0,0-.469-1.752l-1.333-.77a1.285,1.285,0,0,1,.469,1.752l-1.451,2.513Z" transform="translate(-461.298 -107.867)" fill="#f4a40e" fill-rule="evenodd"/>
        </g>
        <g id="Grupo_1209352" data-name="Grupo 1209352" transform="translate(0 12.774)">
          <path id="Trazado_1049997" data-name="Trazado 1049997" d="M72.887,337.576l-2.549-1.587,2.932-5.078,2.653,1.407Z" transform="translate(-63.337 -308.32)" fill="#96a4af" fill-rule="evenodd"/>
          <path id="Trazado_1049998" data-name="Trazado 1049998" d="M72.887,343.686,70.338,342.1l.016-.027,1.426.888,2.974-5.151,1.168.62Z" transform="translate(-63.337 -314.431)" fill="#8696a3" fill-rule="evenodd"/>
          <circle id="Elipse_12572" data-name="Elipse 12572" cx="12.569" cy="12.569" r="12.569" transform="matrix(0.997, -0.082, 0.082, 0.997, 3.322, 2.061)" fill="#64b5f6"/>
          <path id="Trazado_1049999" data-name="Trazado 1049999" d="M94.338,163.033a12.568,12.568,0,1,1-16.5,18.85,12.568,12.568,0,0,0,16.5-18.85Z" transform="translate(-69.984 -159.604)" fill="#42a5f5" fill-rule="evenodd"/>
          <circle id="Elipse_12573" data-name="Elipse 12573" cx="9.736" cy="9.736" r="9.736" transform="matrix(0.16, -0.987, 0.987, 0.16, 5.718, 21.589)" fill="#e6f8ff"/>
          <g id="Grupo_1209351" data-name="Grupo 1209351" transform="translate(0 3.805)">
            <path id="Trazado_1050000" data-name="Trazado 1050000" d="M81.419,166.331a9.715,9.715,0,0,1,7.478,3.5,9.735,9.735,0,0,0-13.712,13.712,9.735,9.735,0,0,1,6.234-17.213Z" transform="translate(-64.528 -166.331)" fill="#d0f1ff" fill-rule="evenodd"/>
            <path id="Trazado_1050001" data-name="Trazado 1050001" d="M15.805,362.167l4.177,2.412a.243.243,0,0,1,.089.331l-6.12,10.6a2.654,2.654,0,1,1-4.6-2.654l6.12-10.6A.243.243,0,0,1,15.805,362.167Z" transform="translate(-9.001 -339.785)" fill="#da8c36" fill-rule="evenodd"/>
            <path id="Trazado_1050002" data-name="Trazado 1050002" d="M24.876,377.606l1.175.678a.243.243,0,0,1,.089.331l-6.12,10.6a2.653,2.653,0,0,1-4.169.556,2.665,2.665,0,0,0,2.994-1.234l6.12-10.6a.243.243,0,0,0-.089-.331Z" transform="translate(-15.069 -353.491)" fill="#cd7d25" fill-rule="evenodd"/>
            <path id="Trazado_1050003" data-name="Trazado 1050003" d="M57.9,364.578a.243.243,0,0,1,.089.331L56.4,367.66l-4.6-2.654,1.588-2.751a.243.243,0,0,1,.331-.089Z" transform="translate(-46.916 -339.785)" fill="#b76f21" fill-rule="evenodd"/>
            <path id="Trazado_1050004" data-name="Trazado 1050004" d="M84.458,378.283a.243.243,0,0,1,.089.331l-1.588,2.751-1.175-.678,1.588-2.751a.243.243,0,0,0-.089-.331Z" transform="translate(-73.476 -353.49)" fill="#a3631d" fill-rule="evenodd"/>
          </g>
        </g>
        <g id="Grupo_1209353" data-name="Grupo 1209353" transform="translate(10.276 21.902)">
          <path id="Trazado_1050005" data-name="Trazado 1050005" d="M109.047,213.368a1.379,1.379,0,0,1,1.95,1.95l-6.727,6.727a1.38,1.38,0,0,1-2.107-.187l-2.83-3.562a1.377,1.377,0,0,1,2.155-1.713l1.923,2.42,5.636-5.636Z" transform="translate(-99.034 -212.964)" fill="#64b5f6" fill-rule="evenodd"/>
          <path id="Trazado_1050006" data-name="Trazado 1050006" d="M111.278,220.047a1.38,1.38,0,0,1-.281,1.546l-6.727,6.727a1.38,1.38,0,0,1-2.107-.187l-2.83-3.562a1.376,1.376,0,0,1-.175-1.427,1.382,1.382,0,0,0,.175.286l2.83,3.562a1.38,1.38,0,0,0,2.107.187L111,220.452A1.375,1.375,0,0,0,111.278,220.047Z" transform="translate(-99.034 -219.239)" fill="#42a5f5" fill-rule="evenodd"/>
        </g>
      </g>
      <path id="Trazado_1050007" data-name="Trazado 1050007" d="M13.2,40.651l2.831,3.563c.011.014.023.03.033.045a.47.47,0,0,0,.343.2.46.46,0,0,0,.37-.135L23.5,37.595a.466.466,0,1,0-.66-.658l-5.636,5.635a.912.912,0,0,1-1.359-.077l-1.925-2.42a.46.46,0,0,0-.31-.172c-.014,0-.033,0-.052,0a.463.463,0,0,0-.363.752Zm1.385,4.679-2.814-3.542a2.29,2.29,0,1,1,3.585-2.85l1.286,1.619,4.913-4.912a2.292,2.292,0,0,1,3.241,3.241l-6.728,6.728a2.283,2.283,0,0,1-1.618.671,1.96,1.96,0,0,1-.2-.009,2.292,2.292,0,0,1-1.663-.946ZM57.368,25.783a.372.372,0,0,0-.171-.224l-2.666-1.54a.37.37,0,0,0-.5.135l-1,1.723,3.306,1.909.994-1.722a.372.372,0,0,0,.037-.281ZM50.956,40.757V63a.748.748,0,0,1-.747.748H19.738A.749.749,0,0,1,18.989,63V61.456h27.1a2.578,2.578,0,0,0,2.574-2.575V44.723l2.29-3.967ZM15.622,59.63a.749.749,0,0,1-.749-.749V53.2a13.481,13.481,0,1,0,0-25.8V15.646a.749.749,0,0,1,.749-.749H46.093a.749.749,0,0,1,.748.749v17.3l-7.675,13.3a.9.9,0,0,0-.12.379l-.425,5.027a1.647,1.647,0,0,0,.825,1.578,1.645,1.645,0,0,0,1.778-.075l4.141-2.881a.925.925,0,0,0,.269-.293l1.205-2.089V58.881a.749.749,0,0,1-.748.749Zm-3.77-3.818L8.837,54.071l-.8,1.379,3.016,1.741Zm-1.708,2.96L6.068,65.831a1.741,1.741,0,0,1-3.015-1.741l4.075-7.059,3.016,1.74Zm.606-5.705,1.017.586.809-1.4c-.348-.183-.687-.378-1.017-.589l-.809,1.4ZM18.8,51.955A11.656,11.656,0,1,1,30.453,40.3,11.668,11.668,0,0,1,18.8,51.955ZM48.667,19.013V29.782l2.29-3.967V19.762a.749.749,0,0,0-.747-.749Zm-8.2,32.435,2.669-1.857-2.4-1.382-.272,3.239ZM55.424,29.367,44.509,48.273,41.2,46.365,52.118,27.459Zm3.49-2.39L52.783,37.594V63a2.578,2.578,0,0,1-2.574,2.575H19.738A2.578,2.578,0,0,1,17.163,63V61.456H15.622a2.578,2.578,0,0,1-2.575-2.575V57.4l-5.4,9.348a3.567,3.567,0,1,1-6.178-3.567L7.6,52.562a1.141,1.141,0,0,1,1.556-.417l.013.008.912-1.581a13.473,13.473,0,0,1,2.967-22.465V15.646a2.578,2.578,0,0,1,2.575-2.575H46.093a2.578,2.578,0,0,1,2.574,2.575v1.541h1.542a2.577,2.577,0,0,1,2.574,2.575V22.8a2.2,2.2,0,0,1,2.661-.362l2.666,1.54a2.2,2.2,0,0,1,.8,3ZM9.976,40.3A8.822,8.822,0,1,1,18.8,49.121,8.832,8.832,0,0,1,9.976,40.3Zm-1.826,0A10.648,10.648,0,1,1,18.8,50.947,10.66,10.66,0,0,1,8.15,40.3Zm34.7-9.98H34.9a.913.913,0,0,0,0,1.826H42.85a.913.913,0,1,0,0-1.826Zm0-6.033H37.467a.913.913,0,0,0,0,1.827H42.85a.913.913,0,1,0,0-1.827ZM32.8,43.3a.913.913,0,0,0,.913.913h3.646a.913.913,0,1,0,0-1.826H33.709A.913.913,0,0,0,32.8,43.3Zm1.811-5.119h1.832a.913.913,0,0,0,0-1.827H34.606a.913.913,0,0,0,0,1.827Zm-5.463-18.1H42.85a.913.913,0,1,0,0-1.826H29.143a.913.913,0,0,0,0,1.826Zm5.148,34.367H30.072a.913.913,0,0,0,0,1.826h4.218a.913.913,0,1,0,0-1.826Zm1.21-6.033H32.76a.913.913,0,1,0,0,1.827H35.5a.913.913,0,0,0,0-1.827ZM21.45,24.286H18.863a.913.913,0,0,0,0,1.827H21.45a.913.913,0,0,0,0-1.827ZM34.7,25.2a.914.914,0,0,0-.913-.914H24.958a.913.913,0,0,0,0,1.827h8.829A.914.914,0,0,0,34.7,25.2Zm-9.8-6.033a.913.913,0,0,0-.913-.913H18.863a.913.913,0,0,0,0,1.826h5.121A.913.913,0,0,0,24.9,19.167ZM42.85,54.447H37.965a.913.913,0,1,0,0,1.826H42.85a.913.913,0,1,0,0-1.826Zm0-18.1H40.185a.913.913,0,1,0,0,1.827H42.85a.913.913,0,1,0,0-1.827ZM26.439,55.36a.913.913,0,0,0-.913-.913H18.863a.913.913,0,1,0,0,1.826h6.662A.913.913,0,0,0,26.439,55.36Z" transform="translate(0)" fill-rule="evenodd"/>
    </g>
  </g>
</svg>
