<svg xmlns="http://www.w3.org/2000/svg" xmlns:xlink="http://www.w3.org/1999/xlink" width="93" height="93" viewBox="0 0 93 93">
  <defs>
    <filter id="Trazado_982547" x="0" y="0" width="93" height="93" filterUnits="userSpaceOnUse">
      <feOffset dy="3" input="SourceAlpha"/>
      <feGaussianBlur stdDeviation="3" result="blur"/>
      <feFlood flood-opacity="0.161"/>
      <feComposite operator="in" in2="blur"/>
      <feComposite in="SourceGraphic"/>
    </filter>
  </defs>
  <g id="Grupo_1209325" data-name="Grupo 1209325" transform="translate(-195 -2738.881)">
    <g id="Grupo_1209036" data-name="Grupo 1209036" transform="translate(-598.49 -604.119)">
      <g id="Grupo_1208891" data-name="Grupo 1208891" transform="translate(802.49 3349)">
        <g id="Grupo_1177675" data-name="Grupo 1177675" transform="translate(0 0)">
          <g id="Grupo_1176928" data-name="Grupo 1176928" transform="translate(0 0)">
            <g id="Grupo_1172322" data-name="Grupo 1172322" transform="translate(0 0)">
              <g id="Grupo_1164700" data-name="Grupo 1164700">
                <g id="Grupo_1160931" data-name="Grupo 1160931">
                  <g id="Grupo_1160749" data-name="Grupo 1160749">
                    <g id="Grupo_1158891" data-name="Grupo 1158891">
                      <g id="Grupo_1157406" data-name="Grupo 1157406">
                        <g id="Grupo_1155793" data-name="Grupo 1155793">
                          <g id="Grupo_1154704" data-name="Grupo 1154704">
                            <g id="Grupo_1150790" data-name="Grupo 1150790">
                              <g id="Grupo_1154214" data-name="Grupo 1154214">
                                <g id="Grupo_1152583" data-name="Grupo 1152583">
                                  <g id="Grupo_1146973" data-name="Grupo 1146973">
                                    <g id="Grupo_1146954" data-name="Grupo 1146954">
                                      <g transform="matrix(1, 0, 0, 1, -9, -6)" filter="url(#Trazado_982547)">
                                        <g id="Trazado_982547-2" data-name="Trazado 982547" transform="translate(9 6)" fill="#fef7ea">
                                          <path d="M 37.49999237060547 73.49986267089844 C 32.63936996459961 73.49986267089844 27.92492485046387 72.54824066162109 23.48763656616211 70.67143249511719 C 19.20095825195312 68.85832214355469 15.35081481933594 66.26239013671875 12.04415893554688 62.95573043823242 C 8.737492561340332 59.64907455444336 6.14155912399292 55.79894256591797 4.328447818756104 51.51226425170898 C 2.45162558555603 47.07498550415039 1.500003457069397 42.36055374145508 1.500003457069397 37.49993133544922 C 1.500003457069397 32.63930892944336 2.45162558555603 27.92487525939941 4.328447818756104 23.48759841918945 C 6.14155912399292 19.20092010498047 8.737492561340332 15.35078716278076 12.04415893554688 12.0441312789917 C 15.35081481933594 8.737475395202637 19.20095825195312 6.141542434692383 23.48763656616211 4.328431129455566 C 27.92492485046387 2.45162034034729 32.63936996459961 1.499997973442078 37.49999237060547 1.499997973442078 C 42.36061477661133 1.499997973442078 47.07505798339844 2.45162034034729 51.51234817504883 4.328431129455566 C 55.79902648925781 6.141542434692383 59.649169921875 8.737475395202637 62.95582580566406 12.0441312789917 C 66.26248931884766 15.35078716278076 68.85842895507812 19.20092010498047 70.67153930664062 23.48759841918945 C 72.54836273193359 27.92487525939941 73.49998474121094 32.63930892944336 73.49998474121094 37.49993133544922 C 73.49998474121094 42.36055374145508 72.54836273193359 47.07498550415039 70.67153930664062 51.51226425170898 C 68.85842895507812 55.79894256591797 66.26248931884766 59.64907455444336 62.95582580566406 62.95573043823242 C 59.649169921875 66.26239013671875 55.79902648925781 68.85832214355469 51.51234817504883 70.67143249511719 C 47.07505798339844 72.54824066162109 42.36061477661133 73.49986267089844 37.49999237060547 73.49986267089844 Z" stroke="none"/>
                                          <path d="M 37.49999237060547 2.999992370605469 C 32.84120559692383 2.999992370605469 28.32336807250977 3.911758422851562 24.07196807861328 5.709945678710938 C 19.96409225463867 7.447418212890625 16.27420425415039 9.935409545898438 13.10481643676758 13.10479354858398 C 9.935432434082031 16.2741813659668 7.447441101074219 19.96405792236328 5.709953308105469 24.07191848754883 C 3.911766052246094 28.32331848144531 3.000007629394531 32.84114456176758 3.000007629394531 37.49993133544922 C 3.000007629394531 42.15870666503906 3.911766052246094 46.67654418945312 5.709953308105469 50.92793273925781 C 7.447441101074219 55.03580474853516 9.935432434082031 58.72568130493164 13.10481643676758 61.89505767822266 C 16.27420425415039 65.06444549560547 19.96409225463867 67.55242919921875 24.07196807861328 69.28990936279297 C 28.32336807250977 71.08809661865234 32.84120559692383 71.99985504150391 37.49999237060547 71.99985504150391 C 42.15877914428711 71.99985504150391 46.67661666870117 71.08809661865234 50.92801666259766 69.28990936279297 C 55.03589248657227 67.55242919921875 58.72578048706055 65.06444549560547 61.89516830444336 61.89505767822266 C 65.06455230712891 58.72568130493164 67.55254364013672 55.03580474853516 69.29003143310547 50.92793273925781 C 71.08821868896484 46.67654418945312 71.99997711181641 42.15870666503906 71.99997711181641 37.49993133544922 C 71.99997711181641 32.84114456176758 71.08821868896484 28.32331848144531 69.29003143310547 24.07191848754883 C 67.55254364013672 19.96405792236328 65.06455230712891 16.2741813659668 61.89516830444336 13.10479354858398 C 58.72578048706055 9.935409545898438 55.03589248657227 7.447418212890625 50.92801666259766 5.709945678710938 C 46.67661666870117 3.911758422851562 42.15877914428711 2.999992370605469 37.49999237060547 2.999992370605469 M 37.49999237060547 -7.62939453125e-06 C 58.21065521240234 -7.62939453125e-06 74.99997711181641 16.7892951965332 74.99997711181641 37.49993133544922 C 74.99997711181641 58.2105712890625 58.21065521240234 74.99985504150391 37.49999237060547 74.99985504150391 C 16.78932952880859 74.99985504150391 7.62939453125e-06 58.2105712890625 7.62939453125e-06 37.49993133544922 C 7.62939453125e-06 16.7892951965332 16.78932952880859 -7.62939453125e-06 37.49999237060547 -7.62939453125e-06 Z" stroke="none" fill="#896521"/>
                                        </g>
                                      </g>
                                    </g>
                                  </g>
                                </g>
                              </g>
                            </g>
                          </g>
                        </g>
                      </g>
                    </g>
                  </g>
                </g>
              </g>
            </g>
          </g>
        </g>
      </g>
    </g>
    <g id="Page-1" transform="translate(219.113 2757.874)">
      <g id="_013---Search-Document" data-name="013---Search-Document" transform="translate(0)">
        <g id="Colour" transform="translate(0.83 0.83)">
          <path id="Path" d="M34.206,6h3.318a1.664,1.664,0,0,1,1.659,1.659v39.82a1.664,1.664,0,0,1-1.659,1.659H7.659A1.664,1.664,0,0,1,6,47.479V44.161Z" transform="translate(-1.023 -1.023)" fill="#abb1bb" fill-rule="evenodd"/>
          <path id="Path-2" data-name="Path" d="M33.183,1.659v39.82a1.664,1.664,0,0,1-1.659,1.659H1.659A1.664,1.664,0,0,1,0,41.479V8.3L8.3,0H31.524A1.664,1.664,0,0,1,33.183,1.659Z" fill="#e5e8eb" fill-rule="evenodd"/>
          <path id="Path-3" data-name="Path" d="M8.3,0V6.637A1.664,1.664,0,0,1,6.637,8.3H0Z" fill="#6692aa" fill-rule="evenodd"/>
          <path id="Path-4" data-name="Path" d="M55.038,26.489a2.489,2.489,0,0,1-2.489,2.489H40.62a9.982,9.982,0,0,0,0-4.977H52.549A2.489,2.489,0,0,1,55.038,26.489Z" transform="translate(-6.922 -4.09)" fill="#937966" fill-rule="evenodd"/>
          <path id="Path-5" data-name="Path" d="M36.91,24.954a9.837,9.837,0,0,1-.315,2.489,10.334,10.334,0,0,1-.514,1.5,9.958,9.958,0,0,1-17.214,1.817,8.811,8.811,0,0,1-.606-.954c-.116-.2-.216-.4-.315-.606a9.1,9.1,0,0,1-.382-.929,9.923,9.923,0,0,1-.531-2.489c-.025-.274-.033-.548-.033-.83s.008-.556.033-.83a9.923,9.923,0,0,1,.531-2.489,9.1,9.1,0,0,1,.382-.929c.1-.207.2-.406.315-.606a8.811,8.811,0,0,1,.606-.954A9.955,9.955,0,0,1,36.91,24.954Z" transform="translate(-2.897 -2.556)" fill="#74d7f1" fill-rule="evenodd"/>
        </g>
        <g id="Outer_Lines">
          <path id="Shape" d="M46.457,19.91H39.82V7.466a2.489,2.489,0,0,0-2.489-2.489H34.842V2.489A2.489,2.489,0,0,0,32.354,0H9.125c-.017,0-.033.009-.051.01A.825.825,0,0,0,8.86.053c-.027.009-.053.016-.079.027a.835.835,0,0,0-.242.166l-8.3,8.3a.83.83,0,0,0-.166.243c-.012.025-.018.051-.027.077a.83.83,0,0,0-.043.215c0,.015-.007.031-.007.048V42.309A2.489,2.489,0,0,0,2.489,44.8H4.977v2.489a2.489,2.489,0,0,0,2.489,2.489H37.331a2.489,2.489,0,0,0,2.489-2.489V26.547h6.637a3.318,3.318,0,1,0,0-6.637ZM37.331,6.637a.83.83,0,0,1,.83.83V19.91h-3.01c0-.017-.012-.033-.018-.05-.012-.035-.022-.071-.035-.105-.027-.078-.059-.155-.083-.234-.055-.15-.106-.3-.166-.45V6.637Zm-19.478,22.4H22.4a.83.83,0,1,0,0-1.659h-5.63a9.042,9.042,0,0,1-.965-3.318H29.035a.83.83,0,0,0,0-1.659H15.8a9.042,9.042,0,0,1,.965-3.318h3.97a.83.83,0,0,0,0-1.659H17.853a9.125,9.125,0,0,1,15.871,8.087,9.582,9.582,0,0,1-.471,1.376,9.125,9.125,0,0,1-15.4,2.151ZM8.3,2.832V7.466a.83.83,0,0,1-.83.83H2.832ZM1.659,42.309V9.955H7.466A2.489,2.489,0,0,0,9.955,7.466V1.659h22.4a.83.83,0,0,1,.83.83V16.336A10.751,10.751,0,0,0,19.163,14.1H5.807a.83.83,0,1,0,0,1.659H17.123a10.813,10.813,0,0,0-1.511,1.991.815.815,0,0,0-.123.2c-.055.1-.107.2-.159.3H5.807a.83.83,0,0,0,0,1.659h8.823a10.693,10.693,0,0,0-.485,2.489H14.1a.83.83,0,1,0,0,1.659h.042a10.693,10.693,0,0,0,.485,2.489H12.444a.83.83,0,1,0,0,1.659H15.33c.052.1.1.2.159.3a.83.83,0,0,0,.123.2,10.84,10.84,0,0,0,1.511,1.994H5.807a.83.83,0,0,0,0,1.659H19.163a10.745,10.745,0,0,0,14.02-2.24V42.309a.83.83,0,0,1-.83.83H2.489A.83.83,0,0,1,1.659,42.309Zm36.5,4.977a.83.83,0,0,1-.83.83H7.466a.83.83,0,0,1-.83-.83V44.8H32.354a2.489,2.489,0,0,0,2.489-2.489V27.386c.06-.145.11-.294.166-.441.029-.079.061-.156.088-.235l.036-.111c.006-.017.013-.035.019-.053h3.009Zm8.3-22.4H35.545c.01-.064.013-.129.022-.194.011-.083.018-.161.027-.242a10.693,10.693,0,0,0,.077-1.223,10.882,10.882,0,0,0-.076-1.222c-.01-.083-.017-.166-.028-.243s-.012-.13-.022-.194H46.457a1.659,1.659,0,1,1,0,3.318Z" transform="translate(0)" fill="#232323"/>
          <path id="Path-6" data-name="Path" d="M33.977,21H29.83a.83.83,0,0,0,0,1.659h4.148a.83.83,0,1,0,0-1.659Z" transform="translate(-4.942 -3.579)" fill="#232323" fill-rule="evenodd"/>
          <path id="Path-7" data-name="Path" d="M17.83,43.659h.83a.83.83,0,0,0,0-1.659h-.83a.83.83,0,0,0,0,1.659Z" transform="translate(-2.897 -7.158)" fill="#232323" fill-rule="evenodd"/>
          <path id="Path-8" data-name="Path" d="M11.807,43.659a.83.83,0,0,0,0-1.659H6.83a.83.83,0,0,0,0,1.659Z" transform="translate(-1.023 -7.158)" fill="#232323" fill-rule="evenodd"/>
          <path id="Path-9" data-name="Path" d="M6.83,28.659h4.148a.83.83,0,1,0,0-1.659H6.83a.83.83,0,0,0,0,1.659Z" transform="translate(-1.023 -4.601)" fill="#232323" fill-rule="evenodd"/>
          <path id="Path-10" data-name="Path" d="M6.83,33.659H9.318a.83.83,0,1,0,0-1.659H6.83a.83.83,0,1,0,0,1.659Z" transform="translate(-1.023 -5.453)" fill="#232323" fill-rule="evenodd"/>
          <path id="Path-11" data-name="Path" d="M31.83,34.659h2.489a.83.83,0,1,0,0-1.659H31.83a.83.83,0,1,0,0,1.659Z" transform="translate(-5.283 -5.624)" fill="#232323" fill-rule="evenodd"/>
        </g>
      </g>
    </g>
  </g>
</svg>
