<svg xmlns="http://www.w3.org/2000/svg" xmlns:xlink="http://www.w3.org/1999/xlink" width="93" height="93" viewBox="0 0 93 93">
  <defs>
    <filter id="Trazado_982547" x="0" y="0" width="93" height="93" filterUnits="userSpaceOnUse">
      <feOffset dy="3" input="SourceAlpha"/>
      <feGaussianBlur stdDeviation="3" result="blur"/>
      <feFlood flood-opacity="0.161"/>
      <feComposite operator="in" in2="blur"/>
      <feComposite in="SourceGraphic"/>
    </filter>
  </defs>
  <g id="Grupo_1209326" data-name="Grupo 1209326" transform="translate(-615 -2738.881)">
    <g id="Grupo_1209037" data-name="Grupo 1209037" transform="translate(-178.49 -604.119)">
      <g id="Grupo_1208891" data-name="Grupo 1208891" transform="translate(802.49 3349)">
        <g id="Grupo_1177675" data-name="Grupo 1177675" transform="translate(0 0)">
          <g id="Grupo_1176928" data-name="Grupo 1176928" transform="translate(0 0)">
            <g id="Grupo_1172322" data-name="Grupo 1172322" transform="translate(0 0)">
              <g id="Grupo_1164700" data-name="Grupo 1164700">
                <g id="Grupo_1160931" data-name="Grupo 1160931">
                  <g id="Grupo_1160749" data-name="Grupo 1160749">
                    <g id="Grupo_1158891" data-name="Grupo 1158891">
                      <g id="Grupo_1157406" data-name="Grupo 1157406">
                        <g id="Grupo_1155793" data-name="Grupo 1155793">
                          <g id="Grupo_1154704" data-name="Grupo 1154704">
                            <g id="Grupo_1150790" data-name="Grupo 1150790">
                              <g id="Grupo_1154214" data-name="Grupo 1154214">
                                <g id="Grupo_1152583" data-name="Grupo 1152583">
                                  <g id="Grupo_1146973" data-name="Grupo 1146973">
                                    <g id="Grupo_1146954" data-name="Grupo 1146954">
                                      <g transform="matrix(1, 0, 0, 1, -9, -6)" filter="url(#Trazado_982547)">
                                        <g id="Trazado_982547-2" data-name="Trazado 982547" transform="translate(9 6)" fill="#fef7ea">
                                          <path d="M 37.49999237060547 73.49986267089844 C 32.63936996459961 73.49986267089844 27.92492485046387 72.54824066162109 23.48763656616211 70.67143249511719 C 19.20095825195312 68.85832214355469 15.35081481933594 66.26239013671875 12.04415893554688 62.95573043823242 C 8.737492561340332 59.64907455444336 6.14155912399292 55.79894256591797 4.328447818756104 51.51226425170898 C 2.45162558555603 47.07498550415039 1.500003457069397 42.36055374145508 1.500003457069397 37.49993133544922 C 1.500003457069397 32.63930892944336 2.45162558555603 27.92487525939941 4.328447818756104 23.48759841918945 C 6.14155912399292 19.20092010498047 8.737492561340332 15.35078716278076 12.04415893554688 12.0441312789917 C 15.35081481933594 8.737475395202637 19.20095825195312 6.141542434692383 23.48763656616211 4.328431129455566 C 27.92492485046387 2.45162034034729 32.63936996459961 1.499997973442078 37.49999237060547 1.499997973442078 C 42.36061477661133 1.499997973442078 47.07505798339844 2.45162034034729 51.51234817504883 4.328431129455566 C 55.79902648925781 6.141542434692383 59.649169921875 8.737475395202637 62.95582580566406 12.0441312789917 C 66.26248931884766 15.35078716278076 68.85842895507812 19.20092010498047 70.67153930664062 23.48759841918945 C 72.54836273193359 27.92487525939941 73.49998474121094 32.63930892944336 73.49998474121094 37.49993133544922 C 73.49998474121094 42.36055374145508 72.54836273193359 47.07498550415039 70.67153930664062 51.51226425170898 C 68.85842895507812 55.79894256591797 66.26248931884766 59.64907455444336 62.95582580566406 62.95573043823242 C 59.649169921875 66.26239013671875 55.79902648925781 68.85832214355469 51.51234817504883 70.67143249511719 C 47.07505798339844 72.54824066162109 42.36061477661133 73.49986267089844 37.49999237060547 73.49986267089844 Z" stroke="none"/>
                                          <path d="M 37.49999237060547 2.999992370605469 C 32.84120559692383 2.999992370605469 28.32336807250977 3.911758422851562 24.07196807861328 5.709945678710938 C 19.96409225463867 7.447418212890625 16.27420425415039 9.935409545898438 13.10481643676758 13.10479354858398 C 9.935432434082031 16.2741813659668 7.447441101074219 19.96405792236328 5.709953308105469 24.07191848754883 C 3.911766052246094 28.32331848144531 3.000007629394531 32.84114456176758 3.000007629394531 37.49993133544922 C 3.000007629394531 42.15870666503906 3.911766052246094 46.67654418945312 5.709953308105469 50.92793273925781 C 7.447441101074219 55.03580474853516 9.935432434082031 58.72568130493164 13.10481643676758 61.89505767822266 C 16.27420425415039 65.06444549560547 19.96409225463867 67.55242919921875 24.07196807861328 69.28990936279297 C 28.32336807250977 71.08809661865234 32.84120559692383 71.99985504150391 37.49999237060547 71.99985504150391 C 42.15877914428711 71.99985504150391 46.67661666870117 71.08809661865234 50.92801666259766 69.28990936279297 C 55.03589248657227 67.55242919921875 58.72578048706055 65.06444549560547 61.89516830444336 61.89505767822266 C 65.06455230712891 58.72568130493164 67.55254364013672 55.03580474853516 69.29003143310547 50.92793273925781 C 71.08821868896484 46.67654418945312 71.99997711181641 42.15870666503906 71.99997711181641 37.49993133544922 C 71.99997711181641 32.84114456176758 71.08821868896484 28.32331848144531 69.29003143310547 24.07191848754883 C 67.55254364013672 19.96405792236328 65.06455230712891 16.2741813659668 61.89516830444336 13.10479354858398 C 58.72578048706055 9.935409545898438 55.03589248657227 7.447418212890625 50.92801666259766 5.709945678710938 C 46.67661666870117 3.911758422851562 42.15877914428711 2.999992370605469 37.49999237060547 2.999992370605469 M 37.49999237060547 -7.62939453125e-06 C 58.21065521240234 -7.62939453125e-06 74.99997711181641 16.7892951965332 74.99997711181641 37.49993133544922 C 74.99997711181641 58.2105712890625 58.21065521240234 74.99985504150391 37.49999237060547 74.99985504150391 C 16.78932952880859 74.99985504150391 7.62939453125e-06 58.2105712890625 7.62939453125e-06 37.49993133544922 C 7.62939453125e-06 16.7892951965332 16.78932952880859 -7.62939453125e-06 37.49999237060547 -7.62939453125e-06 Z" stroke="none" fill="#896521"/>
                                        </g>
                                      </g>
                                    </g>
                                  </g>
                                </g>
                              </g>
                            </g>
                          </g>
                        </g>
                      </g>
                    </g>
                  </g>
                </g>
              </g>
            </g>
          </g>
        </g>
      </g>
    </g>
    <g id="check-list_6456344" transform="translate(633.076 2756.874)">
      <path id="Trazado_1049798" data-name="Trazado 1049798" d="M52.228,43.139V6.114a4.114,4.114,0,0,0-8.228,0V43.139l4.114,8.228Z" transform="translate(-6.203 -0.177)" fill="#d8d5cb"/>
      <path id="Trazado_1049799" data-name="Trazado 1049799" d="M44,14V45.266L46.468,42.8l1.646,1.646L49.759,42.8l2.468,2.468V14Z" transform="translate(-6.203 -2.304)" fill="#e4a350"/>
      <path id="Trazado_1049800" data-name="Trazado 1049800" d="M50.291,42.8V14H47V42.8l1.646,1.646Z" transform="translate(-6.734 -2.304)" fill="#f5bb5c"/>
      <path id="Trazado_1049801" data-name="Trazado 1049801" d="M50.937,56H46l2.468,4.937Z" transform="translate(-6.557 -9.747)" fill="#b4b2a6"/>
      <circle id="Elipse_12567" data-name="Elipse 12567" cx="11.377" cy="11.377" r="11.377" transform="translate(9.911 28.402)" fill="#94c249"/>
      <path id="Trazado_1049802" data-name="Trazado 1049802" d="M22.05,34a11.486,11.486,0,0,0-9.044,4.4c0,.042-.007.082-.007.125A15.117,15.117,0,0,0,30.259,53.594,11.515,11.515,0,0,0,22.05,34Z" transform="translate(-0.709 -5.848)" fill="#b4de60"/>
      <path id="Trazado_1049803" data-name="Trazado 1049803" d="M17.979,47.27,19.114,48.4l6.894-6.894a1.745,1.745,0,0,1,2.468,2.468l-7.958,7.958a1.986,1.986,0,0,1-2.809,0l-2.2-2.2a1.745,1.745,0,0,1,2.468-2.468Z" transform="translate(-1.063 -7.089)" fill="#fff"/>
      <circle id="Elipse_12568" data-name="Elipse 12568" cx="11.377" cy="11.377" r="11.377" transform="translate(9.911 1.857)" fill="#94c249"/>
      <path id="Trazado_1049804" data-name="Trazado 1049804" d="M22.05,2a11.486,11.486,0,0,0-9.044,4.4c0,.042-.007.082-.007.125A15.117,15.117,0,0,0,30.259,21.594,11.515,11.515,0,0,0,22.05,2Z" transform="translate(-0.709 -0.177)" fill="#b4de60"/>
      <path id="Trazado_1049805" data-name="Trazado 1049805" d="M17.979,15.27l1.135,1.135,6.894-6.894a1.745,1.745,0,0,1,2.468,2.468l-7.958,7.958a1.986,1.986,0,0,1-2.809,0l-2.2-2.2a1.745,1.745,0,0,1,2.468-2.468Z" transform="translate(-1.063 -1.418)" fill="#fff"/>
      <path id="Trazado_1049806" data-name="Trazado 1049806" d="M27.065,8a2.585,2.585,0,0,0-1.816.752l-6.312,6.312-.553-.553a2.568,2.568,0,0,0-3.632,3.632l2.2,2.2a2.809,2.809,0,0,0,3.972,0l7.958-7.958A2.568,2.568,0,0,0,27.065,8Zm.652,3.22-7.958,7.958a1.194,1.194,0,0,1-1.646,0l-2.2-2.2a.923.923,0,1,1,1.3-1.3l1.135,1.135a.823.823,0,0,0,1.163,0l6.894-6.894a.923.923,0,1,1,1.3,1.3Z" transform="translate(-0.886 -1.241)"/>
      <path id="Trazado_1049807" data-name="Trazado 1049807" d="M21.342,1A12.342,12.342,0,1,0,33.683,13.342,12.342,12.342,0,0,0,21.342,1Zm0,23.038a10.7,10.7,0,1,1,10.7-10.7A10.7,10.7,0,0,1,21.342,24.038Z" transform="translate(0 0)"/>
      <path id="Trazado_1049808" data-name="Trazado 1049808" d="M27.065,40a2.585,2.585,0,0,0-1.816.752l-6.312,6.312-.553-.553a2.568,2.568,0,1,0-3.632,3.632l2.2,2.2a2.809,2.809,0,0,0,3.972,0l7.958-7.958A2.568,2.568,0,0,0,27.065,40Zm.652,3.22-7.958,7.958a1.194,1.194,0,0,1-1.646,0l-2.2-2.2a.923.923,0,0,1,1.3-1.3l1.135,1.135a.823.823,0,0,0,1.163,0l6.894-6.894a.923.923,0,0,1,1.3,1.3Z" transform="translate(-0.886 -6.912)"/>
      <path id="Trazado_1049809" data-name="Trazado 1049809" d="M21.342,33A12.342,12.342,0,1,0,33.683,45.342,12.342,12.342,0,0,0,21.342,33Zm0,23.038a10.7,10.7,0,1,1,10.7-10.7A10.7,10.7,0,0,1,21.342,56.038Z" transform="translate(0 -5.671)"/>
      <path id="Trazado_1049810" data-name="Trazado 1049810" d="M47.937,1A4.942,4.942,0,0,0,43,5.937V42.962a.823.823,0,0,0,.082.368L47.2,51.557a.823.823,0,0,0,1.473,0l4.114-8.228a.823.823,0,0,0,.091-.368V5.937A4.942,4.942,0,0,0,47.937,1ZM44.824,43.126l1.467-1.469,1.064,1.064a.823.823,0,0,0,1.163,0l1.064-1.064,1.467,1.469L49.9,45.43H45.977Zm3.935-2.974-.823.823-.823-.823V12.519h1.646Zm-3.291,0-.823.823V12.519h.823Zm4.937,0V12.519h.823V40.975ZM47.937,2.646a3.291,3.291,0,0,1,3.291,3.291v4.937H44.646V5.937A3.291,3.291,0,0,1,47.937,2.646Zm0,46.7L46.8,47.076h2.274Z" transform="translate(-6.026 0)"/>
    </g>
  </g>
</svg>
