<svg xmlns="http://www.w3.org/2000/svg" xmlns:xlink="http://www.w3.org/1999/xlink" width="93" height="93" viewBox="0 0 93 93">
  <defs>
    <filter id="Trazado_982547" x="0" y="0" width="93" height="93" filterUnits="userSpaceOnUse">
      <feOffset dy="3" input="SourceAlpha"/>
      <feGaussianBlur stdDeviation="3" result="blur"/>
      <feFlood flood-opacity="0.161"/>
      <feComposite operator="in" in2="blur"/>
      <feComposite in="SourceGraphic"/>
    </filter>
  </defs>
  <g id="Grupo_1209338" data-name="Grupo 1209338" transform="translate(-1035 -2738.881)">
    <g id="Grupo_1209038" data-name="Grupo 1209038" transform="translate(241.51 -604.119)">
      <g id="Grupo_1208891" data-name="Grupo 1208891" transform="translate(802.49 3349)">
        <g id="Grupo_1177675" data-name="Grupo 1177675" transform="translate(0 0)">
          <g id="Grupo_1176928" data-name="Grupo 1176928" transform="translate(0 0)">
            <g id="Grupo_1172322" data-name="Grupo 1172322" transform="translate(0 0)">
              <g id="Grupo_1164700" data-name="Grupo 1164700">
                <g id="Grupo_1160931" data-name="Grupo 1160931">
                  <g id="Grupo_1160749" data-name="Grupo 1160749">
                    <g id="Grupo_1158891" data-name="Grupo 1158891">
                      <g id="Grupo_1157406" data-name="Grupo 1157406">
                        <g id="Grupo_1155793" data-name="Grupo 1155793">
                          <g id="Grupo_1154704" data-name="Grupo 1154704">
                            <g id="Grupo_1150790" data-name="Grupo 1150790">
                              <g id="Grupo_1154214" data-name="Grupo 1154214">
                                <g id="Grupo_1152583" data-name="Grupo 1152583">
                                  <g id="Grupo_1146973" data-name="Grupo 1146973">
                                    <g id="Grupo_1146954" data-name="Grupo 1146954">
                                      <g transform="matrix(1, 0, 0, 1, -9, -6)" filter="url(#Trazado_982547)">
                                        <g id="Trazado_982547-2" data-name="Trazado 982547" transform="translate(9 6)" fill="#fef7ea">
                                          <path d="M 37.49999237060547 73.49986267089844 C 32.63936996459961 73.49986267089844 27.92492485046387 72.54824066162109 23.48763656616211 70.67143249511719 C 19.20095825195312 68.85832214355469 15.35081481933594 66.26239013671875 12.04415893554688 62.95573043823242 C 8.737492561340332 59.64907455444336 6.14155912399292 55.79894256591797 4.328447818756104 51.51226425170898 C 2.45162558555603 47.07498550415039 1.500003457069397 42.36055374145508 1.500003457069397 37.49993133544922 C 1.500003457069397 32.63930892944336 2.45162558555603 27.92487525939941 4.328447818756104 23.48759841918945 C 6.14155912399292 19.20092010498047 8.737492561340332 15.35078716278076 12.04415893554688 12.0441312789917 C 15.35081481933594 8.737475395202637 19.20095825195312 6.141542434692383 23.48763656616211 4.328431129455566 C 27.92492485046387 2.45162034034729 32.63936996459961 1.499997973442078 37.49999237060547 1.499997973442078 C 42.36061477661133 1.499997973442078 47.07505798339844 2.45162034034729 51.51234817504883 4.328431129455566 C 55.79902648925781 6.141542434692383 59.649169921875 8.737475395202637 62.95582580566406 12.0441312789917 C 66.26248931884766 15.35078716278076 68.85842895507812 19.20092010498047 70.67153930664062 23.48759841918945 C 72.54836273193359 27.92487525939941 73.49998474121094 32.63930892944336 73.49998474121094 37.49993133544922 C 73.49998474121094 42.36055374145508 72.54836273193359 47.07498550415039 70.67153930664062 51.51226425170898 C 68.85842895507812 55.79894256591797 66.26248931884766 59.64907455444336 62.95582580566406 62.95573043823242 C 59.649169921875 66.26239013671875 55.79902648925781 68.85832214355469 51.51234817504883 70.67143249511719 C 47.07505798339844 72.54824066162109 42.36061477661133 73.49986267089844 37.49999237060547 73.49986267089844 Z" stroke="none"/>
                                          <path d="M 37.49999237060547 2.999992370605469 C 32.84120559692383 2.999992370605469 28.32336807250977 3.911758422851562 24.07196807861328 5.709945678710938 C 19.96409225463867 7.447418212890625 16.27420425415039 9.935409545898438 13.10481643676758 13.10479354858398 C 9.935432434082031 16.2741813659668 7.447441101074219 19.96405792236328 5.709953308105469 24.07191848754883 C 3.911766052246094 28.32331848144531 3.000007629394531 32.84114456176758 3.000007629394531 37.49993133544922 C 3.000007629394531 42.15870666503906 3.911766052246094 46.67654418945312 5.709953308105469 50.92793273925781 C 7.447441101074219 55.03580474853516 9.935432434082031 58.72568130493164 13.10481643676758 61.89505767822266 C 16.27420425415039 65.06444549560547 19.96409225463867 67.55242919921875 24.07196807861328 69.28990936279297 C 28.32336807250977 71.08809661865234 32.84120559692383 71.99985504150391 37.49999237060547 71.99985504150391 C 42.15877914428711 71.99985504150391 46.67661666870117 71.08809661865234 50.92801666259766 69.28990936279297 C 55.03589248657227 67.55242919921875 58.72578048706055 65.06444549560547 61.89516830444336 61.89505767822266 C 65.06455230712891 58.72568130493164 67.55254364013672 55.03580474853516 69.29003143310547 50.92793273925781 C 71.08821868896484 46.67654418945312 71.99997711181641 42.15870666503906 71.99997711181641 37.49993133544922 C 71.99997711181641 32.84114456176758 71.08821868896484 28.32331848144531 69.29003143310547 24.07191848754883 C 67.55254364013672 19.96405792236328 65.06455230712891 16.2741813659668 61.89516830444336 13.10479354858398 C 58.72578048706055 9.935409545898438 55.03589248657227 7.447418212890625 50.92801666259766 5.709945678710938 C 46.67661666870117 3.911758422851562 42.15877914428711 2.999992370605469 37.49999237060547 2.999992370605469 M 37.49999237060547 -7.62939453125e-06 C 58.21065521240234 -7.62939453125e-06 74.99997711181641 16.7892951965332 74.99997711181641 37.49993133544922 C 74.99997711181641 58.2105712890625 58.21065521240234 74.99985504150391 37.49999237060547 74.99985504150391 C 16.78932952880859 74.99985504150391 7.62939453125e-06 58.2105712890625 7.62939453125e-06 37.49993133544922 C 7.62939453125e-06 16.7892951965332 16.78932952880859 -7.62939453125e-06 37.49999237060547 -7.62939453125e-06 Z" stroke="none" fill="#896521"/>
                                        </g>
                                      </g>
                                    </g>
                                  </g>
                                </g>
                              </g>
                            </g>
                          </g>
                        </g>
                      </g>
                    </g>
                  </g>
                </g>
              </g>
            </g>
          </g>
        </g>
      </g>
    </g>
    <g id="agile_3463031_1_" data-name="agile_3463031 (1)" transform="translate(1053.996 2754.996)">
      <g id="Grupo_1209336" data-name="Grupo 1209336" transform="translate(8.55 1.839)">
        <g id="Grupo_1209327" data-name="Grupo 1209327" transform="translate(13.421)">
          <path id="Trazado_1049811" data-name="Trazado 1049811" d="M33.55,2a2.513,2.513,0,0,1,2.517,2.517.841.841,0,0,1-.839.839H26.839A.841.841,0,0,1,26,4.517,2.52,2.52,0,0,1,28.517,2Z" transform="translate(-26 -2)" fill="#fcd770"/>
        </g>
        <g id="Grupo_1209328" data-name="Grupo 1209328" transform="translate(16.777 3.355)">
          <path id="Trazado_1049812" data-name="Trazado 1049812" d="M33.355,6V9.431c-.554-.05-1.107-.075-1.678-.075s-1.124.025-1.678.075V6Z" transform="translate(-30 -6)" fill="#aab2bd"/>
        </g>
        <g id="Grupo_1209329" data-name="Grupo 1209329" transform="translate(3.355 10.066)">
          <circle id="Elipse_12569" data-name="Elipse 12569" cx="15" cy="15" r="15" transform="translate(0.099 0.099)" fill="#69d6f4"/>
        </g>
        <g id="Grupo_1209330" data-name="Grupo 1209330" transform="translate(0 6.711)">
          <path id="Trazado_1049813" data-name="Trazado 1049813" d="M34.93,45.735a18.455,18.455,0,1,1-8.154-35.659c.554-.05,1.107-.075,1.678-.075s1.124.025,1.678.075a18.453,18.453,0,0,1,15.6,24.855.9.9,0,0,1-.109-.243,1.748,1.748,0,0,0-1.653-1.2h-.839a1.554,1.554,0,0,0-.487.075,14.94,14.94,0,0,0,.906-5.109,15.1,15.1,0,1,0-15.1,15.1,14.94,14.94,0,0,0,5.109-.906,1.554,1.554,0,0,0-.075.487v.839a1.748,1.748,0,0,0,1.2,1.653.9.9,0,0,1,.243.109Z" transform="translate(-10 -10)" fill="#ccd1d9"/>
        </g>
        <g id="Grupo_1209331" data-name="Grupo 1209331" transform="translate(23.488 20.132)">
          <path id="Trazado_1049814" data-name="Trazado 1049814" d="M41.355,26V38.625a.578.578,0,0,0-.109.092l-.6.6a.578.578,0,0,0-.092.109H38V26Z" transform="translate(-38 -26)" fill="#ff826e"/>
        </g>
        <g id="Grupo_1209332" data-name="Grupo 1209332" transform="translate(16.777 16.777)">
          <path id="Trazado_1049815" data-name="Trazado 1049815" d="M30,22h3.355V38.777H30Z" transform="translate(-30 -22)" fill="#ff826e"/>
        </g>
        <g id="Grupo_1209333" data-name="Grupo 1209333" transform="translate(10.066 25.165)">
          <path id="Trazado_1049816" data-name="Trazado 1049816" d="M22,32h3.355v8.388H22Z" transform="translate(-22 -32)" fill="#ff826e"/>
        </g>
        <g id="Grupo_1209334" data-name="Grupo 1209334" transform="translate(23.488 30.198)">
          <path id="Trazado_1049817" data-name="Trazado 1049817" d="M48.486,38a1.748,1.748,0,0,1,1.653,1.2.9.9,0,0,0,.109.243,1.641,1.641,0,0,0,.881.814l.3.126a1.643,1.643,0,0,0,.663.134,1.694,1.694,0,0,0,.78-.185,1.732,1.732,0,0,1,2.013.319l.6.6a1.736,1.736,0,0,1,.512,1.225,1.764,1.764,0,0,1-.193.789,1.7,1.7,0,0,0-.05,1.443l.126.3a1.716,1.716,0,0,0,1.057.99,1.748,1.748,0,0,1,1.2,1.653v.839a1.748,1.748,0,0,1-1.2,1.653,1.716,1.716,0,0,0-1.057.99l-.126.3a1.643,1.643,0,0,0-.134.663,1.694,1.694,0,0,0,.185.78,1.732,1.732,0,0,1-.319,2.013l-.6.6a1.736,1.736,0,0,1-1.225.512,1.764,1.764,0,0,1-.789-.193,1.7,1.7,0,0,0-1.443-.05l-.3.126a1.716,1.716,0,0,0-.99,1.057,1.748,1.748,0,0,1-1.653,1.2h-.839a1.748,1.748,0,0,1-1.653-1.2A1.716,1.716,0,0,0,45,55.876l-.3-.126a1.643,1.643,0,0,0-.663-.134,1.694,1.694,0,0,0-.78.185,1.732,1.732,0,0,1-2.013-.319l-.6-.6a1.736,1.736,0,0,1-.512-1.225,1.764,1.764,0,0,1,.193-.789,1.7,1.7,0,0,0,.05-1.443l-.126-.3a1.641,1.641,0,0,0-.814-.881.9.9,0,0,0-.243-.109A1.748,1.748,0,0,1,38,48.486v-.839a1.554,1.554,0,0,1,.075-.487A1.754,1.754,0,0,1,39.2,45.994,1.716,1.716,0,0,0,40.256,45l.126-.3a1.643,1.643,0,0,0,.134-.663,1.694,1.694,0,0,0-.185-.78,1.719,1.719,0,0,1,.226-1.9.578.578,0,0,1,.092-.109l.6-.6a.578.578,0,0,1,.109-.092,1.7,1.7,0,0,1,1.116-.419,1.764,1.764,0,0,1,.789.193,1.7,1.7,0,0,0,1.443.05l.3-.126a1.716,1.716,0,0,0,.99-1.057,1.754,1.754,0,0,1,1.166-1.124A1.554,1.554,0,0,1,47.647,38ZM53.1,48.066A5.033,5.033,0,1,0,48.066,53.1,5.037,5.037,0,0,0,53.1,48.066Z" transform="translate(-38 -38)" fill="#ffc729"/>
        </g>
        <g id="Grupo_1209335" data-name="Grupo 1209335" transform="translate(28.521 35.231)">
          <path id="Trazado_1049818" data-name="Trazado 1049818" d="M49.033,44A5.033,5.033,0,1,1,44,49.033,5.037,5.037,0,0,1,49.033,44Zm1.678,5.033a1.678,1.678,0,1,0-1.678,1.678A1.683,1.683,0,0,0,50.711,49.033Z" transform="translate(-44 -44)" fill="#fcd770"/>
        </g>
      </g>
      <g id="Grupo_1209337" data-name="Grupo 1209337" transform="translate(1 1)">
        <path id="Trazado_1049819" data-name="Trazado 1049819" d="M48.872,43a5.872,5.872,0,1,0,5.872,5.872A5.878,5.878,0,0,0,48.872,43Zm0,10.066a4.194,4.194,0,1,1,4.194-4.194A4.2,4.2,0,0,1,48.872,53.066Z" transform="translate(-7.769 -7.769)"/>
        <path id="Trazado_1049820" data-name="Trazado 1049820" d="M49.517,47a2.517,2.517,0,1,0,2.517,2.517A2.52,2.52,0,0,0,49.517,47Zm0,3.355a.839.839,0,1,1,.839-.839A.84.84,0,0,1,49.517,50.355Z" transform="translate(-8.413 -8.413)"/>
        <path id="Trazado_1049821" data-name="Trazado 1049821" d="M57.942,29.116a22.979,22.979,0,0,1-.229,3.236l1.66.237a24.573,24.573,0,0,0,.247-3.474,24.178,24.178,0,0,0-3.1-11.889l2.833.942.529-1.592L52.437,14.1l1.446,2.073a22.5,22.5,0,0,1,4.059,12.941Z" transform="translate(-9.289 -3.111)"/>
        <path id="Trazado_1049822" data-name="Trazado 1049822" d="M2.685,43.873l7.447,2.475L8.686,44.274A22.507,22.507,0,0,1,4.627,31.333,22.98,22.98,0,0,1,4.856,28.1L3.2,27.859a24.573,24.573,0,0,0-.247,3.474,24.178,24.178,0,0,0,3.1,11.889L3.214,42.28Z" transform="translate(-1.272 -5.329)"/>
        <path id="Trazado_1049823" data-name="Trazado 1049823" d="M51.233,39.235a.86.86,0,0,1-.542-.5c-.043-.111-.087-.221-.135-.33a.864.864,0,0,1,.032-.732,2.573,2.573,0,0,0-.478-2.987L49.52,34.1a2.573,2.573,0,0,0-2.987-.478.859.859,0,0,1-.733.032c-.107-.047-.217-.091-.327-.135a.828.828,0,0,1-.258-.176A19.253,19.253,0,0,0,29.521,7.88V6.033H31.2a1.679,1.679,0,0,0,1.678-1.678A3.359,3.359,0,0,0,29.521,1H24.488a3.359,3.359,0,0,0-3.355,3.355A1.679,1.679,0,0,0,22.81,6.033h1.678V7.88A19.286,19.286,0,0,0,19.15,44.62H1V46.3H27a19.206,19.206,0,0,0,6.335-1.084.821.821,0,0,1,.176.256c.043.111.087.221.135.33a.864.864,0,0,1-.032.732,2.573,2.573,0,0,0,.478,2.987l.591.591a2.574,2.574,0,0,0,2.987.478.857.857,0,0,1,.733-.032c.108.047.218.092.327.135a.859.859,0,0,1,.5.544,2.577,2.577,0,0,0,2.451,1.773h.835a2.574,2.574,0,0,0,2.45-1.775.86.86,0,0,1,.5-.542c.111-.043.221-.087.33-.135a.861.861,0,0,1,.732.032,2.574,2.574,0,0,0,2.987-.478l.591-.591a2.573,2.573,0,0,0,.478-2.987.863.863,0,0,1-.032-.733c.047-.108.092-.218.135-.327a.859.859,0,0,1,.544-.5,2.577,2.577,0,0,0,1.773-2.451v-.835a2.574,2.574,0,0,0-1.775-2.45ZM24.488,2.678h5.033A1.681,1.681,0,0,1,31.2,4.355H22.81a1.679,1.679,0,0,1,1.678-1.678Zm1.678,3.355h1.678v1.7c-.278-.012-.558-.021-.839-.021s-.56.009-.839.021ZM9.388,27a17.616,17.616,0,1,1,34.606,4.659,2.569,2.569,0,0,0-1.473-.465h-.158A15.744,15.744,0,0,0,42.942,27,15.938,15.938,0,1,0,27,42.942a15.744,15.744,0,0,0,4.194-.579v.158a2.569,2.569,0,0,0,.465,1.473A17.62,17.62,0,0,1,9.388,27Zm24.23,10.671a.863.863,0,0,1,.032.733c-.047.108-.092.218-.135.327a.859.859,0,0,1-.544.5,2.572,2.572,0,0,0-1.495,1.283,14.1,14.1,0,0,1-15.326-4.287H33.363a2.564,2.564,0,0,0,.256,1.444ZM21.132,34.554H19.455V27.843h1.678Zm6.711,0H26.165v-15.1h1.678Zm6.711-.323-.323.323H32.876V22.81h1.678ZM31.2,21.132V34.554H29.521V17.777H24.488V34.554H22.81V26.165H17.777v8.388H14.928a14.274,14.274,0,1,1,25.591-3.077,2.58,2.58,0,0,0-1.284,1.5.858.858,0,0,1-.5.542c-.11.043-.219.087-.328.135a.861.861,0,0,1-.732-.032,2.571,2.571,0,0,0-1.444-.257V21.132ZM51.331,42.521a.9.9,0,0,1-.621.856,2.53,2.53,0,0,0-1.582,1.486c-.035.09-.072.18-.11.267a2.533,2.533,0,0,0,.073,2.158.9.9,0,0,1-.167,1.044l-.591.591a.9.9,0,0,1-1.044.167,2.531,2.531,0,0,0-2.157-.073q-.132.057-.269.111a2.533,2.533,0,0,0-1.486,1.583.9.9,0,0,1-.856.62h-.835a.9.9,0,0,1-.856-.621,2.53,2.53,0,0,0-1.486-1.582c-.09-.035-.18-.072-.267-.11a2.483,2.483,0,0,0-.995-.207,2.585,2.585,0,0,0-1.163.279.9.9,0,0,1-1.044-.167l-.591-.591a.9.9,0,0,1-.167-1.044,2.531,2.531,0,0,0,.073-2.157q-.057-.132-.111-.269A2.533,2.533,0,0,0,33.5,43.377a.9.9,0,0,1-.62-.856v-.835a.9.9,0,0,1,.62-.856,2.53,2.53,0,0,0,1.583-1.486c.035-.09.072-.18.11-.267a2.533,2.533,0,0,0-.073-2.158.9.9,0,0,1,.167-1.044l.591-.591a.9.9,0,0,1,1.044-.167,2.531,2.531,0,0,0,2.157.073c.089-.039.179-.075.268-.11A2.538,2.538,0,0,0,40.829,33.5a.9.9,0,0,1,.856-.621h.835a.9.9,0,0,1,.856.621,2.533,2.533,0,0,0,1.486,1.582c.09.035.18.072.268.11a2.536,2.536,0,0,0,2.158-.073.9.9,0,0,1,1.044.167l.591.591a.9.9,0,0,1,.167,1.044,2.531,2.531,0,0,0-.073,2.157q.057.132.111.269a2.533,2.533,0,0,0,1.583,1.486.9.9,0,0,1,.62.856Z" transform="translate(-1 -1)"/>
      </g>
    </g>
  </g>
</svg>
