<svg xmlns="http://www.w3.org/2000/svg" xmlns:xlink="http://www.w3.org/1999/xlink" width="113" height="113" viewBox="0 0 113 113">
  <defs>
    <filter id="Trazado_982547" x="0" y="0" width="113" height="113" filterUnits="userSpaceOnUse">
      <feOffset dy="3" input="SourceAlpha"/>
      <feGaussianBlur stdDeviation="3" result="blur"/>
      <feFlood flood-opacity="0.161"/>
      <feComposite operator="in" in2="blur"/>
      <feComposite in="SourceGraphic"/>
    </filter>
  </defs>
  <g id="Grupo_1209283" data-name="Grupo 1209283" transform="translate(-793.49 -893.608)">
    <g id="Grupo_1209031" data-name="Grupo 1209031" transform="translate(0 -2449.392)">
      <g id="Grupo_1208891" data-name="Grupo 1208891" transform="translate(0 -2284.425)">
        <g id="Grupo_1177675" data-name="Grupo 1177675" transform="translate(-4493 3707.152)">
          <g id="Grupo_1176928" data-name="Grupo 1176928" transform="translate(5295.49 1926.273)">
            <g id="Grupo_1172322" data-name="Grupo 1172322" transform="translate(0 0)">
              <g id="Grupo_1164700" data-name="Grupo 1164700">
                <g id="Grupo_1160931" data-name="Grupo 1160931">
                  <g id="Grupo_1160749" data-name="Grupo 1160749">
                    <g id="Grupo_1158891" data-name="Grupo 1158891">
                      <g id="Grupo_1157406" data-name="Grupo 1157406">
                        <g id="Grupo_1155793" data-name="Grupo 1155793">
                          <g id="Grupo_1154704" data-name="Grupo 1154704">
                            <g id="Grupo_1150790" data-name="Grupo 1150790">
                              <g id="Grupo_1154214" data-name="Grupo 1154214">
                                <g id="Grupo_1152583" data-name="Grupo 1152583">
                                  <g id="Grupo_1146973" data-name="Grupo 1146973">
                                    <g id="Grupo_1146954" data-name="Grupo 1146954">
                                      <g transform="matrix(1, 0, 0, 1, -9, -6)" filter="url(#Trazado_982547)">
                                        <g id="Trazado_982547-2" data-name="Trazado 982547" transform="translate(9 6)" fill="#fcebe9">
                                          <path d="M 47.5000114440918 93.49987030029297 C 41.28938293457031 93.49987030029297 35.26534652709961 92.28384399414062 29.5951976776123 89.88558959960938 C 24.11773109436035 87.56881713867188 19.19814491271973 84.25183868408203 14.97310447692871 80.02680206298828 C 10.74805164337158 75.80176544189453 7.43107795715332 70.88218688964844 5.114304542541504 65.40472412109375 C 2.716038227081299 59.73458862304688 1.500011444091797 53.71054840087891 1.500011444091797 47.49993515014648 C 1.500011444091797 41.28932189941406 2.716038227081299 35.26528167724609 5.114304542541504 29.59514808654785 C 7.43107795715332 24.1176815032959 10.74805164337158 19.1981086730957 14.97310447692871 14.97306823730469 C 19.19814491271973 10.74802875518799 24.11773109436035 7.431055068969727 29.5951976776123 5.11428165435791 C 35.26534652709961 2.716028451919556 41.28938293457031 1.500001788139343 47.5000114440918 1.500001788139343 C 53.71063995361328 1.500001788139343 59.73467636108398 2.716028451919556 65.40482330322266 5.11428165435791 C 70.88229370117188 7.431055068969727 75.8018798828125 10.74802875518799 80.02691650390625 14.97306823730469 C 84.25196838378906 19.1981086730957 87.56894683837891 24.1176815032959 89.88571929931641 29.59514808654785 C 92.28398132324219 35.26528167724609 93.50001525878906 41.28932189941406 93.50001525878906 47.49993515014648 C 93.50001525878906 53.71054840087891 92.28398132324219 59.73458862304688 89.88571929931641 65.40472412109375 C 87.56894683837891 70.88218688964844 84.25196838378906 75.80176544189453 80.02691650390625 80.02680206298828 C 75.8018798828125 84.25183868408203 70.88229370117188 87.56881713867188 65.40482330322266 89.88558959960938 C 59.73467636108398 92.28384399414062 53.71063995361328 93.49987030029297 47.5000114440918 93.49987030029297 Z" stroke="none"/>
                                          <path d="M 47.5000114440918 3 C 41.49122619628906 3 35.66378021240234 4.1761474609375 30.17951965332031 6.495796203613281 C 24.880859375 8.7369384765625 20.12153625488281 11.94596862792969 16.03376770019531 16.03373718261719 C 11.94598388671875 20.12149047851562 8.736968994140625 24.88081359863281 6.495811462402344 30.17947387695312 C 4.176162719726562 35.66371917724609 3.000007629394531 41.49116516113281 3.000007629394531 47.49993515014648 C 3.000007629394531 53.50870513916016 4.176162719726562 59.33615112304688 6.495811462402344 64.82039642333984 C 8.736968994140625 70.11905670166016 11.94598388671875 74.87837982177734 16.03376770019531 78.96613311767578 C 20.12153625488281 83.05390167236328 24.880859375 86.26293182373047 30.17951965332031 88.50407409667969 C 35.66378021240234 90.82372283935547 41.49122619628906 91.99987030029297 47.5000114440918 91.99987030029297 C 53.50879669189453 91.99987030029297 59.33624267578125 90.82372283935547 64.82050323486328 88.50407409667969 C 70.11916351318359 86.26293182373047 74.87848663330078 83.05390167236328 78.96625518798828 78.96613311767578 C 83.05403900146484 74.87837982177734 86.2630615234375 70.11905670166016 88.50421142578125 64.82039642333984 C 90.82386016845703 59.33615112304688 92.00001525878906 53.50870513916016 92.00001525878906 47.49993515014648 C 92.00001525878906 41.49116516113281 90.82386016845703 35.66371917724609 88.50421142578125 30.17947387695312 C 86.2630615234375 24.88081359863281 83.05403900146484 20.12149047851562 78.96625518798828 16.03373718261719 C 74.87848663330078 11.94596862792969 70.11916351318359 8.7369384765625 64.82050323486328 6.495796203613281 C 59.33624267578125 4.1761474609375 53.50879669189453 3 47.5000114440918 3 M 47.5000114440918 0 C 73.73353576660156 0 95.00001525878906 21.26644134521484 95.00001525878906 47.49993515014648 C 95.00001525878906 73.73342895507812 73.73353576660156 94.99987030029297 47.5000114440918 94.99987030029297 C 21.26648712158203 94.99987030029297 7.62939453125e-06 73.73342895507812 7.62939453125e-06 47.49993515014648 C 7.62939453125e-06 21.26644134521484 21.26648712158203 0 47.5000114440918 0 Z" stroke="none" fill="#e44b36"/>
                                        </g>
                                      </g>
                                    </g>
                                  </g>
                                </g>
                              </g>
                            </g>
                          </g>
                        </g>
                      </g>
                    </g>
                  </g>
                </g>
              </g>
            </g>
          </g>
        </g>
      </g>
    </g>
    <g id="marketing_6331440" transform="translate(817 917)">
      <path id="Trazado_1049498" data-name="Trazado 1049498" d="M51,2H16a6,6,0,0,0-6,6V52a8,8,0,0,1,8-8H54V5A3,3,0,0,0,51,2Z" fill="#f5b64f"/>
      <path id="Trazado_1049499" data-name="Trazado 1049499" d="M51,2H16a6,6,0,0,0-6,6V52a8,8,0,0,1,8-8H51Z" fill="#f7c572"/>
      <path id="Trazado_1049500" data-name="Trazado 1049500" d="M24,6H50V32H24Z" fill="#d5dcf8"/>
      <path id="Trazado_1049501" data-name="Trazado 1049501" d="M24,6H47V32H24Z" fill="#ebf0fd"/>
      <path id="Trazado_1049502" data-name="Trazado 1049502" d="M18,48H52v8H18a4,4,0,0,1,0-8Z" fill="#d5dcf8"/>
      <path id="Trazado_1049503" data-name="Trazado 1049503" d="M18,48a4,4,0,0,0,0,8H49V48Z" fill="#ebf0fd"/>
      <path id="Trazado_1049504" data-name="Trazado 1049504" d="M54,56H18a4,4,0,0,1,0-8H54V44H18a8,8,0,0,0,0,16H54Z" fill="#f09737"/>
      <path id="Trazado_1049505" data-name="Trazado 1049505" d="M18,56H16a4,4,0,0,1,0-8H51V44H18a8,8,0,0,0,0,16H51V56Z" fill="#f5b64f"/>
      <path id="Trazado_1049506" data-name="Trazado 1049506" d="M40,52V62l4-4,4,4V52Z" fill="#ea525b"/>
      <path id="Trazado_1049507" data-name="Trazado 1049507" d="M40,52V62l4-4,2,2V52Z" fill="#ee757c"/>
      <path id="Trazado_1049508" data-name="Trazado 1049508" d="M33.336,20.5,33,20H31v6h4A9.907,9.907,0,0,0,33.336,20.5Z" fill="#fff"/>
      <path id="Trazado_1049509" data-name="Trazado 1049509" d="M34,20V14l6-2V22Z" fill="#fff"/>
      <path id="Trazado_1049510" data-name="Trazado 1049510" d="M31,14a3,3,0,0,0,0,6h3V14Z" fill="#ea525b"/>
      <path id="Trazado_1049511" data-name="Trazado 1049511" d="M54,49a1,1,0,0,0,1-1V5a4,4,0,0,0-4-4H16A7.008,7.008,0,0,0,9,8V52a9.011,9.011,0,0,0,9,9H39v1a1,1,0,0,0,1.707.707L44,59.414l3.293,3.293A1,1,0,0,0,49,62V61h5a1,1,0,0,0,1-1V56a1,1,0,0,0-1-1H53V49ZM53,5V43H21V3H51A2,2,0,0,1,53,5ZM11,8a5.006,5.006,0,0,1,5-5h3V43H18a8.983,8.983,0,0,0-7,3.356Zm7,51a7,7,0,0,1,0-14H53v2H18a5,5,0,0,0,0,10H39v2Zm-2.816-6H39v2H18a3,3,0,0,1-2.816-2Zm29.523,4.293a1,1,0,0,0-1.414,0L41,59.586V53h6v6.586ZM53,59H49V57h4Zm-4-4V53h2v2Zm2-4H15.184A3,3,0,0,1,18,49H51Z"/>
      <path id="Trazado_1049512" data-name="Trazado 1049512" d="M24,33H50a1,1,0,0,0,1-1V6a1,1,0,0,0-1-1H24a1,1,0,0,0-1,1V32A1,1,0,0,0,24,33ZM25,7H49V31H25Z"/>
      <path id="Trazado_1049513" data-name="Trazado 1049513" d="M29,35H45v2H29Z"/>
      <path id="Trazado_1049514" data-name="Trazado 1049514" d="M23,39H47v2H23Z"/>
      <path id="Trazado_1049515" data-name="Trazado 1049515" d="M49,39h2v2H49Z"/>
      <path id="Trazado_1049516" data-name="Trazado 1049516" d="M40.584,11.189a1,1,0,0,0-.9-.138L33.838,13H31a3.992,3.992,0,0,0-1,7.858V26a1,1,0,0,0,1,1h4a1,1,0,0,0,1-1,10.874,10.874,0,0,0-1.028-4.622l4.712,1.571A1.01,1.01,0,0,0,40,23a1,1,0,0,0,1-1V12a1,1,0,0,0-.416-.811ZM29,17a2,2,0,0,1,2-2h2v4H31A2,2,0,0,1,29,17Zm3,8V21h.465l.039.059A8.873,8.873,0,0,1,33.944,25Zm7-4.387-4-1.334V14.721l4-1.334Z"/>
      <path id="Trazado_1049517" data-name="Trazado 1049517" d="M44,16h3v2H44Z"/>
      <path id="Trazado_1049518" data-name="Trazado 1049518" d="M42.586,12h2.828v2H42.586Z" transform="translate(3.695 34.92) rotate(-45)"/>
      <path id="Trazado_1049519" data-name="Trazado 1049519" d="M43,19.586h2v2.828H43Z" transform="translate(-1.962 37.263) rotate(-45)"/>
    </g>
  </g>
</svg>
