<svg xmlns="http://www.w3.org/2000/svg" xmlns:xlink="http://www.w3.org/1999/xlink" width="110" height="110" viewBox="0 0 110 110">
  <defs>
    <filter id="Trazado_982547" x="0" y="0" width="110" height="110" filterUnits="userSpaceOnUse">
      <feOffset dy="3" input="SourceAlpha"/>
      <feGaussianBlur stdDeviation="3" result="blur"/>
      <feFlood flood-opacity="0.161"/>
      <feComposite operator="in" in2="blur"/>
      <feComposite in="SourceGraphic"/>
    </filter>
  </defs>
  <g id="Grupo_1209357" data-name="Grupo 1209357" transform="translate(-273 -1558.548)">
    <g id="Grupo_1209258" data-name="Grupo 1209258" transform="translate(0.81 -2394.179)">
      <g id="Grupo_1166442" data-name="Grupo 1166442" transform="translate(-525 1993.205)">
        <g id="Grupo_1164703" data-name="Grupo 1164703" transform="translate(806.19 1965.523)">
          <g id="Grupo_1160931" data-name="Grupo 1160931" transform="translate(0)">
            <g id="Grupo_1160749" data-name="Grupo 1160749" transform="translate(0)">
              <g id="Grupo_1158891" data-name="Grupo 1158891" transform="translate(0 0)">
                <g id="Grupo_1157406" data-name="Grupo 1157406" transform="translate(0)">
                  <g id="Grupo_1155793" data-name="Grupo 1155793" transform="translate(0)">
                    <g id="Grupo_1154704" data-name="Grupo 1154704" transform="translate(0)">
                      <g id="Grupo_1150790" data-name="Grupo 1150790" transform="translate(0)">
                        <g id="Grupo_1154214" data-name="Grupo 1154214" transform="translate(0)">
                          <g id="Grupo_1152583" data-name="Grupo 1152583" transform="translate(0 0)">
                            <g id="Grupo_1146973" data-name="Grupo 1146973" transform="translate(0 0)">
                              <g id="Grupo_1146954" data-name="Grupo 1146954">
                                <g transform="matrix(1, 0, 0, 1, -9, -6)" filter="url(#Trazado_982547)">
                                  <g id="Trazado_982547-2" data-name="Trazado 982547" transform="translate(9 6)" fill="#fef7ea">
                                    <path d="M 46.00000381469727 90.49988555908203 C 39.99188232421875 90.49988555908203 34.16427230834961 89.32352447509766 28.67905807495117 87.00347137451172 C 23.38020324707031 84.76226043701172 18.62104415893555 81.55342864990234 14.53375053405762 77.46615600585938 C 10.44647026062012 73.37887573242188 7.237643718719482 68.61971282958984 4.996417045593262 63.32085800170898 C 2.676363706588745 57.83565902709961 1.500003814697266 52.00806045532227 1.500003814697266 45.99993896484375 C 1.500003814697266 39.99181747436523 2.676363706588745 34.16421890258789 4.996417045593262 28.67901802062988 C 7.237643718719482 23.38017845153809 10.44647026062012 18.62101936340332 14.53375053405762 14.53373908996582 C 18.62104415893555 10.44645881652832 23.38020324707031 7.237632274627686 28.67905807495117 4.996418952941895 C 34.16427230834961 2.676365613937378 39.99188232421875 1.500005602836609 46.00000381469727 1.500005602836609 C 52.00812530517578 1.500005602836609 57.83573532104492 2.676365613937378 63.32094955444336 4.996418952941895 C 68.61980438232422 7.237632274627686 73.37897491455078 10.44645881652832 77.46625518798828 14.53373908996582 C 81.55355072021484 18.62101936340332 84.76236724853516 23.38017845153809 87.00359344482422 28.67901802062988 C 89.32364654541016 34.16421890258789 90.5 39.99181747436523 90.5 45.99993896484375 C 90.5 52.00806045532227 89.32364654541016 57.83565902709961 87.00359344482422 63.32085800170898 C 84.76236724853516 68.61971282958984 81.55355072021484 73.37887573242188 77.46625518798828 77.46615600585938 C 73.37897491455078 81.55342864990234 68.61980438232422 84.76226043701172 63.32094955444336 87.00347137451172 C 57.83573532104492 89.32352447509766 52.00812530517578 90.49988555908203 46.00000381469727 90.49988555908203 Z" stroke="none"/>
                                    <path d="M 46.00000381469727 2.999992370605469 C 40.19371795654297 2.999992370605469 34.56270217895508 4.136497497558594 29.26338958740234 6.377906799316406 C 24.14333343505859 8.543510437011719 19.54441833496094 11.64437866210938 15.59440612792969 15.59439849853516 C 11.64440155029297 19.54439544677734 8.54351806640625 24.14329528808594 6.377914428710938 29.26335144042969 C 4.136505126953125 34.56266784667969 3.000007629394531 40.19366836547852 3.000007629394531 45.99993896484375 C 3.000007629394531 51.80620956420898 4.136505126953125 57.43722534179688 6.377914428710938 62.73654174804688 C 8.54351806640625 67.85658264160156 11.64440155029297 72.45548248291016 15.59440612792969 76.40549468994141 C 19.54441833496094 80.35549926757812 24.14333343505859 83.45636749267578 29.26337432861328 85.62196350097656 C 34.56270217895508 87.86338043212891 40.19371795654297 88.9998779296875 46.00000381469727 88.9998779296875 C 51.80628967285156 88.9998779296875 57.43730545043945 87.86338043212891 62.73663330078125 85.62196350097656 C 67.85667419433594 83.45636749267578 72.45558929443359 80.35549926757812 76.40560150146484 76.40549468994141 C 80.35560607910156 72.45548248291016 83.45648956298828 67.85658264160156 85.62208557128906 62.73654174804688 C 87.86350250244141 57.43722534179688 89 51.80620956420898 89 45.99993896484375 C 89 40.19366836547852 87.86350250244141 34.56266784667969 85.62208557128906 29.26335144042969 C 83.45648956298828 24.14329528808594 80.35560607910156 19.54439544677734 76.40560150146484 15.59439849853516 C 72.45558929443359 11.64437866210938 67.85667419433594 8.543510437011719 62.73661804199219 6.377906799316406 C 57.43730545043945 4.136497497558594 51.80628967285156 2.999992370605469 46.00000381469727 2.999992370605469 M 46.00000381469727 -7.62939453125e-06 C 71.40510559082031 -7.62939453125e-06 92 20.59487915039062 92 45.99993896484375 C 92 71.40501403808594 71.40510559082031 91.99988555908203 46.00000381469727 91.99988555908203 C 20.59490203857422 91.99988555908203 7.62939453125e-06 71.40501403808594 7.62939453125e-06 45.99993896484375 C 7.62939453125e-06 20.59487915039062 20.59490203857422 -7.62939453125e-06 46.00000381469727 -7.62939453125e-06 Z" stroke="none" fill="#fcba3d"/>
                                  </g>
                                </g>
                              </g>
                            </g>
                          </g>
                        </g>
                      </g>
                    </g>
                  </g>
                </g>
              </g>
            </g>
          </g>
        </g>
      </g>
    </g>
    <g id="discover_1350690" transform="translate(298.21 1581.258)">
      <path id="Trazado_1050008" data-name="Trazado 1050008" d="M44.959,40.332l-5.284-5.284a17.617,17.617,0,1,0-4.627,4.627l5.284,5.284Zm0,0" transform="translate(-6.642 -6.642)" fill="#c6c5ca"/>
      <path id="Trazado_1050009" data-name="Trazado 1050009" d="M111.422,69.543A11.879,11.879,0,1,1,99.543,57.664,11.879,11.879,0,0,1,111.422,69.543Zm0,0" transform="translate(-77.634 -51.066)" fill="#898890"/>
      <path id="Trazado_1050010" data-name="Trazado 1050010" d="M81.422,69.543A11.879,11.879,0,1,1,69.543,57.664,11.879,11.879,0,0,1,81.422,69.543Zm0,0" transform="translate(-51.066 -51.066)" fill="#b3d8f4"/>
      <path id="Trazado_1050011" data-name="Trazado 1050011" d="M162.691,86.328h4.3v9.423h-4.3Zm0,0" transform="translate(-144.077 -76.451)" fill="#57a4ff"/>
      <path id="Trazado_1050012" data-name="Trazado 1050012" d="M162.691,199.641h4.3v4.3h-4.3Zm0,0" transform="translate(-144.077 -176.799)" fill="#57a4ff"/>
      <path id="Trazado_1050013" data-name="Trazado 1050013" d="M283.09,290.324l7.226-7.226,17.75,17.75-7.226,7.226Zm0,0" transform="translate(-250.7 -250.707)" fill="#787680"/>
      <path id="Trazado_1050014" data-name="Trazado 1050014" d="M98.027,73.5H115.26v34.534L104.707,97.48l-1.3,1.3L98.123,93.5a17.622,17.622,0,0,0-.1-20Zm-.547,31.207,3.613-3.613-2.313,2.313L93.5,98.123a17.622,17.622,0,0,1-20-.1V115.26h34.534Zm0,0" transform="translate(-65.09 -65.09)" fill="#57a4ff"/>
      <path id="Trazado_1050015" data-name="Trazado 1050015" d="M142.691,86.328h4.3v9.423h-4.3Zm0,0" transform="translate(-126.365 -76.451)" fill="#ff7956"/>
      <path id="Trazado_1050016" data-name="Trazado 1050016" d="M142.691,199.641h4.3v4.3h-4.3Zm0,0" transform="translate(-126.365 -176.799)" fill="#ff7956"/>
      <path id="Trazado_1050017" data-name="Trazado 1050017" d="M10.932,25.118a17.621,17.621,0,0,1,15.9-17.536Q25.988,7.5,25.119,7.5a17.619,17.619,0,1,0,0,35.238q.869,0,1.716-.083a17.621,17.621,0,0,1-15.9-17.536Zm0,0" transform="translate(-6.642 -6.641)" fill="#898890"/>
      <path id="Trazado_1050018" data-name="Trazado 1050018" d="M261.5,288.711a17.675,17.675,0,0,1-2.167,1.265l4.019,4.019,1.716-1.716Zm0,0" transform="translate(-229.66 -255.678)" fill="#898890"/>
      <path id="Trazado_1050019" data-name="Trazado 1050019" d="M61.1,69.543A11.882,11.882,0,0,1,71.26,57.787a11.879,11.879,0,1,0,0,23.512A11.882,11.882,0,0,1,61.1,69.543Zm0,0" transform="translate(-51.066 -51.066)" fill="#57a4ff"/>
      <path id="Trazado_1050020" data-name="Trazado 1050020" d="M286.526,290.32l5.51-5.51-1.716-1.716-7.226,7.226,17.751,17.75,1.716-1.716Zm0,0" transform="translate(-250.704 -250.704)" fill="#57565c"/>
      <path id="Trazado_1050021" data-name="Trazado 1050021" d="M178.208,291.774a17.544,17.544,0,0,0,7.762-1.8l-1.265-1.265a17.518,17.518,0,0,1-8.213,2.981Q177.339,291.773,178.208,291.774Zm0,0" transform="translate(-156.299 -255.678)" fill="#006df0"/>
      <path id="Trazado_1050022" data-name="Trazado 1050022" d="M297.983,97.481l-1.3,1.3L291.4,93.5a17.622,17.622,0,0,0-.1-20h-3.432a17.622,17.622,0,0,1,.1,20l5.284,5.284,1.3-1.3L305.1,108.034V104.6Zm0,0" transform="translate(-254.934 -65.091)" fill="#006df0"/>
      <path id="Trazado_1050023" data-name="Trazado 1050023" d="M73.5,287.87V305.1h3.432V289.737A17.614,17.614,0,0,1,73.5,287.87Zm0,0" transform="translate(-65.09 -254.934)" fill="#006df0"/>
      <path id="Trazado_1050024" data-name="Trazado 1050024" d="M142.691,86.328h2.288v9.423h-2.288Zm0,0" transform="translate(-126.365 -76.451)" fill="#ff3f62"/>
      <path id="Trazado_1050025" data-name="Trazado 1050025" d="M142.691,199.641h2.288v4.3h-2.288Zm0,0" transform="translate(-126.365 -176.799)" fill="#ff3f62"/>
      <path id="Trazado_1050026" data-name="Trazado 1050026" d="M62.9,50.168A12.737,12.737,0,1,0,75.639,62.905,12.752,12.752,0,0,0,62.9,50.168Zm0,23.758A11.021,11.021,0,1,1,73.922,62.905,11.033,11.033,0,0,1,62.9,73.926Zm0,0" transform="translate(-44.424 -44.428)"/>
      <path id="Trazado_1050027" data-name="Trazado 1050027" d="M280.928,272.488l-8.44,8.44,18.964,18.964,8.439-8.439Zm-3.288,11.165,2.852-2.852-1.213-1.213-2.852,2.852-1.512-1.512,6.013-6.013,16.537,16.537-6.013,6.013Zm0,0" transform="translate(-241.312 -241.311)"/>
      <path id="Trazado_1050028" data-name="Trazado 1050028" d="M135.191,89.968h6.018V78.829h-6.018Zm1.716-9.424h2.586v7.707h-2.586Zm0,0" transform="translate(-119.723 -69.809)"/>
      <path id="Trazado_1050029" data-name="Trazado 1050029" d="M135.191,198.158h6.018V192.14h-6.018Zm1.716-4.3h2.586v2.586h-2.586Zm0,0" transform="translate(-119.723 -170.156)"/>
      <path id="Trazado_1050030" data-name="Trazado 1050030" d="M67.716,311.551H66v15.382H98.532v-1.716H67.716Zm0,0" transform="translate(-58.449 -275.905)"/>
      <path id="Trazado_1050031" data-name="Trazado 1050031" d="M325.217,98.532h1.716V66H311.551v1.716h13.666Zm0,0" transform="translate(-275.905 -58.448)"/>
      <path id="Trazado_1050032" data-name="Trazado 1050032" d="M28.293,34.133l3.172,3.172,1.213-1.213-2.954-2.955a18.621,18.621,0,0,0,2.016-1.8l-1.232-1.195a16.909,16.909,0,0,1-2.586,2.179h0a16.758,16.758,0,1,1,4.4-4.4l-.4.588,4.169,4.169,1.213-1.213-3.172-3.172a18.471,18.471,0,1,0-5.84,5.84Zm0,0" transform="translate(0)"/>
      <g id="Grupo_1209356" data-name="Grupo 1209356" transform="translate(18.477 2.861)">
        <path id="Trazado_1050033" data-name="Trazado 1050033" d="M175.392,40.616a13.865,13.865,0,0,0-8.648-12.87l.651-1.588a15.634,15.634,0,0,1,9.713,14.458Zm-9.66-13.239a13.821,13.821,0,0,0-1.564-.4l.33-1.684a15.479,15.479,0,0,1,1.759.453Zm-2.628-.568a14.04,14.04,0,0,0-1.613-.093V25a15.768,15.768,0,0,1,1.81.1Zm0,0" transform="translate(-161.492 -25)" fill="#fff"/>
        <path id="Trazado_1050034" data-name="Trazado 1050034" d="M213.139,114.417l-1.213-1.213a8.137,8.137,0,0,0,2.294-7l1.7-.256A9.845,9.845,0,0,1,213.139,114.417Zm.861-9.224a8.106,8.106,0,0,0-.563-1.444l1.532-.773a9.848,9.848,0,0,1,.682,1.749Zm-1.086-2.335a8.185,8.185,0,0,0-.989-1.2l1.213-1.213a9.92,9.92,0,0,1,1.2,1.446Zm0,0" transform="translate(-206.155 -91.817)" fill="#fff"/>
        <path id="Trazado_1050035" data-name="Trazado 1050035" d="M373.957,347.365l-7.568-7.567,1.213-1.213,7.568,7.567Zm-8.377-8.376-1.213-1.213,1.213-1.213,1.213,1.213Zm-2.022-2.023-1.213-1.213,1.213-1.213,1.213,1.213Zm0,0" transform="translate(-339.363 -299.124)" fill="#fff"/>
        <path id="Trazado_1050036" data-name="Trazado 1050036" d="M339.6,111.06h-1.716V92.716h-3.078V91H339.6Zm-5.939-18.344h-1.716V91h1.716Zm-2.86,0h-1.716V91H330.8Zm0,0" transform="translate(-309.91 -83.449)" fill="#fff"/>
      </g>
    </g>
  </g>
</svg>
