<svg xmlns="http://www.w3.org/2000/svg" xmlns:xlink="http://www.w3.org/1999/xlink" width="110" height="110" viewBox="0 0 110 110">
  <defs>
    <filter id="Trazado_982547" x="0" y="0" width="110" height="110" filterUnits="userSpaceOnUse">
      <feOffset dy="3" input="SourceAlpha"/>
      <feGaussianBlur stdDeviation="3" result="blur"/>
      <feFlood flood-opacity="0.161"/>
      <feComposite operator="in" in2="blur"/>
      <feComposite in="SourceGraphic"/>
    </filter>
  </defs>
  <g id="Grupo_1209359" data-name="Grupo 1209359" transform="translate(-588 -1559.025)">
    <g id="Grupo_1209259" data-name="Grupo 1209259" transform="translate(1 -2394.179)">
      <g id="Grupo_1166443" data-name="Grupo 1166443" transform="translate(-525 1993.205)">
        <g id="Grupo_1164700" data-name="Grupo 1164700" transform="translate(1121 1966)">
          <g id="Grupo_1160931" data-name="Grupo 1160931" transform="translate(0)">
            <g id="Grupo_1160749" data-name="Grupo 1160749" transform="translate(0)">
              <g id="Grupo_1158891" data-name="Grupo 1158891" transform="translate(0 0)">
                <g id="Grupo_1157406" data-name="Grupo 1157406" transform="translate(0)">
                  <g id="Grupo_1155793" data-name="Grupo 1155793" transform="translate(0)">
                    <g id="Grupo_1154704" data-name="Grupo 1154704" transform="translate(0)">
                      <g id="Grupo_1150790" data-name="Grupo 1150790" transform="translate(0)">
                        <g id="Grupo_1154214" data-name="Grupo 1154214" transform="translate(0)">
                          <g id="Grupo_1152583" data-name="Grupo 1152583" transform="translate(0 0)">
                            <g id="Grupo_1146973" data-name="Grupo 1146973" transform="translate(0 0)">
                              <g id="Grupo_1146954" data-name="Grupo 1146954">
                                <g transform="matrix(1, 0, 0, 1, -9, -6)" filter="url(#Trazado_982547)">
                                  <g id="Trazado_982547-2" data-name="Trazado 982547" transform="translate(9 6)" fill="#fef7ea">
                                    <path d="M 46.00000381469727 90.49988555908203 C 39.99188232421875 90.49988555908203 34.16427230834961 89.32352447509766 28.67905807495117 87.00347137451172 C 23.38020324707031 84.76226043701172 18.62104415893555 81.55342864990234 14.53375053405762 77.46615600585938 C 10.44647026062012 73.37887573242188 7.237643718719482 68.61971282958984 4.996417045593262 63.32085800170898 C 2.676363706588745 57.83565902709961 1.500003814697266 52.00806045532227 1.500003814697266 45.99993896484375 C 1.500003814697266 39.99181747436523 2.676363706588745 34.16421890258789 4.996417045593262 28.67901802062988 C 7.237643718719482 23.38017845153809 10.44647026062012 18.62101936340332 14.53375053405762 14.53373908996582 C 18.62104415893555 10.44645881652832 23.38020324707031 7.237632274627686 28.67905807495117 4.996418952941895 C 34.16427230834961 2.676365613937378 39.99188232421875 1.500005602836609 46.00000381469727 1.500005602836609 C 52.00812530517578 1.500005602836609 57.83573532104492 2.676365613937378 63.32094955444336 4.996418952941895 C 68.61980438232422 7.237632274627686 73.37897491455078 10.44645881652832 77.46625518798828 14.53373908996582 C 81.55355072021484 18.62101936340332 84.76236724853516 23.38017845153809 87.00359344482422 28.67901802062988 C 89.32364654541016 34.16421890258789 90.5 39.99181747436523 90.5 45.99993896484375 C 90.5 52.00806045532227 89.32364654541016 57.83565902709961 87.00359344482422 63.32085800170898 C 84.76236724853516 68.61971282958984 81.55355072021484 73.37887573242188 77.46625518798828 77.46615600585938 C 73.37897491455078 81.55342864990234 68.61980438232422 84.76226043701172 63.32094955444336 87.00347137451172 C 57.83573532104492 89.32352447509766 52.00812530517578 90.49988555908203 46.00000381469727 90.49988555908203 Z" stroke="none"/>
                                    <path d="M 46.00000381469727 2.999992370605469 C 40.19371795654297 2.999992370605469 34.56270217895508 4.136497497558594 29.26338958740234 6.377906799316406 C 24.14333343505859 8.543510437011719 19.54441833496094 11.64437866210938 15.59440612792969 15.59439849853516 C 11.64440155029297 19.54439544677734 8.54351806640625 24.14329528808594 6.377914428710938 29.26335144042969 C 4.136505126953125 34.56266784667969 3.000007629394531 40.19366836547852 3.000007629394531 45.99993896484375 C 3.000007629394531 51.80620956420898 4.136505126953125 57.43722534179688 6.377914428710938 62.73654174804688 C 8.54351806640625 67.85658264160156 11.64440155029297 72.45548248291016 15.59440612792969 76.40549468994141 C 19.54441833496094 80.35549926757812 24.14333343505859 83.45636749267578 29.26337432861328 85.62196350097656 C 34.56270217895508 87.86338043212891 40.19371795654297 88.9998779296875 46.00000381469727 88.9998779296875 C 51.80628967285156 88.9998779296875 57.43730545043945 87.86338043212891 62.73663330078125 85.62196350097656 C 67.85667419433594 83.45636749267578 72.45558929443359 80.35549926757812 76.40560150146484 76.40549468994141 C 80.35560607910156 72.45548248291016 83.45648956298828 67.85658264160156 85.62208557128906 62.73654174804688 C 87.86350250244141 57.43722534179688 89 51.80620956420898 89 45.99993896484375 C 89 40.19366836547852 87.86350250244141 34.56266784667969 85.62208557128906 29.26335144042969 C 83.45648956298828 24.14329528808594 80.35560607910156 19.54439544677734 76.40560150146484 15.59439849853516 C 72.45558929443359 11.64437866210938 67.85667419433594 8.543510437011719 62.73661804199219 6.377906799316406 C 57.43730545043945 4.136497497558594 51.80628967285156 2.999992370605469 46.00000381469727 2.999992370605469 M 46.00000381469727 -7.62939453125e-06 C 71.40510559082031 -7.62939453125e-06 92 20.59487915039062 92 45.99993896484375 C 92 71.40501403808594 71.40510559082031 91.99988555908203 46.00000381469727 91.99988555908203 C 20.59490203857422 91.99988555908203 7.62939453125e-06 71.40501403808594 7.62939453125e-06 45.99993896484375 C 7.62939453125e-06 20.59487915039062 20.59490203857422 -7.62939453125e-06 46.00000381469727 -7.62939453125e-06 Z" stroke="none" fill="#fcba3d"/>
                                  </g>
                                </g>
                              </g>
                            </g>
                          </g>
                        </g>
                      </g>
                    </g>
                  </g>
                </g>
              </g>
            </g>
          </g>
        </g>
      </g>
    </g>
    <g id="find_4199232" transform="translate(611 1579)">
      <rect id="Rectángulo_418699" data-name="Rectángulo 418699" width="58" height="39" rx="2" transform="translate(3 8)" fill="#acabb1"/>
      <path id="Trazado_1050037" data-name="Trazado 1050037" d="M7,12H57V42H7Z" fill="#2488ff"/>
      <path id="Trazado_1050038" data-name="Trazado 1050038" d="M20,54H44v6H20Z" fill="#57565c"/>
      <path id="Trazado_1050039" data-name="Trazado 1050039" d="M26,47H38v7H26Z" fill="#787680"/>
      <path id="Trazado_1050040" data-name="Trazado 1050040" d="M48,3h5V38H48Z" fill="#8cc63e"/>
      <path id="Trazado_1050041" data-name="Trazado 1050041" d="M39,15h5V38H39Z" fill="#006ca9"/>
      <path id="Trazado_1050042" data-name="Trazado 1050042" d="M30,21h5V38H30Z" fill="#ffc740"/>
      <path id="Trazado_1050043" data-name="Trazado 1050043" d="M18,61a3,3,0,0,0,3-3V33H15V58A3,3,0,0,0,18,61Z" fill="#7e543b"/>
      <g id="Grupo_1209358" data-name="Grupo 1209358">
        <rect id="Rectángulo_418700" data-name="Rectángulo 418700" width="8" height="4" rx="2" transform="translate(27 46) rotate(180)" fill="#ffcbbe"/>
        <rect id="Rectángulo_418701" data-name="Rectángulo 418701" width="8" height="4" rx="2" transform="translate(28 50) rotate(180)" fill="#ffcbbe"/>
        <rect id="Rectángulo_418702" data-name="Rectángulo 418702" width="8" height="4" rx="2" transform="translate(27 54) rotate(180)" fill="#ffcbbe"/>
        <rect id="Rectángulo_418703" data-name="Rectángulo 418703" width="8" height="4" rx="2" transform="translate(26 58) rotate(180)" fill="#ffcbbe"/>
      </g>
      <circle id="Elipse_12574" data-name="Elipse 12574" cx="15" cy="15" r="15" transform="translate(3 8)" fill="#57565c"/>
      <circle id="Elipse_12575" data-name="Elipse 12575" cx="12" cy="12" r="12" transform="translate(6 11)" fill="#64c1f7"/>
      <path id="Trazado_1050044" data-name="Trazado 1050044" d="M15,57H9L5,54H3V42H7l3-4h5Z" fill="#ffddce"/>
      <path id="Trazado_1050045" data-name="Trazado 1050045" d="M12,46l5-3h5.5a2.5,2.5,0,0,0,0-5H12Z" fill="#ffddce"/>
      <path id="Trazado_1050046" data-name="Trazado 1050046" d="M59,7H54V3a1,1,0,0,0-1-1H48a1,1,0,0,0-1,1V7H5a3.009,3.009,0,0,0-3,3V54a1,1,0,0,0,1,1H4.67L8.4,57.8A.984.984,0,0,0,9,58h5a3.981,3.981,0,0,0,6.62,3H44a1,1,0,0,0,1-1V54a1,1,0,0,0-1-1H39V48H59a3.009,3.009,0,0,0,3-3V10a3.009,3.009,0,0,0-3-3ZM49,4h3V37H49ZM48,39h5a1,1,0,0,0,1-1V13h2V41H25.95a4.031,4.031,0,0,0,.05-.5,3.476,3.476,0,0,0-1.52-2.88A16.145,16.145,0,0,0,29,34.59V38a1,1,0,0,0,1,1h5a1,1,0,0,0,1-1V21a1,1,0,0,0-1-1H33.71a15.932,15.932,0,0,0-3.24-7H47V38A1,1,0,0,0,48,39ZM27.6,50.53A2.983,2.983,0,0,0,29,48h8v5H27.82A3,3,0,0,0,28,52a2.942,2.942,0,0,0-.4-1.47ZM21,51h4a1,1,0,0,1,0,2H21a1,1,0,0,1,0-2Zm-1-7h2.5a3.464,3.464,0,0,0,2.44-1H25a.949.949,0,0,1,.71.31A.928.928,0,0,1,26,44a1,1,0,0,1-1,1H21a.949.949,0,0,1-.71-.31A.928.928,0,0,1,20,44Zm2,5a1,1,0,0,1,0-2h4a1,1,0,0,1,0,2ZM33.95,22H34V37H31V32.29A15.875,15.875,0,0,0,34,23C34,22.66,33.97,22.33,33.95,22ZM47,9v2H28.55a16.366,16.366,0,0,0-2.82-2ZM4,10A1,1,0,0,1,5,9h5.27A16.15,16.15,0,0,0,4,15.27ZM18,9A14,14,0,1,1,4,23,14,14,0,0,1,18,9ZM10.27,37H10a1.014,1.014,0,0,0-.8.4L8,39V35.47A15.829,15.829,0,0,0,10.27,37ZM4,30.73a16.366,16.366,0,0,0,2,2.82V41H4Zm8.51,16.13L14,45.97V56H9.33L5.6,53.2A.984.984,0,0,0,5,53H4V43H7a1.014,1.014,0,0,0,.8-.4L10.5,39h12a1.5,1.5,0,0,1,0,3H17a1,1,0,0,0-.51.14l-5,3ZM18,60a2.006,2.006,0,0,1-2-2V44.77L17.28,44H18a2.954,2.954,0,0,0,.87,2.11,3.059,3.059,0,0,0,.53.42,2.9,2.9,0,0,0,0,2.94A2.983,2.983,0,0,0,18,52a2.942,2.942,0,0,0,.4,1.47,2.982,2.982,0,0,0,1.34,5.5A2.007,2.007,0,0,1,18,60Zm2-3a1,1,0,0,1,0-2h4a1,1,0,0,1,0,2Zm23-2v4H24a2.98,2.98,0,0,0,2.82-4ZM60,45a1,1,0,0,1-1,1H28.22a3.159,3.159,0,0,0-.62-.53A2.942,2.942,0,0,0,28,44a3.051,3.051,0,0,0-.18-1H57a1,1,0,0,0,1-1V12a1,1,0,0,0-1-1H54V9h5a1,1,0,0,1,1,1Z"/>
      <path id="Trazado_1050047" data-name="Trazado 1050047" d="M44,14H39a1,1,0,0,0-1,1V38a1,1,0,0,0,1,1h5a1,1,0,0,0,1-1V15A1,1,0,0,0,44,14ZM43,37H40V16h3Z"/>
      <path id="Trazado_1050048" data-name="Trazado 1050048" d="M18,10A13,13,0,1,0,31,23,13,13,0,0,0,18,10Zm0,24A11,11,0,1,1,29,23,11,11,0,0,1,18,34Z"/>
    </g>
  </g>
</svg>
