<svg xmlns="http://www.w3.org/2000/svg" xmlns:xlink="http://www.w3.org/1999/xlink" width="110" height="110" viewBox="0 0 110 110">
  <defs>
    <filter id="Trazado_982547" x="0" y="0" width="110" height="110" filterUnits="userSpaceOnUse">
      <feOffset dy="3" input="SourceAlpha"/>
      <feGaussianBlur stdDeviation="3" result="blur"/>
      <feFlood flood-opacity="0.161"/>
      <feComposite operator="in" in2="blur"/>
      <feComposite in="SourceGraphic"/>
    </filter>
  </defs>
  <g id="Grupo_1209361" data-name="Grupo 1209361" transform="translate(-903 -1558.548)">
    <g id="Grupo_1209257" data-name="Grupo 1209257" transform="translate(105.81 -400.975)">
      <g id="Grupo_1164703" data-name="Grupo 1164703" transform="translate(806.19 1965.523)">
        <g id="Grupo_1160931" data-name="Grupo 1160931" transform="translate(0)">
          <g id="Grupo_1160749" data-name="Grupo 1160749" transform="translate(0)">
            <g id="Grupo_1158891" data-name="Grupo 1158891" transform="translate(0 0)">
              <g id="Grupo_1157406" data-name="Grupo 1157406" transform="translate(0)">
                <g id="Grupo_1155793" data-name="Grupo 1155793" transform="translate(0)">
                  <g id="Grupo_1154704" data-name="Grupo 1154704" transform="translate(0)">
                    <g id="Grupo_1150790" data-name="Grupo 1150790" transform="translate(0)">
                      <g id="Grupo_1154214" data-name="Grupo 1154214" transform="translate(0)">
                        <g id="Grupo_1152583" data-name="Grupo 1152583" transform="translate(0 0)">
                          <g id="Grupo_1146973" data-name="Grupo 1146973" transform="translate(0 0)">
                            <g id="Grupo_1146954" data-name="Grupo 1146954">
                              <g transform="matrix(1, 0, 0, 1, -9, -6)" filter="url(#Trazado_982547)">
                                <g id="Trazado_982547-2" data-name="Trazado 982547" transform="translate(9 6)" fill="#fef7ea">
                                  <path d="M 46.00000381469727 90.49988555908203 C 39.99188232421875 90.49988555908203 34.16427230834961 89.32352447509766 28.67905807495117 87.00347137451172 C 23.38020324707031 84.76226043701172 18.62104415893555 81.55342864990234 14.53375053405762 77.46615600585938 C 10.44647026062012 73.37887573242188 7.237643718719482 68.61971282958984 4.996417045593262 63.32085800170898 C 2.676363706588745 57.83565902709961 1.500003814697266 52.00806045532227 1.500003814697266 45.99993896484375 C 1.500003814697266 39.99181747436523 2.676363706588745 34.16421890258789 4.996417045593262 28.67901802062988 C 7.237643718719482 23.38017845153809 10.44647026062012 18.62101936340332 14.53375053405762 14.53373908996582 C 18.62104415893555 10.44645881652832 23.38020324707031 7.237632274627686 28.67905807495117 4.996418952941895 C 34.16427230834961 2.676365613937378 39.99188232421875 1.500005602836609 46.00000381469727 1.500005602836609 C 52.00812530517578 1.500005602836609 57.83573532104492 2.676365613937378 63.32094955444336 4.996418952941895 C 68.61980438232422 7.237632274627686 73.37897491455078 10.44645881652832 77.46625518798828 14.53373908996582 C 81.55355072021484 18.62101936340332 84.76236724853516 23.38017845153809 87.00359344482422 28.67901802062988 C 89.32364654541016 34.16421890258789 90.5 39.99181747436523 90.5 45.99993896484375 C 90.5 52.00806045532227 89.32364654541016 57.83565902709961 87.00359344482422 63.32085800170898 C 84.76236724853516 68.61971282958984 81.55355072021484 73.37887573242188 77.46625518798828 77.46615600585938 C 73.37897491455078 81.55342864990234 68.61980438232422 84.76226043701172 63.32094955444336 87.00347137451172 C 57.83573532104492 89.32352447509766 52.00812530517578 90.49988555908203 46.00000381469727 90.49988555908203 Z" stroke="none"/>
                                  <path d="M 46.00000381469727 2.999992370605469 C 40.19371795654297 2.999992370605469 34.56270217895508 4.136497497558594 29.26338958740234 6.377906799316406 C 24.14333343505859 8.543510437011719 19.54441833496094 11.64437866210938 15.59440612792969 15.59439849853516 C 11.64440155029297 19.54439544677734 8.54351806640625 24.14329528808594 6.377914428710938 29.26335144042969 C 4.136505126953125 34.56266784667969 3.000007629394531 40.19366836547852 3.000007629394531 45.99993896484375 C 3.000007629394531 51.80620956420898 4.136505126953125 57.43722534179688 6.377914428710938 62.73654174804688 C 8.54351806640625 67.85658264160156 11.64440155029297 72.45548248291016 15.59440612792969 76.40549468994141 C 19.54441833496094 80.35549926757812 24.14333343505859 83.45636749267578 29.26337432861328 85.62196350097656 C 34.56270217895508 87.86338043212891 40.19371795654297 88.9998779296875 46.00000381469727 88.9998779296875 C 51.80628967285156 88.9998779296875 57.43730545043945 87.86338043212891 62.73663330078125 85.62196350097656 C 67.85667419433594 83.45636749267578 72.45558929443359 80.35549926757812 76.40560150146484 76.40549468994141 C 80.35560607910156 72.45548248291016 83.45648956298828 67.85658264160156 85.62208557128906 62.73654174804688 C 87.86350250244141 57.43722534179688 89 51.80620956420898 89 45.99993896484375 C 89 40.19366836547852 87.86350250244141 34.56266784667969 85.62208557128906 29.26335144042969 C 83.45648956298828 24.14329528808594 80.35560607910156 19.54439544677734 76.40560150146484 15.59439849853516 C 72.45558929443359 11.64437866210938 67.85667419433594 8.543510437011719 62.73661804199219 6.377906799316406 C 57.43730545043945 4.136497497558594 51.80628967285156 2.999992370605469 46.00000381469727 2.999992370605469 M 46.00000381469727 -7.62939453125e-06 C 71.40510559082031 -7.62939453125e-06 92 20.59487915039062 92 45.99993896484375 C 92 71.40501403808594 71.40510559082031 91.99988555908203 46.00000381469727 91.99988555908203 C 20.59490203857422 91.99988555908203 7.62939453125e-06 71.40501403808594 7.62939453125e-06 45.99993896484375 C 7.62939453125e-06 20.59487915039062 20.59490203857422 -7.62939453125e-06 46.00000381469727 -7.62939453125e-06 Z" stroke="none" fill="#fcba3d"/>
                                </g>
                              </g>
                            </g>
                          </g>
                        </g>
                      </g>
                    </g>
                  </g>
                </g>
              </g>
            </g>
          </g>
        </g>
      </g>
    </g>
    <g id="weather_16227730_1_" data-name="weather_16227730 (1)" transform="translate(931.082 1583.082)">
      <path id="Trazado_1050049" data-name="Trazado 1050049" d="M3.79,54.1H52.416a1.736,1.736,0,0,0,1.737-1.737V3.737A1.736,1.736,0,0,0,52.416,2H3.79A1.736,1.736,0,0,0,2.053,3.737V52.363A1.737,1.737,0,0,0,3.79,54.1Z" transform="translate(-0.139 -0.132)" fill="#d4d4d5"/>
      <path id="Trazado_1050050" data-name="Trazado 1050050" d="M53.067,2H7V41.369a9.257,9.257,0,0,0,9.257,9.257H54.8V3.737A1.736,1.736,0,0,0,53.067,2Z" transform="translate(-0.79 -0.132)" fill="#e9edf5"/>
      <path id="Trazado_1050051" data-name="Trazado 1050051" d="M55.455,3.737A1.736,1.736,0,0,0,53.719,2H11.947V37.9A9.257,9.257,0,0,0,21.2,47.153H55.455Z" transform="translate(-1.441 -0.132)" fill="#f2f6fc"/>
      <path id="Trazado_1050052" data-name="Trazado 1050052" d="M16.6,36.292V10.6a2.6,2.6,0,1,0-5.21,0V36.292a6.947,6.947,0,1,0,5.21,0Z" transform="translate(-0.797 -0.922)" fill="#ea5b70"/>
      <path id="Trazado_1050053" data-name="Trazado 1050053" d="M17,36.347V10.66a2.594,2.594,0,0,0-1.3-2.244,2.594,2.594,0,0,0-1.3,2.244V36.347a6.946,6.946,0,0,0,1.3,13.262A6.946,6.946,0,0,0,17,36.347Z" transform="translate(-1.192 -0.976)" fill="#ff8e9e"/>
      <path id="Trazado_1050054" data-name="Trazado 1050054" d="M17.263,10.6a2.6,2.6,0,0,0-5.21,0V27.1h5.21Z" transform="translate(-1.455 -0.922)" fill="#c4e2ff"/>
      <path id="Trazado_1050055" data-name="Trazado 1050055" d="M16.355,8.416a2.594,2.594,0,0,0-1.3,2.244v16.5h2.6V10.66A2.594,2.594,0,0,0,16.355,8.416Z" transform="translate(-1.85 -0.976)" fill="#e6f1ff"/>
      <path id="Trazado_1050056" data-name="Trazado 1050056" d="M43.473,34.05h-5.21a5.21,5.21,0,0,1-5.21-5.21V13.21A5.21,5.21,0,0,1,38.263,8h5.21a5.21,5.21,0,0,1,5.21,5.21v3.473a.869.869,0,0,1-.868.868H44.341a.869.869,0,0,1-.868-.868V14.947a1.736,1.736,0,0,0-1.737-1.737H40a1.736,1.736,0,0,0-1.737,1.737V27.1A1.736,1.736,0,0,0,40,28.84h1.737A1.736,1.736,0,0,0,43.473,27.1V25.367a.869.869,0,0,1,.868-.868h3.473a.869.869,0,0,1,.868.868V28.84A5.21,5.21,0,0,1,43.473,34.05Z" transform="translate(-4.221 -0.922)" fill="#ffb357"/>
      <path id="Trazado_1050057" data-name="Trazado 1050057" d="M48.078,24.5H44.6a.869.869,0,0,0-.868.868V27.1A1.736,1.736,0,0,1,42,28.84H40.263A1.736,1.736,0,0,1,38.526,27.1V14.947a1.736,1.736,0,0,1,1.737-1.737H42a1.736,1.736,0,0,1,1.737,1.737v1.737a.869.869,0,0,0,.868.868h3.473a.869.869,0,0,0,.868-.868V13.21A5.21,5.21,0,0,0,43.736,8h-5.21a5.183,5.183,0,0,0-2.708.765,5.183,5.183,0,0,0-.765,2.708V27.1a5.21,5.21,0,0,0,5.21,5.21h5.21a5.183,5.183,0,0,0,2.708-.765,5.183,5.183,0,0,0,.765-2.708V25.367A.869.869,0,0,0,48.078,24.5Z" transform="translate(-4.484 -0.922)" fill="#ffce71"/>
      <g id="Grupo_1209360" data-name="Grupo 1209360" transform="translate(1 1)">
        <path id="Trazado_1050058" data-name="Trazado 1050058" d="M53.968,6.278a.868.868,0,0,0,.868-.868V3.6a2.608,2.608,0,0,0-2.6-2.6H3.6A2.608,2.608,0,0,0,1,3.6V52.231a2.608,2.608,0,0,0,2.6,2.6h2.6a.868.868,0,0,0,0-1.737H3.6a.869.869,0,0,1-.868-.868V3.6A.869.869,0,0,1,3.6,2.737H23.576V53.1H9.656a.868.868,0,1,0,0,1.737H52.231a2.608,2.608,0,0,0,2.6-2.6V8.812a.868.868,0,0,0-1.737,0V37.47H25.313V2.737H52.231A.869.869,0,0,1,53.1,3.6v1.8A.868.868,0,0,0,53.968,6.278ZM53.1,39.206V52.231a.869.869,0,0,1-.868.868H25.313V39.206Z" transform="translate(-1 -1)"/>
        <path id="Trazado_1050059" data-name="Trazado 1050059" d="M44.157,18.288H47.63a1.738,1.738,0,0,0,1.737-1.737V13.078A6.086,6.086,0,0,0,43.288,7h-5.21A6.086,6.086,0,0,0,32,13.078v15.63a6.086,6.086,0,0,0,6.078,6.078h5.21a6.086,6.086,0,0,0,6.078-6.078V25.235A1.738,1.738,0,0,0,47.63,23.5H44.157a1.738,1.738,0,0,0-1.737,1.737v1.737a.869.869,0,0,1-.868.868H39.815a.869.869,0,0,1-.868-.868V14.815a.869.869,0,0,1,.868-.868h1.737a.869.869,0,0,1,.868.868v1.737A1.738,1.738,0,0,0,44.157,18.288Zm-2.6-6.078H39.815a2.608,2.608,0,0,0-2.6,2.6V26.971a2.608,2.608,0,0,0,2.6,2.6h1.737a2.608,2.608,0,0,0,2.6-2.6V25.235H47.63v3.473a4.347,4.347,0,0,1-4.342,4.342h-5.21a4.347,4.347,0,0,1-4.342-4.342V13.078a4.347,4.347,0,0,1,4.342-4.342h5.21a4.347,4.347,0,0,1,4.342,4.342v3.473H44.157V14.815A2.608,2.608,0,0,0,41.552,12.21Z" transform="translate(-5.082 -1.79)"/>
        <path id="Trazado_1050060" data-name="Trazado 1050060" d="M53,8.6A2.6,2.6,0,1,0,55.6,6,2.608,2.608,0,0,0,53,8.6Zm3.473,0a.868.868,0,1,1-.868-.868A.869.869,0,0,1,56.473,8.6Z" transform="translate(-7.847 -1.658)"/>
        <path id="Trazado_1050061" data-name="Trazado 1050061" d="M49.235,56H31.868a.868.868,0,1,0,0,1.737H49.235a.868.868,0,0,0,0-1.737Z" transform="translate(-4.95 -8.242)"/>
        <path id="Trazado_1050062" data-name="Trazado 1050062" d="M31.868,53.737H54.445a.868.868,0,0,0,0-1.737H31.868a.868.868,0,1,0,0,1.737Z" transform="translate(-4.95 -7.715)"/>
        <path id="Trazado_1050063" data-name="Trazado 1050063" d="M31.868,49.737H54.445a.868.868,0,1,0,0-1.737H31.868a.868.868,0,1,0,0,1.737Z" transform="translate(-4.95 -7.189)"/>
        <path id="Trazado_1050064" data-name="Trazado 1050064" d="M57.6,56H55.868a.868.868,0,0,0,0,1.737H57.6A.868.868,0,0,0,57.6,56Z" transform="translate(-8.11 -8.242)"/>
        <path id="Trazado_1050065" data-name="Trazado 1050065" d="M16.42,13.078a.868.868,0,0,0,.868-.868V10.473a3.473,3.473,0,1,0-6.947,0V35.6a7.815,7.815,0,1,0,6.947,0V15.651a.868.868,0,1,0-1.737,0V26.1H12.078V10.473a1.737,1.737,0,0,1,3.473,0V12.21A.868.868,0,0,0,16.42,13.078ZM15.552,27.84v8.32a.869.869,0,0,0,.543.8A6.057,6.057,0,0,1,19.31,40H14.683a.868.868,0,1,0,0,1.737h5.145a5.866,5.866,0,0,1,.03,1.517H12.947a.868.868,0,0,0,0,1.737H19.4a6.078,6.078,0,1,1-7.869-8.022.869.869,0,0,0,.543-.8V27.84Z" transform="translate(-1.658 -1.79)"/>
      </g>
    </g>
  </g>
</svg>
