<svg xmlns="http://www.w3.org/2000/svg" xmlns:xlink="http://www.w3.org/1999/xlink" width="113" height="113" viewBox="0 0 113 113">
  <defs>
    <filter id="Trazado_982547" x="0" y="0" width="113" height="113" filterUnits="userSpaceOnUse">
      <feOffset dy="3" input="SourceAlpha"/>
      <feGaussianBlur stdDeviation="3" result="blur"/>
      <feFlood flood-opacity="0.161"/>
      <feComposite operator="in" in2="blur"/>
      <feComposite in="SourceGraphic"/>
    </filter>
  </defs>
  <g id="Grupo_1209470" data-name="Grupo 1209470" transform="translate(-354 -3096)">
    <g id="Grupo_1209277" data-name="Grupo 1209277" transform="translate(363 3102)">
      <g id="Grupo_1208028" data-name="Grupo 1208028" transform="translate(0)">
        <g id="Grupo_1177675" data-name="Grupo 1177675" transform="translate(0 0)">
          <g id="Grupo_1176928" data-name="Grupo 1176928" transform="translate(0)">
            <g id="Grupo_1172322" data-name="Grupo 1172322">
              <g id="Grupo_1164700" data-name="Grupo 1164700">
                <g id="Grupo_1160931" data-name="Grupo 1160931">
                  <g id="Grupo_1160749" data-name="Grupo 1160749">
                    <g id="Grupo_1158891" data-name="Grupo 1158891">
                      <g id="Grupo_1157406" data-name="Grupo 1157406">
                        <g id="Grupo_1155793" data-name="Grupo 1155793">
                          <g id="Grupo_1154704" data-name="Grupo 1154704">
                            <g id="Grupo_1150790" data-name="Grupo 1150790">
                              <g id="Grupo_1154214" data-name="Grupo 1154214">
                                <g id="Grupo_1152583" data-name="Grupo 1152583">
                                  <g id="Grupo_1146973" data-name="Grupo 1146973">
                                    <g id="Grupo_1146954" data-name="Grupo 1146954">
                                      <g transform="matrix(1, 0, 0, 1, -9, -6)" filter="url(#Trazado_982547)">
                                        <g id="Trazado_982547-2" data-name="Trazado 982547" transform="translate(9 6)" fill="#fcebe9">
                                          <path d="M 47.5000114440918 93.49987030029297 C 41.28938293457031 93.49987030029297 35.26534652709961 92.28384399414062 29.5951976776123 89.88558959960938 C 24.11773109436035 87.56881713867188 19.19814491271973 84.25183868408203 14.97310447692871 80.02680206298828 C 10.74805164337158 75.80176544189453 7.43107795715332 70.88218688964844 5.114304542541504 65.40472412109375 C 2.716038227081299 59.73458862304688 1.500011444091797 53.71054840087891 1.500011444091797 47.49993515014648 C 1.500011444091797 41.28932189941406 2.716038227081299 35.26528167724609 5.114304542541504 29.59514808654785 C 7.43107795715332 24.1176815032959 10.74805164337158 19.1981086730957 14.97310447692871 14.97306823730469 C 19.19814491271973 10.74802875518799 24.11773109436035 7.431055068969727 29.5951976776123 5.11428165435791 C 35.26534652709961 2.716028451919556 41.28938293457031 1.500001788139343 47.5000114440918 1.500001788139343 C 53.71063995361328 1.500001788139343 59.73467636108398 2.716028451919556 65.40482330322266 5.11428165435791 C 70.88229370117188 7.431055068969727 75.8018798828125 10.74802875518799 80.02691650390625 14.97306823730469 C 84.25196838378906 19.1981086730957 87.56894683837891 24.1176815032959 89.88571929931641 29.59514808654785 C 92.28398132324219 35.26528167724609 93.50001525878906 41.28932189941406 93.50001525878906 47.49993515014648 C 93.50001525878906 53.71054840087891 92.28398132324219 59.73458862304688 89.88571929931641 65.40472412109375 C 87.56894683837891 70.88218688964844 84.25196838378906 75.80176544189453 80.02691650390625 80.02680206298828 C 75.8018798828125 84.25183868408203 70.88229370117188 87.56881713867188 65.40482330322266 89.88558959960938 C 59.73467636108398 92.28384399414062 53.71063995361328 93.49987030029297 47.5000114440918 93.49987030029297 Z" stroke="none"/>
                                          <path d="M 47.5000114440918 3 C 41.49122619628906 3 35.66378021240234 4.1761474609375 30.17951965332031 6.495796203613281 C 24.880859375 8.7369384765625 20.12153625488281 11.94596862792969 16.03376770019531 16.03373718261719 C 11.94598388671875 20.12149047851562 8.736968994140625 24.88081359863281 6.495811462402344 30.17947387695312 C 4.176162719726562 35.66371917724609 3.000007629394531 41.49116516113281 3.000007629394531 47.49993515014648 C 3.000007629394531 53.50870513916016 4.176162719726562 59.33615112304688 6.495811462402344 64.82039642333984 C 8.736968994140625 70.11905670166016 11.94598388671875 74.87837982177734 16.03376770019531 78.96613311767578 C 20.12153625488281 83.05390167236328 24.880859375 86.26293182373047 30.17951965332031 88.50407409667969 C 35.66378021240234 90.82372283935547 41.49122619628906 91.99987030029297 47.5000114440918 91.99987030029297 C 53.50879669189453 91.99987030029297 59.33624267578125 90.82372283935547 64.82050323486328 88.50407409667969 C 70.11916351318359 86.26293182373047 74.87848663330078 83.05390167236328 78.96625518798828 78.96613311767578 C 83.05403900146484 74.87837982177734 86.2630615234375 70.11905670166016 88.50421142578125 64.82039642333984 C 90.82386016845703 59.33615112304688 92.00001525878906 53.50870513916016 92.00001525878906 47.49993515014648 C 92.00001525878906 41.49116516113281 90.82386016845703 35.66371917724609 88.50421142578125 30.17947387695312 C 86.2630615234375 24.88081359863281 83.05403900146484 20.12149047851562 78.96625518798828 16.03373718261719 C 74.87848663330078 11.94596862792969 70.11916351318359 8.7369384765625 64.82050323486328 6.495796203613281 C 59.33624267578125 4.1761474609375 53.50879669189453 3 47.5000114440918 3 M 47.5000114440918 0 C 73.73353576660156 0 95.00001525878906 21.26644134521484 95.00001525878906 47.49993515014648 C 95.00001525878906 73.73342895507812 73.73353576660156 94.99987030029297 47.5000114440918 94.99987030029297 C 21.26648712158203 94.99987030029297 7.62939453125e-06 73.73342895507812 7.62939453125e-06 47.49993515014648 C 7.62939453125e-06 21.26644134521484 21.26648712158203 0 47.5000114440918 0 Z" stroke="none" fill="#e44b36"/>
                                        </g>
                                      </g>
                                    </g>
                                  </g>
                                </g>
                              </g>
                            </g>
                          </g>
                        </g>
                      </g>
                    </g>
                  </g>
                </g>
              </g>
            </g>
          </g>
        </g>
      </g>
    </g>
    <g id="planning_1981081" transform="translate(380 3117.497)">
      <path id="Trazado_1050268" data-name="Trazado 1050268" d="M13,10H58V47.4A13.6,13.6,0,0,1,44.4,61H13V10Z" fill="#6f7e5d"/>
      <path id="Trazado_1050269" data-name="Trazado 1050269" d="M9,7H54V57H9Z" fill="#ded9af"/>
      <path id="Trazado_1050270" data-name="Trazado 1050270" d="M44,38V33a2,2,0,0,1,4,0v5Z" fill="#5b5e33"/>
      <circle id="Elipse_12583" data-name="Elipse 12583" cx="13" cy="13" r="13" transform="translate(33 35)" fill="#7a9b69"/>
      <path id="Trazado_1050271" data-name="Trazado 1050271" d="M7,49a2,2,0,0,0,0,4H23V49Z" fill="#f9a236"/>
      <path id="Trazado_1050272" data-name="Trazado 1050272" d="M29,51l-2-2H23v4h4Z" fill="#d85e27"/>
      <path id="Trazado_1050273" data-name="Trazado 1050273" d="M47,9c0,5-6,8-6,8s-6-3-6-8A6,6,0,0,1,47,9Z" fill="#f9a236"/>
      <path id="Trazado_1050274" data-name="Trazado 1050274" d="M6,15h7l6,3V15h2a3,3,0,0,0,3-3V6a3,3,0,0,0-3-3H6A3,3,0,0,0,3,6v6A3,3,0,0,0,6,15Z" fill="#6f7e5d"/>
      <path id="Trazado_1050275" data-name="Trazado 1050275" d="M44,50l5.5,1.5L48,46l-5.5-1.5Z" fill="#ef5249"/>
      <path id="Trazado_1050276" data-name="Trazado 1050276" d="M44,50l5.5,1.5L48,46Z" fill="#ccdce5"/>
      <circle id="Elipse_12584" data-name="Elipse 12584" cx="2" cy="2" r="2" transform="translate(39 7)" fill="#d85e27"/>
      <path id="Trazado_1050277" data-name="Trazado 1050277" d="M49,34.332V33a3.06,3.06,0,0,0-.035-.348A3.942,3.942,0,0,0,50,30a4,4,0,1,0-8,0,3.942,3.942,0,0,0,1.035,2.652A3.059,3.059,0,0,0,43,33v1.332a14,14,0,1,0,6,0ZM46,28a1.972,1.972,0,0,1,1.871,2.674,2.934,2.934,0,0,0-3.742,0A1.972,1.972,0,0,1,46,28Zm-1,5a1,1,0,0,1,2,0v1.051c-.332-.024-.662-.051-1-.051s-.668.027-1,.051Zm1,27A12,12,0,1,1,58,48,12,12,0,0,1,46,60Z"/>
      <path id="Trazado_1050278" data-name="Trazado 1050278" d="M38.636,53.364h2v2h-2Z" transform="translate(-26.832 43.95) rotate(-45)"/>
      <path id="Trazado_1050279" data-name="Trazado 1050279" d="M51.364,40.636h2v2h-2Z" transform="translate(-14.104 49.222) rotate(-45)"/>
      <path id="Trazado_1050280" data-name="Trazado 1050280" d="M38.636,40.636h2v2h-2Z" transform="translate(-17.832 40.222) rotate(-45)"/>
      <path id="Trazado_1050281" data-name="Trazado 1050281" d="M51.364,53.364h2v2h-2Z" transform="translate(-23.104 52.95) rotate(-45)"/>
      <path id="Trazado_1050282" data-name="Trazado 1050282" d="M36,47h2v2H36Z"/>
      <path id="Trazado_1050283" data-name="Trazado 1050283" d="M54,47h2v2H54Z"/>
      <path id="Trazado_1050284" data-name="Trazado 1050284" d="M45,38h2v2H45Z"/>
      <path id="Trazado_1050285" data-name="Trazado 1050285" d="M45,56h2v2H45Z"/>
      <path id="Trazado_1050286" data-name="Trazado 1050286" d="M49.293,43.293l-1.59,1.59-4.94-1.348a1,1,0,0,0-1.228,1.228l1.348,4.94-1.59,1.59,1.414,1.414,1.59-1.59,4.94,1.348a1.028,1.028,0,0,0,.263.035,1,1,0,0,0,.965-1.263L49.117,46.3l1.59-1.59Zm-4.479,5.893-.889-3.261,3.261.889.889,3.261Z"/>
      <path id="Trazado_1050287" data-name="Trazado 1050287" d="M17.5,34h16a3.5,3.5,0,1,0,0-7h-17a1.5,1.5,0,0,1,0-3h22A3.5,3.5,0,0,0,42,20.5V20H40v.5A1.5,1.5,0,0,1,38.5,22h-22a3.5,3.5,0,0,0,0,7h17a1.5,1.5,0,0,1,0,3h-16a3.5,3.5,0,0,0,0,7h6A1.5,1.5,0,0,1,25,40.5V42h2V40.5A3.5,3.5,0,0,0,23.5,37h-6a1.5,1.5,0,0,1,0-3Z"/>
      <path id="Trazado_1050288" data-name="Trazado 1050288" d="M25,44h2v2H25Z"/>
      <path id="Trazado_1050289" data-name="Trazado 1050289" d="M41,12a3,3,0,1,0-3-3A3,3,0,0,0,41,12Zm0-4a1,1,0,1,1-1,1A1,1,0,0,1,41,8Z"/>
      <path id="Trazado_1050290" data-name="Trazado 1050290" d="M6,16H8V48H7a3,3,0,0,0,0,6H8v3a1,1,0,0,0,1,1h3v3a1,1,0,0,0,1,1H37V60H14V58H33V56H10V54H27a1,1,0,0,0,.707-.293l2-2a1,1,0,0,0,0-1.414l-2-2A1,1,0,0,0,27,48H10V16h2.764l5.789,2.9A1,1,0,0,0,20,18V16h1a4,4,0,0,0,4-4V8h9.08A7.026,7.026,0,0,0,34,9c0,5.554,6.285,8.761,6.553,8.9a1,1,0,0,0,.894,0C41.715,17.761,48,14.554,48,9a7.025,7.025,0,0,0-.08-1H53V34h2V11h2V37h2V10a1,1,0,0,0-1-1H55V7a1,1,0,0,0-1-1H47.315a6.985,6.985,0,0,0-12.63,0H25a4,4,0,0,0-4-4H6A4,4,0,0,0,2,6v6a4,4,0,0,0,4,4ZM6,51a1,1,0,0,1,1-1H22v2H7A1,1,0,0,1,6,51Zm21.586,0-1,1H24V50h2.586ZM41,4a5.006,5.006,0,0,1,5,5c0,3.57-3.7,6.08-5,6.854C39.7,15.08,36,12.57,36,9a5.006,5.006,0,0,1,5-5ZM4,6A2,2,0,0,1,6,4H21a2,2,0,0,1,2,2v6a2,2,0,0,1-2,2H19a1,1,0,0,0-1,1v1.382L13.447,14.1A1,1,0,0,0,13,14H6a2,2,0,0,1-2-2Z"/>
      <path id="Trazado_1050291" data-name="Trazado 1050291" d="M6,6H8V8H6Z"/>
      <path id="Trazado_1050292" data-name="Trazado 1050292" d="M10,6H21V8H10Z"/>
      <path id="Trazado_1050293" data-name="Trazado 1050293" d="M6,10H21v2H6Z"/>
    </g>
  </g>
</svg>
