<svg xmlns="http://www.w3.org/2000/svg" xmlns:xlink="http://www.w3.org/1999/xlink" width="113" height="113" viewBox="0 0 113 113">
  <defs>
    <filter id="Trazado_982547" x="0" y="0" width="113" height="113" filterUnits="userSpaceOnUse">
      <feOffset dy="3" input="SourceAlpha"/>
      <feGaussianBlur stdDeviation="3" result="blur"/>
      <feFlood flood-opacity="0.161"/>
      <feComposite operator="in" in2="blur"/>
      <feComposite in="SourceGraphic"/>
    </filter>
  </defs>
  <g id="Grupo_1209479" data-name="Grupo 1209479" transform="translate(-12236 -3096)">
    <g id="Grupo_1209280" data-name="Grupo 1209280" transform="translate(12245 3102)">
      <g id="Grupo_1208038" data-name="Grupo 1208038" transform="translate(0)">
        <g id="Grupo_1202104" data-name="Grupo 1202104" transform="translate(0)">
          <g id="Grupo_1201923" data-name="Grupo 1201923" transform="translate(0 0)">
            <g id="Grupo_1176928" data-name="Grupo 1176928" transform="translate(0)">
              <g id="Grupo_1172322" data-name="Grupo 1172322">
                <g id="Grupo_1164700" data-name="Grupo 1164700">
                  <g id="Grupo_1160931" data-name="Grupo 1160931">
                    <g id="Grupo_1160749" data-name="Grupo 1160749">
                      <g id="Grupo_1158891" data-name="Grupo 1158891">
                        <g id="Grupo_1157406" data-name="Grupo 1157406">
                          <g id="Grupo_1155793" data-name="Grupo 1155793">
                            <g id="Grupo_1154704" data-name="Grupo 1154704">
                              <g id="Grupo_1150790" data-name="Grupo 1150790">
                                <g id="Grupo_1154214" data-name="Grupo 1154214">
                                  <g id="Grupo_1152583" data-name="Grupo 1152583">
                                    <g id="Grupo_1146973" data-name="Grupo 1146973">
                                      <g id="Grupo_1146954" data-name="Grupo 1146954">
                                        <g transform="matrix(1, 0, 0, 1, -9, -6)" filter="url(#Trazado_982547)">
                                          <g id="Trazado_982547-2" data-name="Trazado 982547" transform="translate(9 6)" fill="#fcebe9">
                                            <path d="M 47.5000114440918 93.49987030029297 C 41.28938293457031 93.49987030029297 35.26534652709961 92.28384399414062 29.5951976776123 89.88558959960938 C 24.11773109436035 87.56881713867188 19.19814491271973 84.25183868408203 14.97310447692871 80.02680206298828 C 10.74805164337158 75.80176544189453 7.43107795715332 70.88218688964844 5.114304542541504 65.40472412109375 C 2.716038227081299 59.73458862304688 1.500011444091797 53.71054840087891 1.500011444091797 47.49993515014648 C 1.500011444091797 41.28932189941406 2.716038227081299 35.26528167724609 5.114304542541504 29.59514808654785 C 7.43107795715332 24.1176815032959 10.74805164337158 19.1981086730957 14.97310447692871 14.97306823730469 C 19.19814491271973 10.74802875518799 24.11773109436035 7.431055068969727 29.5951976776123 5.11428165435791 C 35.26534652709961 2.716028451919556 41.28938293457031 1.500001788139343 47.5000114440918 1.500001788139343 C 53.71063995361328 1.500001788139343 59.73467636108398 2.716028451919556 65.40482330322266 5.11428165435791 C 70.88229370117188 7.431055068969727 75.8018798828125 10.74802875518799 80.02691650390625 14.97306823730469 C 84.25196838378906 19.1981086730957 87.56894683837891 24.1176815032959 89.88571929931641 29.59514808654785 C 92.28398132324219 35.26528167724609 93.50001525878906 41.28932189941406 93.50001525878906 47.49993515014648 C 93.50001525878906 53.71054840087891 92.28398132324219 59.73458862304688 89.88571929931641 65.40472412109375 C 87.56894683837891 70.88218688964844 84.25196838378906 75.80176544189453 80.02691650390625 80.02680206298828 C 75.8018798828125 84.25183868408203 70.88229370117188 87.56881713867188 65.40482330322266 89.88558959960938 C 59.73467636108398 92.28384399414062 53.71063995361328 93.49987030029297 47.5000114440918 93.49987030029297 Z" stroke="none"/>
                                            <path d="M 47.5000114440918 3 C 41.49122619628906 3 35.66378021240234 4.1761474609375 30.17951965332031 6.495796203613281 C 24.880859375 8.7369384765625 20.12153625488281 11.94596862792969 16.03376770019531 16.03373718261719 C 11.94598388671875 20.12149047851562 8.736968994140625 24.88081359863281 6.495811462402344 30.17947387695312 C 4.176162719726562 35.66371917724609 3.000007629394531 41.49116516113281 3.000007629394531 47.49993515014648 C 3.000007629394531 53.50870513916016 4.176162719726562 59.33615112304688 6.495811462402344 64.82039642333984 C 8.736968994140625 70.11905670166016 11.94598388671875 74.87837982177734 16.03376770019531 78.96613311767578 C 20.12153625488281 83.05390167236328 24.880859375 86.26293182373047 30.17951965332031 88.50407409667969 C 35.66378021240234 90.82372283935547 41.49122619628906 91.99987030029297 47.5000114440918 91.99987030029297 C 53.50879669189453 91.99987030029297 59.33624267578125 90.82372283935547 64.82050323486328 88.50407409667969 C 70.11916351318359 86.26293182373047 74.87848663330078 83.05390167236328 78.96625518798828 78.96613311767578 C 83.05403900146484 74.87837982177734 86.2630615234375 70.11905670166016 88.50421142578125 64.82039642333984 C 90.82386016845703 59.33615112304688 92.00001525878906 53.50870513916016 92.00001525878906 47.49993515014648 C 92.00001525878906 41.49116516113281 90.82386016845703 35.66371917724609 88.50421142578125 30.17947387695312 C 86.2630615234375 24.88081359863281 83.05403900146484 20.12149047851562 78.96625518798828 16.03373718261719 C 74.87848663330078 11.94596862792969 70.11916351318359 8.7369384765625 64.82050323486328 6.495796203613281 C 59.33624267578125 4.1761474609375 53.50879669189453 3 47.5000114440918 3 M 47.5000114440918 0 C 73.73353576660156 0 95.00001525878906 21.26644134521484 95.00001525878906 47.49993515014648 C 95.00001525878906 73.73342895507812 73.73353576660156 94.99987030029297 47.5000114440918 94.99987030029297 C 21.26648712158203 94.99987030029297 7.62939453125e-06 73.73342895507812 7.62939453125e-06 47.49993515014648 C 7.62939453125e-06 21.26644134521484 21.26648712158203 0 47.5000114440918 0 Z" stroke="none" fill="#e44b36"/>
                                          </g>
                                        </g>
                                      </g>
                                    </g>
                                  </g>
                                </g>
                              </g>
                            </g>
                          </g>
                        </g>
                      </g>
                    </g>
                  </g>
                </g>
              </g>
            </g>
          </g>
        </g>
      </g>
    </g>
    <g id="action_1900154" transform="translate(12258.694 3115.6)">
      <path id="Trazado_1050311" data-name="Trazado 1050311" d="M23.674,20.481H21.468a1.1,1.1,0,0,1-1.008-.715.073.073,0,0,1-.005-.014,1.1,1.1,0,0,1,.21-1.215l1.558-1.558a.53.53,0,0,0,0-.75l-2.249-2.249a.53.53,0,0,0-.75,0L17.667,15.54a1.1,1.1,0,0,1-1.215.21l-.014-.005a1.1,1.1,0,0,1-.716-1.01v-2.2a.53.53,0,0,0-.53-.53H12.012a.53.53,0,0,0-.53.53v2.2a1.1,1.1,0,0,1-.715,1.008l-.014.005a1.1,1.1,0,0,1-1.215-.21L7.98,13.979a.53.53,0,0,0-.75,0L4.98,16.23a.53.53,0,0,0,0,.75l1.558,1.558a1.1,1.1,0,0,1,.21,1.215.074.074,0,0,0-.005.014,1.1,1.1,0,0,1-1.008.715H3.53a.53.53,0,0,0-.53.53v3.181a.53.53,0,0,0,.53.53H5.735a1.1,1.1,0,0,1,1.008.715,7.073,7.073,0,0,0,.33.7L4.981,28.224a.53.53,0,0,0,0,.75L7.23,31.222a.53.53,0,0,0,.75,0l1.558-1.558a1.1,1.1,0,0,1,1.215-.21l.014.005a1.1,1.1,0,0,1,.715,1.009v2.205a.53.53,0,0,0,.53.53h3.181a.53.53,0,0,0,.53-.53V30.468a1.1,1.1,0,0,1,.715-1.008l.014-.005a1.1,1.1,0,0,1,1.215.21l1.558,1.558a.53.53,0,0,0,.75,0l2.249-2.249a.53.53,0,0,0,0-.75l-1.558-1.558a1.1,1.1,0,0,1-.21-1.215.074.074,0,0,0,.005-.014,1.1,1.1,0,0,1,1.009-.716h2.205a.53.53,0,0,0,.53-.53V21.012A.53.53,0,0,0,23.674,20.481ZM13.6,26.843A4.241,4.241,0,1,1,17.843,22.6,4.241,4.241,0,0,1,13.6,26.843Z" transform="translate(0.06 0.59)" fill="#759acc"/>
      <path id="Trazado_1050312" data-name="Trazado 1050312" d="M61.674,20.481H59.468a1.1,1.1,0,0,1-1.008-.715.074.074,0,0,1-.005-.014,1.1,1.1,0,0,1,.21-1.215l1.558-1.558a.53.53,0,0,0,0-.75l-2.249-2.249a.53.53,0,0,0-.75,0L55.667,15.54a1.1,1.1,0,0,1-1.215.21l-.014-.005a1.1,1.1,0,0,1-.716-1.01v-2.2a.53.53,0,0,0-.53-.53H50.012a.53.53,0,0,0-.53.53v2.2a1.1,1.1,0,0,1-.715,1.008l-.014.005a1.1,1.1,0,0,1-1.215-.21L45.98,13.979a.53.53,0,0,0-.75,0l-2.249,2.249a.53.53,0,0,0,0,.75l1.558,1.558a1.1,1.1,0,0,1,.21,1.215.074.074,0,0,0-.005.014,1.1,1.1,0,0,1-1.009.717H41.53a.53.53,0,0,0-.53.53v3.181a.53.53,0,0,0,.53.53h2.205a1.1,1.1,0,0,1,1.008.715,7.072,7.072,0,0,0,.33.7l-2.092,2.092a.53.53,0,0,0,0,.75l2.249,2.249a.53.53,0,0,0,.75,0l1.558-1.558a1.1,1.1,0,0,1,1.215-.21l.014.005a1.1,1.1,0,0,1,.715,1.009v2.205a.53.53,0,0,0,.53.53h3.181a.53.53,0,0,0,.53-.53V30.468a1.1,1.1,0,0,1,.715-1.008l.014-.005a1.1,1.1,0,0,1,1.215.21l1.558,1.558a.53.53,0,0,0,.75,0l2.249-2.249a.53.53,0,0,0,0-.75l-1.558-1.558a1.1,1.1,0,0,1-.21-1.215.073.073,0,0,0,.005-.014,1.1,1.1,0,0,1,1.009-.716h2.205a.53.53,0,0,0,.53-.53V21.012A.53.53,0,0,0,61.674,20.481ZM51.6,26.843A4.241,4.241,0,1,1,55.843,22.6,4.241,4.241,0,0,1,51.6,26.843Z" transform="translate(2.347 0.59)" fill="#495867"/>
      <path id="Trazado_1050313" data-name="Trazado 1050313" d="M51.025,51.12a20.654,20.654,0,0,1-7.673-1.478l-.09-.036A8.489,8.489,0,0,0,40.112,49h-13.7a8.48,8.48,0,0,0-3.15.606l-.09.036A20.659,20.659,0,0,1,15.5,51.12H11v5.3h5.129a20.67,20.67,0,0,0,6.533-1.06v7.421h21.2V55.361a20.67,20.67,0,0,0,6.533,1.06h5.129v-5.3Z" transform="translate(0.542 2.817)" fill="#eaeaea"/>
      <path id="Trazado_1050314" data-name="Trazado 1050314" d="M32.181,49,29,54.3l3.181,6.361L35.361,54.3Z" transform="translate(1.625 2.817)" fill="#759acc"/>
      <g id="Grupo_1209478" data-name="Grupo 1209478" transform="translate(6.241 32.733)">
        <path id="Trazado_1050315" data-name="Trazado 1050315" d="M57.38,52H53v3.181h2.538a3.179,3.179,0,0,0,2.646-1.416l.077-.116A1.06,1.06,0,0,0,57.38,52Z" transform="translate(-3.172 -29.736)" fill="#ffdbac"/>
        <path id="Trazado_1050316" data-name="Trazado 1050316" d="M6.18,53.649l.077.116A3.179,3.179,0,0,0,8.9,55.181h2.538V52H7.062A1.06,1.06,0,0,0,6.18,53.649Z" transform="translate(-6 -29.736)" fill="#ffdbac"/>
        <circle id="Elipse_12585" data-name="Elipse 12585" cx="9.542" cy="9.542" r="9.542" transform="translate(18.023)" fill="#ffdbac"/>
      </g>
      <path id="Trazado_1050317" data-name="Trazado 1050317" d="M41.767,38.211a9.529,9.529,0,0,0-18.485,0,15.864,15.864,0,0,1,18.485,0Z" transform="translate(1.281 1.733)" fill="#495867"/>
      <path id="Trazado_1050318" data-name="Trazado 1050318" d="M41.539,5.381,37.3,2.2,36.026,3.9l1.7,1.272H25v2.12H37.722l-1.7,1.272,1.272,1.7,4.241-3.181a1.06,1.06,0,0,0,0-1.7Z" transform="translate(1.384)"/>
      <path id="Trazado_1050319" data-name="Trazado 1050319" d="M51.3,17a5.3,5.3,0,1,0,5.3,5.3A5.307,5.307,0,0,0,51.3,17Zm0,8.482A3.181,3.181,0,1,1,54.481,22.3,3.184,3.184,0,0,1,51.3,25.482Z" transform="translate(2.648 0.891)"/>
      <path id="Trazado_1050320" data-name="Trazado 1050320" d="M61.734,19.482l-2.19,0-.069-.137,1.558-1.56a1.591,1.591,0,0,0,0-2.249l-2.25-2.249a1.589,1.589,0,0,0-2.249,0L54.941,14.84c-.031-.014-.067-.035-.1-.046v-2.2A1.592,1.592,0,0,0,53.252,11H50.072a1.592,1.592,0,0,0-1.59,1.59l0,2.21c-.023.008-.115.039-.137.049l-1.558-1.558a1.589,1.589,0,0,0-2.249,0l-2.25,2.249a1.591,1.591,0,0,0,0,2.249l1.564,1.565c-.012.023-.05.1-.06.128h-2.2A1.592,1.592,0,0,0,40,21.072v3.181a1.592,1.592,0,0,0,1.59,1.59l2.232.055c.011.025.021.051.031.075L42.29,27.536a1.591,1.591,0,0,0,0,2.249l2.25,2.249a1.591,1.591,0,0,0,2.249,0l1.593-1.549c.031.014.067.035.1.046v2.2a1.592,1.592,0,0,0,1.59,1.59h3.181a1.592,1.592,0,0,0,1.59-1.59l0-2.21c.023-.008.113-.04.137-.05l1.558,1.56a1.589,1.589,0,0,0,2.249,0l2.25-2.249a1.591,1.591,0,0,0,0-2.249l-1.564-1.565c.012-.023.05-.1.06-.128h2.205a1.592,1.592,0,0,0,1.59-1.59V21.072A1.592,1.592,0,0,0,61.734,19.482Zm-.53,4.241H59.529a2.227,2.227,0,0,0-1.553,3.753L59.16,28.66l-1.5,1.5-1.184-1.184a2.227,2.227,0,0,0-3.753,1.555V32.2H50.6V30.53a2.228,2.228,0,0,0-3.753-1.555l-1.184,1.184-1.5-1.5,1.718-1.718a1.06,1.06,0,0,0,.181-1.256,5.719,5.719,0,0,1-.28-.593A2.16,2.16,0,0,0,43.8,23.722H42.12V21.6H43.8a2.227,2.227,0,0,0,1.553-3.753l-1.184-1.184,1.5-1.5,1.184,1.183A2.227,2.227,0,0,0,50.6,14.794V13.12h2.12v1.674a2.227,2.227,0,0,0,3.753,1.554l1.184-1.183,1.5,1.5-1.184,1.184A2.227,2.227,0,0,0,59.529,21.6H61.2Z" transform="translate(2.287 0.53)"/>
      <path id="Trazado_1050321" data-name="Trazado 1050321" d="M13.3,27.6A5.3,5.3,0,1,0,8,22.3,5.307,5.307,0,0,0,13.3,27.6Zm0-8.482A3.181,3.181,0,1,1,10.12,22.3,3.184,3.184,0,0,1,13.3,19.12Z" transform="translate(0.361 0.891)"/>
      <path id="Trazado_1050322" data-name="Trazado 1050322" d="M3.59,19.482A1.592,1.592,0,0,0,2,21.072v3.181a1.592,1.592,0,0,0,1.59,1.59l2.232.055c.011.025.021.051.031.075L4.29,27.536a1.591,1.591,0,0,0,0,2.249l2.25,2.249a1.591,1.591,0,0,0,2.249,0l1.593-1.549c.032.014.068.035.1.046v2.2a1.592,1.592,0,0,0,1.59,1.59h3.181a1.592,1.592,0,0,0,1.59-1.59l0-2.21c.023-.008.113-.04.137-.05l1.558,1.56a1.589,1.589,0,0,0,2.249,0l2.25-2.249a1.591,1.591,0,0,0,0-2.249l-1.564-1.565c.012-.023.05-.1.06-.128h2.205a1.592,1.592,0,0,0,1.59-1.59V21.072a1.592,1.592,0,0,0-1.59-1.59l-2.19,0-.069-.137,1.558-1.56a1.591,1.591,0,0,0,0-2.249l-2.25-2.249a1.589,1.589,0,0,0-2.249,0L16.942,14.84c-.031-.014-.067-.035-.1-.046v-2.2A1.592,1.592,0,0,0,15.253,11H12.073a1.592,1.592,0,0,0-1.59,1.59l0,2.21c-.023.008-.115.039-.137.049L8.79,13.291a1.589,1.589,0,0,0-2.249,0L4.292,15.54a1.591,1.591,0,0,0,0,2.249l1.564,1.565c-.013.023-.051.1-.06.128Zm3.758-1.633L6.164,16.665l1.5-1.5,1.184,1.183A2.227,2.227,0,0,0,12.6,14.794V13.12h2.12v1.674a2.227,2.227,0,0,0,3.753,1.554l1.184-1.183,1.5,1.5-1.184,1.184A2.227,2.227,0,0,0,21.529,21.6H23.2v2.12H21.529a2.227,2.227,0,0,0-1.553,3.753L21.16,28.66l-1.5,1.5-1.184-1.184a2.227,2.227,0,0,0-3.753,1.555V32.2H12.6V30.53a2.228,2.228,0,0,0-3.753-1.555L7.665,30.159l-1.5-1.5,1.718-1.718a1.06,1.06,0,0,0,.181-1.256,5.719,5.719,0,0,1-.28-.593A2.16,2.16,0,0,0,5.8,23.722H4.12V21.6H5.8a2.227,2.227,0,0,0,1.553-3.753Z" transform="translate(0 0.53)"/>
      <path id="Trazado_1050323" data-name="Trazado 1050323" d="M44.227,40.6a10.6,10.6,0,1,0-16.935,8.482h-.514a9.648,9.648,0,0,0-3.634.719,19.5,19.5,0,0,1-7.279,1.4h-4.5a1.06,1.06,0,0,0-1.06,1.06H7.121a2.122,2.122,0,0,0-1.763,3.3l.076.113a4.233,4.233,0,0,0,3.529,1.888H10.3a1.06,1.06,0,0,0,1.06,1.06H16.49a21.671,21.671,0,0,0,5.473-.7v6h2.12V56.5a1.059,1.059,0,0,0-1.4-1.006,19.555,19.555,0,0,1-6.2,1.006H12.421V53.324h3.442a21.746,21.746,0,0,0,8.156-1.589,7.4,7.4,0,0,1,2.756-.531h4.975L29.535,54.9a1.06,1.06,0,0,0-.039,1.02l3.181,6.361a1.061,1.061,0,0,0,1.9,0l3.181-6.361a1.06,1.06,0,0,0-.039-1.02L35.5,51.2h4.975a7.535,7.535,0,0,1,2.847.567,21.626,21.626,0,0,0,8.067,1.553h3.442V56.5H50.76a19.583,19.583,0,0,1-6.2-1.005,1.059,1.059,0,0,0-1.4,1.005v7.421h2.12v-6a21.678,21.678,0,0,0,5.473.7h5.129a1.06,1.06,0,0,0,1.06-1.06h1.479a4.235,4.235,0,0,0,3.529-1.889l.076-.113a2.121,2.121,0,0,0-1.765-3.3H56.949a1.06,1.06,0,0,0-1.06-1.06h-4.5a19.627,19.627,0,0,1-7.369-1.438,9.511,9.511,0,0,0-3.544-.683h-.514A10.581,10.581,0,0,0,44.227,40.6ZM8.964,55.444A2.116,2.116,0,0,1,7.2,54.5l-.077-.113H10.3v1.06Zm51.3-1.059-.076.115a2.116,2.116,0,0,1-1.764.945H56.949v-1.06ZM33.625,32.12a8.474,8.474,0,0,1,6.932,3.609,16.883,16.883,0,0,0-13.863,0,8.474,8.474,0,0,1,6.932-3.609Zm0,27.315-1.972-3.944L33.625,52.2,35.6,55.491ZM25.143,40.6a8.479,8.479,0,0,1,.168-1.676,14.759,14.759,0,0,1,16.628,0,8.481,8.481,0,1,1-16.8,1.676Z" transform="translate(0.181 1.673)"/>
      <path id="Trazado_1050324" data-name="Trazado 1050324" d="M28.181,40.06A1.061,1.061,0,0,1,27.12,39H25a3.181,3.181,0,0,0,6.361,0h-2.12A1.061,1.061,0,0,1,28.181,40.06Z" transform="translate(1.384 2.215)"/>
      <path id="Trazado_1050325" data-name="Trazado 1050325" d="M39.361,39h-2.12a1.06,1.06,0,0,1-2.12,0H33a3.181,3.181,0,0,0,6.361,0Z" transform="translate(1.866 2.215)"/>
      <path id="Trazado_1050326" data-name="Trazado 1050326" d="M12,36h2.12v9.542H12Z" transform="translate(0.602 2.034)"/>
      <path id="Trazado_1050327" data-name="Trazado 1050327" d="M5,38H7.12v9.542H5Z" transform="translate(0.181 2.155)"/>
      <path id="Trazado_1050328" data-name="Trazado 1050328" d="M47,36h2.12v9.542H47Z" transform="translate(2.708 2.034)"/>
      <path id="Trazado_1050329" data-name="Trazado 1050329" d="M54,38h2.12v9.542H54Z" transform="translate(3.13 2.155)"/>
    </g>
  </g>
</svg>
