<svg xmlns="http://www.w3.org/2000/svg" xmlns:xlink="http://www.w3.org/1999/xlink" width="113" height="113" viewBox="0 0 113 113">
  <defs>
    <filter id="Trazado_982547" x="0" y="0" width="113" height="113" filterUnits="userSpaceOnUse">
      <feOffset dy="3" input="SourceAlpha"/>
      <feGaussianBlur stdDeviation="3" result="blur"/>
      <feFlood flood-opacity="0.161"/>
      <feComposite operator="in" in2="blur"/>
      <feComposite in="SourceGraphic"/>
    </filter>
  </defs>
  <g id="Grupo_1209284" data-name="Grupo 1209284" transform="translate(-1112 -893.608)">
    <g id="Grupo_1209032" data-name="Grupo 1209032" transform="translate(0 -2449.392)">
      <g id="Grupo_1208892" data-name="Grupo 1208892" transform="translate(0 -2284.425)">
        <g id="Grupo_1202104" data-name="Grupo 1202104" transform="translate(0 -1149.226)">
          <g id="Grupo_1201923" data-name="Grupo 1201923" transform="translate(-4174.49 4856.378)">
            <g id="Grupo_1176928" data-name="Grupo 1176928" transform="translate(5295.49 1926.273)">
              <g id="Grupo_1172322" data-name="Grupo 1172322" transform="translate(0 0)">
                <g id="Grupo_1164700" data-name="Grupo 1164700">
                  <g id="Grupo_1160931" data-name="Grupo 1160931">
                    <g id="Grupo_1160749" data-name="Grupo 1160749">
                      <g id="Grupo_1158891" data-name="Grupo 1158891">
                        <g id="Grupo_1157406" data-name="Grupo 1157406">
                          <g id="Grupo_1155793" data-name="Grupo 1155793">
                            <g id="Grupo_1154704" data-name="Grupo 1154704">
                              <g id="Grupo_1150790" data-name="Grupo 1150790">
                                <g id="Grupo_1154214" data-name="Grupo 1154214">
                                  <g id="Grupo_1152583" data-name="Grupo 1152583">
                                    <g id="Grupo_1146973" data-name="Grupo 1146973">
                                      <g id="Grupo_1146954" data-name="Grupo 1146954">
                                        <g transform="matrix(1, 0, 0, 1, -9, -6)" filter="url(#Trazado_982547)">
                                          <g id="Trazado_982547-2" data-name="Trazado 982547" transform="translate(9 6)" fill="#fcebe9">
                                            <path d="M 47.5000114440918 93.49987030029297 C 41.28938293457031 93.49987030029297 35.26534652709961 92.28384399414062 29.5951976776123 89.88558959960938 C 24.11773109436035 87.56881713867188 19.19814491271973 84.25183868408203 14.97310447692871 80.02680206298828 C 10.74805164337158 75.80176544189453 7.43107795715332 70.88218688964844 5.114304542541504 65.40472412109375 C 2.716038227081299 59.73458862304688 1.500011444091797 53.71054840087891 1.500011444091797 47.49993515014648 C 1.500011444091797 41.28932189941406 2.716038227081299 35.26528167724609 5.114304542541504 29.59514808654785 C 7.43107795715332 24.1176815032959 10.74805164337158 19.1981086730957 14.97310447692871 14.97306823730469 C 19.19814491271973 10.74802875518799 24.11773109436035 7.431055068969727 29.5951976776123 5.11428165435791 C 35.26534652709961 2.716028451919556 41.28938293457031 1.500001788139343 47.5000114440918 1.500001788139343 C 53.71063995361328 1.500001788139343 59.73467636108398 2.716028451919556 65.40482330322266 5.11428165435791 C 70.88229370117188 7.431055068969727 75.8018798828125 10.74802875518799 80.02691650390625 14.97306823730469 C 84.25196838378906 19.1981086730957 87.56894683837891 24.1176815032959 89.88571929931641 29.59514808654785 C 92.28398132324219 35.26528167724609 93.50001525878906 41.28932189941406 93.50001525878906 47.49993515014648 C 93.50001525878906 53.71054840087891 92.28398132324219 59.73458862304688 89.88571929931641 65.40472412109375 C 87.56894683837891 70.88218688964844 84.25196838378906 75.80176544189453 80.02691650390625 80.02680206298828 C 75.8018798828125 84.25183868408203 70.88229370117188 87.56881713867188 65.40482330322266 89.88558959960938 C 59.73467636108398 92.28384399414062 53.71063995361328 93.49987030029297 47.5000114440918 93.49987030029297 Z" stroke="none"/>
                                            <path d="M 47.5000114440918 3 C 41.49122619628906 3 35.66378021240234 4.1761474609375 30.17951965332031 6.495796203613281 C 24.880859375 8.7369384765625 20.12153625488281 11.94596862792969 16.03376770019531 16.03373718261719 C 11.94598388671875 20.12149047851562 8.736968994140625 24.88081359863281 6.495811462402344 30.17947387695312 C 4.176162719726562 35.66371917724609 3.000007629394531 41.49116516113281 3.000007629394531 47.49993515014648 C 3.000007629394531 53.50870513916016 4.176162719726562 59.33615112304688 6.495811462402344 64.82039642333984 C 8.736968994140625 70.11905670166016 11.94598388671875 74.87837982177734 16.03376770019531 78.96613311767578 C 20.12153625488281 83.05390167236328 24.880859375 86.26293182373047 30.17951965332031 88.50407409667969 C 35.66378021240234 90.82372283935547 41.49122619628906 91.99987030029297 47.5000114440918 91.99987030029297 C 53.50879669189453 91.99987030029297 59.33624267578125 90.82372283935547 64.82050323486328 88.50407409667969 C 70.11916351318359 86.26293182373047 74.87848663330078 83.05390167236328 78.96625518798828 78.96613311767578 C 83.05403900146484 74.87837982177734 86.2630615234375 70.11905670166016 88.50421142578125 64.82039642333984 C 90.82386016845703 59.33615112304688 92.00001525878906 53.50870513916016 92.00001525878906 47.49993515014648 C 92.00001525878906 41.49116516113281 90.82386016845703 35.66371917724609 88.50421142578125 30.17947387695312 C 86.2630615234375 24.88081359863281 83.05403900146484 20.12149047851562 78.96625518798828 16.03373718261719 C 74.87848663330078 11.94596862792969 70.11916351318359 8.7369384765625 64.82050323486328 6.495796203613281 C 59.33624267578125 4.1761474609375 53.50879669189453 3 47.5000114440918 3 M 47.5000114440918 0 C 73.73353576660156 0 95.00001525878906 21.26644134521484 95.00001525878906 47.49993515014648 C 95.00001525878906 73.73342895507812 73.73353576660156 94.99987030029297 47.5000114440918 94.99987030029297 C 21.26648712158203 94.99987030029297 7.62939453125e-06 73.73342895507812 7.62939453125e-06 47.49993515014648 C 7.62939453125e-06 21.26644134521484 21.26648712158203 0 47.5000114440918 0 Z" stroke="none" fill="#e44b36"/>
                                          </g>
                                        </g>
                                      </g>
                                    </g>
                                  </g>
                                </g>
                              </g>
                            </g>
                          </g>
                        </g>
                      </g>
                    </g>
                  </g>
                </g>
              </g>
            </g>
          </g>
        </g>
      </g>
    </g>
    <g id="Smartphone-Car-Security-Wireless-Internet" transform="translate(1138 915.237)">
      <path id="Trazado_1049520" data-name="Trazado 1049520" d="M57.226,30.05h4.05A4.05,4.05,0,0,0,57.226,26H39V40.176H60.264a1.013,1.013,0,0,0,1.013-1.013V34.1h-4.05Z" transform="translate(0.465 0.289)" fill="#ff9811"/>
      <path id="Trazado_1049521" data-name="Trazado 1049521" d="M39.277,20.05h7.291l-2.633-3.291A2.032,2.032,0,0,0,42.355,16H29.191a2.049,2.049,0,0,0-1.661.861l-6.177,8.83a1.013,1.013,0,0,1-.83.435H18.013A1.013,1.013,0,0,0,17,27.138V39.289A1.013,1.013,0,0,0,18.013,40.3H39.277V26.126H26.113l4.05-6.075Z" transform="translate(0.189 0.164)" fill="#ff9811"/>
      <path id="Trazado_1049522" data-name="Trazado 1049522" d="M57,30h4.05v4.05H57Z" transform="translate(0.692 0.34)" fill="#e6e7e8"/>
      <circle id="Elipse_12562" data-name="Elipse 12562" cx="5" cy="5" r="5" transform="translate(47 35.742)" fill="#57565c"/>
      <path id="Trazado_1049523" data-name="Trazado 1049523" d="M51.637,26.075H39V20h7.291l4.557,5.691a1.013,1.013,0,0,0,.79.385Z" transform="translate(0.465 0.214)" fill="#e6e7e8"/>
      <path id="Trazado_1049524" data-name="Trazado 1049524" d="M39.164,20v6.075H26L30.05,20Z" transform="translate(0.302 0.214)" fill="#e6e7e8"/>
      <circle id="Elipse_12563" data-name="Elipse 12563" cx="5" cy="5" r="5" transform="translate(22 35.742)" fill="#57565c"/>
      <path id="Trazado_1049525" data-name="Trazado 1049525" d="M21.226,37.05V57.3a4.05,4.05,0,0,1-4.05,4.05H7.05a3.87,3.87,0,0,1-.689-.061A4.04,4.04,0,0,1,3,57.3V37.05A4.05,4.05,0,0,1,7.05,33H17.176A4.05,4.05,0,0,1,21.226,37.05Z" transform="translate(0.013 0.377)" fill="#5aaae7"/>
      <path id="Trazado_1049526" data-name="Trazado 1049526" d="M21.185,38.11V57.238a4.05,4.05,0,0,1-4.05,4.05H7.009a3.87,3.87,0,0,1-.689-.061Z" transform="translate(0.054 0.442)" fill="#3d9ae2"/>
      <path id="Trazado_1049527" data-name="Trazado 1049527" d="M57.692,25.185H52.1l-7.189-8.992a3.05,3.05,0,0,0-2.369-1.134H40.478V13.034a1.046,1.046,0,0,0-.294-.719L38.159,10.29l-1.438,1.438,1.732,1.721v1.61H29.38a3.059,3.059,0,0,0-2.491,1.3l-6.177,8.83H18.2a2.031,2.031,0,0,0-2.025,2.025v5.063H7.063A5.063,5.063,0,0,0,2,37.336V57.587A5.063,5.063,0,0,0,7.063,62.65H17.189a5.063,5.063,0,0,0,5.063-5.063V43.725A6.067,6.067,0,0,0,33.3,41.386H45.632a6.068,6.068,0,0,0,11.969,0h3.129a2.031,2.031,0,0,0,2.025-2.025V30.248a5.063,5.063,0,0,0-5.063-5.063ZM46.27,21.135l3.24,4.05H40.478v-4.05ZM20.226,57.587a3.047,3.047,0,0,1-3.038,3.038H7.063a3.047,3.047,0,0,1-3.038-3.038V37.336A3.047,3.047,0,0,1,7.063,34.3H17.189a3.047,3.047,0,0,1,3.038,3.038Zm7.088-13.164a4.05,4.05,0,1,1,4.05-4.05A4.05,4.05,0,0,1,27.314,44.424Zm11.138-5.063H33.3a6.075,6.075,0,0,0-11.078-2.3,5.063,5.063,0,0,0-4.02-4.688V27.21h2.511a2.049,2.049,0,0,0,1.661-.861l6.167-8.83a1.056,1.056,0,0,1,.84-.435H42.544a1.035,1.035,0,0,1,.79.375L44.65,19.11h-14.3a1.013,1.013,0,0,0-.84.456l-4.05,6.075a.975.975,0,0,0-.051,1.033,1,1,0,0,0,.891.537H38.453Zm0-14.176H28.2l2.7-4.05h7.554ZM51.616,44.424a4.05,4.05,0,1,1,4.05-4.05A4.05,4.05,0,0,1,51.616,44.424Zm9.113-5.063H57.6a6.068,6.068,0,0,0-11.969,0H40.478V27.21H57.692a3.048,3.048,0,0,1,2.855,2.025H57.692a1.013,1.013,0,0,0-1.013,1.013V34.3a1.013,1.013,0,0,0,1.013,1.013h3.038Zm0-6.075H58.7V31.26h2.025Z" transform="translate(0 0.092)"/>
      <path id="Trazado_1049528" data-name="Trazado 1049528" d="M42,29h4.05v2.025H42Z" transform="translate(0.503 0.327)"/>
      <path id="Trazado_1049529" data-name="Trazado 1049529" d="M26,29h4.05v2.025H26Z" transform="translate(0.302 0.327)"/>
      <path id="Trazado_1049530" data-name="Trazado 1049530" d="M26,39h2.025v2.025H26Z" transform="translate(0.302 0.453)"/>
      <path id="Trazado_1049531" data-name="Trazado 1049531" d="M50,39h2.025v2.025H50Z" transform="translate(0.604 0.453)"/>
      <path id="Trazado_1049532" data-name="Trazado 1049532" d="M10,36h4.05v2.025H10Z" transform="translate(0.101 0.415)"/>
      <path id="Trazado_1049533" data-name="Trazado 1049533" d="M6,36H8.025v2.025H6Z" transform="translate(0.05 0.415)"/>
      <path id="Trazado_1049534" data-name="Trazado 1049534" d="M10,56h4.05v2.025H10Z" transform="translate(0.101 0.667)"/>
      <path id="Trazado_1049535" data-name="Trazado 1049535" d="M11,50h2.025v2.025H11Z" transform="translate(0.113 0.591)"/>
      <path id="Trazado_1049536" data-name="Trazado 1049536" d="M8.464,47.482,9.9,48.914a3.044,3.044,0,0,1,4.3,0l1.432-1.432a5.071,5.071,0,0,0-7.161,0Z" transform="translate(0.081 0.541)"/>
      <path id="Trazado_1049537" data-name="Trazado 1049537" d="M5.636,44.669,7.068,46.1a7.088,7.088,0,0,1,10.025,0l1.432-1.432a9.113,9.113,0,0,0-12.888,0Z" transform="translate(0.046 0.491)"/>
      <path id="Trazado_1049538" data-name="Trazado 1049538" d="M35.025,11.05A2.025,2.025,0,0,1,37.05,9.025V7A4.05,4.05,0,0,0,33,11.05Z" transform="translate(0.39 0.05)"/>
      <path id="Trazado_1049539" data-name="Trazado 1049539" d="M37.1,5.025V3A8.11,8.11,0,0,0,29,11.1h2.025A6.082,6.082,0,0,1,37.1,5.025Z" transform="translate(0.34)"/>
      <path id="Trazado_1049540" data-name="Trazado 1049540" d="M13.025,9.025H24.164V7H12.013A1.013,1.013,0,0,0,11,8.013V30.289h2.025Z" transform="translate(0.113 0.05)"/>
      <path id="Trazado_1049541" data-name="Trazado 1049541" d="M7,7H9.025V9.025H7Z" transform="translate(0.063 0.05)"/>
      <path id="Trazado_1049542" data-name="Trazado 1049542" d="M7,11H9.025v2.025H7Z" transform="translate(0.063 0.101)"/>
      <path id="Trazado_1049543" data-name="Trazado 1049543" d="M7,15H9.025v2.025H7Z" transform="translate(0.063 0.151)"/>
      <path id="Trazado_1049544" data-name="Trazado 1049544" d="M7,19H9.025v2.025H7Z" transform="translate(0.063 0.201)"/>
      <path id="Trazado_1049545" data-name="Trazado 1049545" d="M7,23H9.025v2.025H7Z" transform="translate(0.063 0.252)"/>
      <path id="Trazado_1049546" data-name="Trazado 1049546" d="M7,27H9.025v2.025H7Z" transform="translate(0.063 0.302)"/>
      <path id="Trazado_1049547" data-name="Trazado 1049547" d="M11,3h2.025V5.025H11Z" transform="translate(0.113)"/>
      <path id="Trazado_1049548" data-name="Trazado 1049548" d="M15,3h2.025V5.025H15Z" transform="translate(0.164)"/>
      <path id="Trazado_1049549" data-name="Trazado 1049549" d="M19,3h2.025V5.025H19Z" transform="translate(0.214)"/>
    </g>
  </g>
</svg>
