<svg xmlns="http://www.w3.org/2000/svg" xmlns:xlink="http://www.w3.org/1999/xlink" width="113" height="113" viewBox="0 0 113 113">
  <defs>
    <filter id="Trazado_982547" x="0" y="0" width="113" height="113" filterUnits="userSpaceOnUse">
      <feOffset dy="3" input="SourceAlpha"/>
      <feGaussianBlur stdDeviation="3" result="blur"/>
      <feFlood flood-opacity="0.161"/>
      <feComposite operator="in" in2="blur"/>
      <feComposite in="SourceGraphic"/>
    </filter>
  </defs>
  <g id="Grupo_1209300" data-name="Grupo 1209300" transform="translate(-2251.49 -893.608)">
    <g id="Grupo_1209034" data-name="Grupo 1209034" transform="translate(1458 -2449.392)">
      <g id="Grupo_1208891" data-name="Grupo 1208891" transform="translate(0 -2284.425)">
        <g id="Grupo_1177675" data-name="Grupo 1177675" transform="translate(-4493 3707.152)">
          <g id="Grupo_1176928" data-name="Grupo 1176928" transform="translate(5295.49 1926.273)">
            <g id="Grupo_1172322" data-name="Grupo 1172322" transform="translate(0 0)">
              <g id="Grupo_1164700" data-name="Grupo 1164700">
                <g id="Grupo_1160931" data-name="Grupo 1160931">
                  <g id="Grupo_1160749" data-name="Grupo 1160749">
                    <g id="Grupo_1158891" data-name="Grupo 1158891">
                      <g id="Grupo_1157406" data-name="Grupo 1157406">
                        <g id="Grupo_1155793" data-name="Grupo 1155793">
                          <g id="Grupo_1154704" data-name="Grupo 1154704">
                            <g id="Grupo_1150790" data-name="Grupo 1150790">
                              <g id="Grupo_1154214" data-name="Grupo 1154214">
                                <g id="Grupo_1152583" data-name="Grupo 1152583">
                                  <g id="Grupo_1146973" data-name="Grupo 1146973">
                                    <g id="Grupo_1146954" data-name="Grupo 1146954">
                                      <g transform="matrix(1, 0, 0, 1, -9, -6)" filter="url(#Trazado_982547)">
                                        <g id="Trazado_982547-2" data-name="Trazado 982547" transform="translate(9 6)" fill="#fcebe9">
                                          <path d="M 47.5000114440918 93.49987030029297 C 41.28938293457031 93.49987030029297 35.26534652709961 92.28384399414062 29.5951976776123 89.88558959960938 C 24.11773109436035 87.56881713867188 19.19814491271973 84.25183868408203 14.97310447692871 80.02680206298828 C 10.74805164337158 75.80176544189453 7.43107795715332 70.88218688964844 5.114304542541504 65.40472412109375 C 2.716038227081299 59.73458862304688 1.500011444091797 53.71054840087891 1.500011444091797 47.49993515014648 C 1.500011444091797 41.28932189941406 2.716038227081299 35.26528167724609 5.114304542541504 29.59514808654785 C 7.43107795715332 24.1176815032959 10.74805164337158 19.1981086730957 14.97310447692871 14.97306823730469 C 19.19814491271973 10.74802875518799 24.11773109436035 7.431055068969727 29.5951976776123 5.11428165435791 C 35.26534652709961 2.716028451919556 41.28938293457031 1.500001788139343 47.5000114440918 1.500001788139343 C 53.71063995361328 1.500001788139343 59.73467636108398 2.716028451919556 65.40482330322266 5.11428165435791 C 70.88229370117188 7.431055068969727 75.8018798828125 10.74802875518799 80.02691650390625 14.97306823730469 C 84.25196838378906 19.1981086730957 87.56894683837891 24.1176815032959 89.88571929931641 29.59514808654785 C 92.28398132324219 35.26528167724609 93.50001525878906 41.28932189941406 93.50001525878906 47.49993515014648 C 93.50001525878906 53.71054840087891 92.28398132324219 59.73458862304688 89.88571929931641 65.40472412109375 C 87.56894683837891 70.88218688964844 84.25196838378906 75.80176544189453 80.02691650390625 80.02680206298828 C 75.8018798828125 84.25183868408203 70.88229370117188 87.56881713867188 65.40482330322266 89.88558959960938 C 59.73467636108398 92.28384399414062 53.71063995361328 93.49987030029297 47.5000114440918 93.49987030029297 Z" stroke="none"/>
                                          <path d="M 47.5000114440918 3 C 41.49122619628906 3 35.66378021240234 4.1761474609375 30.17951965332031 6.495796203613281 C 24.880859375 8.7369384765625 20.12153625488281 11.94596862792969 16.03376770019531 16.03373718261719 C 11.94598388671875 20.12149047851562 8.736968994140625 24.88081359863281 6.495811462402344 30.17947387695312 C 4.176162719726562 35.66371917724609 3.000007629394531 41.49116516113281 3.000007629394531 47.49993515014648 C 3.000007629394531 53.50870513916016 4.176162719726562 59.33615112304688 6.495811462402344 64.82039642333984 C 8.736968994140625 70.11905670166016 11.94598388671875 74.87837982177734 16.03376770019531 78.96613311767578 C 20.12153625488281 83.05390167236328 24.880859375 86.26293182373047 30.17951965332031 88.50407409667969 C 35.66378021240234 90.82372283935547 41.49122619628906 91.99987030029297 47.5000114440918 91.99987030029297 C 53.50879669189453 91.99987030029297 59.33624267578125 90.82372283935547 64.82050323486328 88.50407409667969 C 70.11916351318359 86.26293182373047 74.87848663330078 83.05390167236328 78.96625518798828 78.96613311767578 C 83.05403900146484 74.87837982177734 86.2630615234375 70.11905670166016 88.50421142578125 64.82039642333984 C 90.82386016845703 59.33615112304688 92.00001525878906 53.50870513916016 92.00001525878906 47.49993515014648 C 92.00001525878906 41.49116516113281 90.82386016845703 35.66371917724609 88.50421142578125 30.17947387695312 C 86.2630615234375 24.88081359863281 83.05403900146484 20.12149047851562 78.96625518798828 16.03373718261719 C 74.87848663330078 11.94596862792969 70.11916351318359 8.7369384765625 64.82050323486328 6.495796203613281 C 59.33624267578125 4.1761474609375 53.50879669189453 3 47.5000114440918 3 M 47.5000114440918 0 C 73.73353576660156 0 95.00001525878906 21.26644134521484 95.00001525878906 47.49993515014648 C 95.00001525878906 73.73342895507812 73.73353576660156 94.99987030029297 47.5000114440918 94.99987030029297 C 21.26648712158203 94.99987030029297 7.62939453125e-06 73.73342895507812 7.62939453125e-06 47.49993515014648 C 7.62939453125e-06 21.26644134521484 21.26648712158203 0 47.5000114440918 0 Z" stroke="none" fill="#e44b36"/>
                                        </g>
                                      </g>
                                    </g>
                                  </g>
                                </g>
                              </g>
                            </g>
                          </g>
                        </g>
                      </g>
                    </g>
                  </g>
                </g>
              </g>
            </g>
          </g>
        </g>
      </g>
    </g>
    <g id="workers_1372887" transform="translate(2278.124 913.317)">
      <path id="Trazado_1049587" data-name="Trazado 1049587" d="M106.426,32.507V26.794l-5.231-1.04a17.282,17.282,0,0,0-2.2-5.312l2.965-4.436-4.04-4.04-4.436,2.965a17.237,17.237,0,0,0-5.31-2.2L87.133,7.5H81.419l-1.04,5.231a17.225,17.225,0,0,0-5.31,2.2l-4.436-2.965-4.039,4.04,2.965,4.436a17.284,17.284,0,0,0-2.2,5.312l-5.231,1.04v5.712l5.231,1.04a17.283,17.283,0,0,0,2.2,5.312l-2.965,4.436,4.039,4.039,4.436-2.965a17.237,17.237,0,0,0,5.31,2.2l1.04,5.231h5.714l1.04-5.231a17.225,17.225,0,0,0,5.31-2.2l4.436,2.965,4.04-4.039-2.965-4.436a17.283,17.283,0,0,0,2.2-5.312Zm0,0" transform="translate(-54.41 -6.568)" fill="#618baa"/>
      <path id="Trazado_1049588" data-name="Trazado 1049588" d="M163.354,224.722v12.5H137.863v-12.5a8.62,8.62,0,0,1,8.622-8.624h8.246a8.62,8.62,0,0,1,8.623,8.624Zm0,0" transform="translate(-120.743 -189.262)" fill="#43a3f9"/>
      <path id="Trazado_1049589" data-name="Trazado 1049589" d="M203.434,216.339a8.115,8.115,0,0,1-12.247,0,8.59,8.59,0,0,1,2-.234h8.245A8.558,8.558,0,0,1,203.434,216.339Zm0,0" transform="translate(-167.446 -189.269)" fill="#1685fb"/>
      <path id="Trazado_1049590" data-name="Trazado 1049590" d="M289.23,150.619h-3.152v-5h3.152a1.846,1.846,0,0,1,1.846,1.847v1.305A1.846,1.846,0,0,1,289.23,150.619Zm0,0" transform="translate(-250.552 -127.537)" fill="#ffae85"/>
      <path id="Trazado_1049591" data-name="Trazado 1049591" d="M156.511,150.619h3.152v-5h-3.152a1.847,1.847,0,0,0-1.847,1.847v1.305A1.847,1.847,0,0,0,156.511,150.619Zm0,0" transform="translate(-135.457 -127.537)" fill="#ffae85"/>
      <path id="Trazado_1049592" data-name="Trazado 1049592" d="M193.2,137.776a6.707,6.707,0,0,1-6.707-6.707v-6.233H199.9v6.233a6.707,6.707,0,0,1-6.707,6.707Zm0,0" transform="translate(-163.33 -109.333)" fill="#fecbaa"/>
      <path id="Trazado_1049593" data-name="Trazado 1049593" d="M189.723,85.164v-.5a6.594,6.594,0,0,0-6.594-6.594h-3.59a6.594,6.594,0,0,0-6.594,6.594v.5Zm0,0" transform="translate(-151.469 -68.375)" fill="#bddff4"/>
      <path id="Trazado_1049594" data-name="Trazado 1049594" d="M224,67.352H222.29a1.6,1.6,0,0,1-1.6-1.6v-2a1.6,1.6,0,0,1,1.6-1.6H224a1.6,1.6,0,0,1,1.6,1.6v2A1.6,1.6,0,0,1,224,67.352Zm0,0" transform="translate(-193.282 -54.431)" fill="#e3f4ff"/>
      <path id="Trazado_1049595" data-name="Trazado 1049595" d="M179.812,135.386H162.2a1.047,1.047,0,1,1,0-2.094h17.612a1.047,1.047,0,1,1,0,2.094Zm0,0" transform="translate(-141.14 -116.74)" fill="#e3f4ff"/>
      <path id="Trazado_1049596" data-name="Trazado 1049596" d="M33,342.984v12.5H7.507v-12.5a8.62,8.62,0,0,1,8.622-8.624h8.246A8.62,8.62,0,0,1,33,342.984Zm0,0" transform="translate(-6.575 -292.838)" fill="#fc3e81"/>
      <path id="Trazado_1049597" data-name="Trazado 1049597" d="M73.082,334.6a8.113,8.113,0,0,1-12.246,0,8.608,8.608,0,0,1,2-.234h8.245A8.607,8.607,0,0,1,73.082,334.6Zm0,0" transform="translate(-53.281 -292.841)" fill="#f01054"/>
      <path id="Trazado_1049598" data-name="Trazado 1049598" d="M158.878,268.881h-3.152v-5h3.152a1.846,1.846,0,0,1,1.846,1.847v1.3A1.847,1.847,0,0,1,158.878,268.881Zm0,0" transform="translate(-136.388 -231.113)" fill="#ffae85"/>
      <path id="Trazado_1049599" data-name="Trazado 1049599" d="M26.159,268.881h3.152v-5H26.159a1.846,1.846,0,0,0-1.846,1.847v1.3A1.847,1.847,0,0,0,26.159,268.881Zm0,0" transform="translate(-21.293 -231.113)" fill="#ffae85"/>
      <path id="Trazado_1049600" data-name="Trazado 1049600" d="M62.841,256.038a6.707,6.707,0,0,1-6.707-6.707V243.1H69.547v6.233a6.707,6.707,0,0,1-6.707,6.707Zm0,0" transform="translate(-49.163 -212.909)" fill="#fecbaa"/>
      <path id="Trazado_1049601" data-name="Trazado 1049601" d="M59.367,203.425v-.5a6.594,6.594,0,0,0-6.594-6.594h-3.59a6.594,6.594,0,0,0-6.594,6.594v.5Zm0,0" transform="translate(-37.301 -171.951)" fill="#fd9e28"/>
      <path id="Trazado_1049602" data-name="Trazado 1049602" d="M93.65,182.111H91.935a1.6,1.6,0,0,1-1.6-1.6v-2.495a1.6,1.6,0,0,1,1.6-1.6H93.65a1.6,1.6,0,0,1,1.6,1.6v2.495A1.6,1.6,0,0,1,93.65,182.111Zm0,0" transform="translate(-79.114 -154.503)" fill="#fede93"/>
      <path id="Trazado_1049603" data-name="Trazado 1049603" d="M49.46,253.648H31.848a1.047,1.047,0,1,1,0-2.094H49.46a1.047,1.047,0,1,1,0,2.094Zm0,0" transform="translate(-26.976 -220.316)" fill="#fede93"/>
      <path id="Trazado_1049604" data-name="Trazado 1049604" d="M293.7,342.984v12.5H268.214v-12.5a8.62,8.62,0,0,1,8.623-8.624h8.246a8.62,8.62,0,0,1,8.622,8.624Zm0,0" transform="translate(-234.907 -292.838)" fill="#fc3e81"/>
      <path id="Trazado_1049605" data-name="Trazado 1049605" d="M333.789,334.6a8.114,8.114,0,0,1-12.247,0,8.611,8.611,0,0,1,2-.234h8.245A8.614,8.614,0,0,1,333.789,334.6Zm0,0" transform="translate(-281.613 -292.841)" fill="#f01054"/>
      <path id="Trazado_1049606" data-name="Trazado 1049606" d="M419.586,268.881h-3.152v-5h3.152a1.847,1.847,0,0,1,1.847,1.847v1.3A1.847,1.847,0,0,1,419.586,268.881Zm0,0" transform="translate(-364.72 -231.113)" fill="#ffae85"/>
      <path id="Trazado_1049607" data-name="Trazado 1049607" d="M286.867,268.881h3.152v-5h-3.152a1.846,1.846,0,0,0-1.847,1.847v1.3A1.847,1.847,0,0,0,286.867,268.881Zm0,0" transform="translate(-249.625 -231.113)" fill="#ffae85"/>
      <path id="Trazado_1049608" data-name="Trazado 1049608" d="M323.551,256.038a6.707,6.707,0,0,1-6.707-6.707V243.1h13.414v6.233a6.707,6.707,0,0,1-6.707,6.707Zm0,0" transform="translate(-277.498 -212.909)" fill="#fecbaa"/>
      <path id="Trazado_1049609" data-name="Trazado 1049609" d="M320.074,203.425v-.5a6.594,6.594,0,0,0-6.594-6.594h-3.59a6.594,6.594,0,0,0-6.594,6.594v.5Zm0,0" transform="translate(-265.632 -171.951)" fill="#fd9e28"/>
      <path id="Trazado_1049610" data-name="Trazado 1049610" d="M354.357,182.111h-1.715a1.6,1.6,0,0,1-1.6-1.6v-2.495a1.6,1.6,0,0,1,1.6-1.6h1.715a1.6,1.6,0,0,1,1.6,1.6v2.495A1.6,1.6,0,0,1,354.357,182.111Zm0,0" transform="translate(-307.446 -154.503)" fill="#fede93"/>
      <path id="Trazado_1049611" data-name="Trazado 1049611" d="M310.168,253.648H292.555a1.047,1.047,0,1,1,0-2.094h17.613a1.047,1.047,0,1,1,0,2.094Zm0,0" transform="translate(-255.308 -220.316)" fill="#fede93"/>
      <path id="Trazado_1049612" data-name="Trazado 1049612" d="M209.77,162.371h-.015a.931.931,0,1,0,0,1.863h.015a.931.931,0,0,0,0-1.863Zm0,0" transform="translate(-182.892 -142.207)"/>
      <path id="Trazado_1049613" data-name="Trazado 1049613" d="M257.993,162.371h-.015a.931.931,0,1,0,0,1.863h.015a.931.931,0,1,0,0-1.863Zm0,0" transform="translate(-225.126 -142.207)"/>
      <path id="Trazado_1049614" data-name="Trazado 1049614" d="M217.745,270.254a3.226,3.226,0,1,0,3.226,3.226A3.23,3.23,0,0,0,217.745,270.254Zm0,4.589a1.363,1.363,0,1,1,1.364-1.363A1.365,1.365,0,0,1,217.745,274.843Zm0,0" transform="translate(-187.88 -236.693)"/>
      <path id="Trazado_1049615" data-name="Trazado 1049615" d="M228.5,327.07h-1.793a.931.931,0,0,0,0,1.863H228.5a.931.931,0,0,0,0-1.863Zm0,0" transform="translate(-197.74 -286.453)"/>
      <path id="Trazado_1049616" data-name="Trazado 1049616" d="M3,356.9a.931.931,0,0,0-1.3.234A9.5,9.5,0,0,0,0,362.583v12.5a.931.931,0,0,0,1.863,0v-12.5a7.645,7.645,0,0,1,1.37-4.383A.931.931,0,0,0,3,356.9Zm0,0" transform="translate(0 -312.437)"/>
      <path id="Trazado_1049617" data-name="Trazado 1049617" d="M79.419,280.633H79.4A.931.931,0,0,0,79.4,282.5h.022a.931.931,0,0,0-.007-1.863Zm0,0" transform="translate(-68.728 -245.783)"/>
      <path id="Trazado_1049618" data-name="Trazado 1049618" d="M127.638,280.633h-.023a.931.931,0,0,0,.007,1.863h.023a.931.931,0,0,0-.007-1.863Zm0,0" transform="translate(-110.958 -245.783)"/>
      <path id="Trazado_1049619" data-name="Trazado 1049619" d="M51.256,393.109a.931.931,0,0,0-.931.931v12.9a.931.931,0,0,0,1.863,0v-12.9A.931.931,0,0,0,51.256,393.109Zm0,0" transform="translate(-44.075 -344.292)"/>
      <path id="Trazado_1049620" data-name="Trazado 1049620" d="M155.892,393.109a.931.931,0,0,0-.931.931v12.9a.931.931,0,1,0,1.863,0v-12.9A.931.931,0,0,0,155.892,393.109Zm0,0" transform="translate(-135.718 -344.292)"/>
      <path id="Trazado_1049621" data-name="Trazado 1049621" d="M87.391,388.516a3.226,3.226,0,1,0,3.226,3.226A3.23,3.23,0,0,0,87.391,388.516Zm0,4.589a1.363,1.363,0,1,1,1.363-1.364A1.365,1.365,0,0,1,87.391,393.105Zm0,0" transform="translate(-73.713 -340.269)"/>
      <path id="Trazado_1049622" data-name="Trazado 1049622" d="M98.146,445.332H96.353a.931.931,0,0,0,0,1.863h1.793a.931.931,0,1,0,0-1.863Zm0,0" transform="translate(-83.572 -390.029)"/>
      <path id="Trazado_1049623" data-name="Trazado 1049623" d="M71.9,43.641a9.531,9.531,0,0,0-4.886-2.814A7.621,7.621,0,0,0,68.069,38.7H69.59a2.781,2.781,0,0,0,2.778-2.778v-1.3a2.783,2.783,0,0,0-.837-1.987,2,2,0,0,0,.032-.344,1.98,1.98,0,0,0-1.49-1.915,7.533,7.533,0,0,0-2.4-4.923V20.225a.931.931,0,0,0-.75-.913l-4.65-.924A18.151,18.151,0,0,0,60.411,13.9l2.636-3.944a.932.932,0,0,0-.116-1.176l-4.04-4.039a.931.931,0,0,0-1.176-.116L53.772,7.261A18.141,18.141,0,0,0,49.284,5.4L48.36.75A.932.932,0,0,0,47.446,0H41.733a.931.931,0,0,0-.913.75L39.9,5.4a18.136,18.136,0,0,0-4.488,1.861L31.464,4.625a.932.932,0,0,0-1.176.116L26.249,8.78a.932.932,0,0,0-.116,1.176L28.769,13.9a18.125,18.125,0,0,0-1.861,4.488l-4.65.924a.931.931,0,0,0-.749.913v5.228a7.551,7.551,0,0,0-2.4,4.917,1.98,1.98,0,0,0-1.49,1.915,1.953,1.953,0,0,0,.032.343,2.782,2.782,0,0,0-.838,1.987v1.305A2.781,2.781,0,0,0,19.59,38.7h1.521a7.6,7.6,0,0,0,1.057,2.128,9.469,9.469,0,0,0-2.131.755.931.931,0,1,0,.828,1.669,7.6,7.6,0,0,1,2.885-.777,7.615,7.615,0,0,0,9.3,0,7.672,7.672,0,0,1,7.162,7.672v12.5a.931.931,0,1,0,1.863,0v-12.5a9.529,9.529,0,0,0-3.056-7.013V38.026a2.772,2.772,0,0,0,.968-2.1v-1.3a2.782,2.782,0,0,0-.838-1.987,1.958,1.958,0,0,0,.032-.343A1.98,1.98,0,0,0,37.7,30.37a7.456,7.456,0,0,0-.413-1.912,7.6,7.6,0,0,1,2.653-.671,7.615,7.615,0,0,0,9.306,0,7.586,7.586,0,0,1,2.652.669,7.452,7.452,0,0,0-.411,1.914,1.963,1.963,0,0,0-1.458,2.259,2.782,2.782,0,0,0-.838,1.987v1.305a2.773,2.773,0,0,0,.968,2.1v5.119c-.171.159-.339.323-.5.5A9.524,9.524,0,0,0,47.1,50.146v12.5a.931.931,0,1,0,1.863,0v-12.5a7.724,7.724,0,0,1,7.091-7.67l.065-.008a7.616,7.616,0,0,0,9.319,0l.064.008a7.723,7.723,0,0,1,7.091,7.67v3.872a.931.931,0,0,0,1.863,0V50.146A9.523,9.523,0,0,0,71.9,43.64Zm-18.748-6.8H51.966a.916.916,0,0,1-.915-.915v-1.3a.915.915,0,0,1,.156-.507,1.973,1.973,0,0,0,.765.154h1.168v2.158Q53.14,36.631,53.151,36.837Zm4.235-11.295V26a2.535,2.535,0,0,0,2.462,2.53c0,.014,0,.027,0,.04v1.732H53.361a5.679,5.679,0,0,1,4.025-4.765Zm2.534,1.134A.672.672,0,0,1,59.249,26V23.51a.672.672,0,0,1,.671-.671h1.715a.672.672,0,0,1,.671.671V26a.672.672,0,0,1-.671.671ZM51.971,32.4a.116.116,0,0,1,0-.231H69.583a.116.116,0,1,1,0,.231Zm18.534,3.52a.917.917,0,0,1-.915.915H68.4c.007-.137.012-.276.012-.415V34.264h1.168a1.973,1.973,0,0,0,.765-.154.915.915,0,0,1,.156.507Zm-2.311-5.614H61.709V28.575c0-.014,0-.027,0-.04A2.535,2.535,0,0,0,64.169,26v-.463a5.678,5.678,0,0,1,4.025,4.765ZM25.011,25.541V26a2.535,2.535,0,0,0,2.462,2.53c0,.014,0,.027,0,.04v1.732H20.986a5.7,5.7,0,0,1,4.025-4.765ZM31.794,26v-.463a5.694,5.694,0,0,1,4.025,4.766H29.334V28.575c0-.014,0-.027,0-.04A2.535,2.535,0,0,0,31.794,26Zm6.336,8.612v1.3a.916.916,0,0,1-.915.915H36.029c.007-.137.012-.276.012-.415V34.264h1.168a1.972,1.972,0,0,0,.765-.154A.911.911,0,0,1,38.129,34.616ZM19.6,32.4a.116.116,0,0,1,0-.231H37.208a.116.116,0,0,1,0,.231ZM29.931,26a.672.672,0,0,1-.671.671H27.545A.672.672,0,0,1,26.874,26V23.51a.672.672,0,0,1,.671-.671H29.26a.672.672,0,0,1,.671.671ZM19.59,36.837a.916.916,0,0,1-.915-.915v-1.3a.915.915,0,0,1,.156-.507,1.973,1.973,0,0,0,.765.154h1.168v2.158q0,.209.012.415Zm3.037-.415V34.264H34.178v2.158a5.775,5.775,0,0,1-11.551,0Zm12.01,4.4A7.631,7.631,0,0,0,35.694,38.7h1.467v3.085a9.481,9.481,0,0,0-2.524-.958ZM43.66,13.849c0,.014,0,.027,0,.04v1.732H37.173A5.677,5.677,0,0,1,41.2,10.856v.463a2.535,2.535,0,0,0,2.462,2.53ZM54.317,19.93v1.306a.916.916,0,0,1-.915.915H52.216c.008-.137.012-.276.012-.415V19.578H53.4a1.968,1.968,0,0,0,.766-.155.913.913,0,0,1,.155.507ZM53.4,17.484a.116.116,0,0,1,0,.231H35.784a.116.116,0,1,1,0-.231ZM43.733,11.99a.672.672,0,0,1-.671-.671v-2a.672.672,0,0,1,.671-.671h1.715a.672.672,0,0,1,.671.671v2a.672.672,0,0,1-.671.671Zm-8.87,7.94a.909.909,0,0,1,.155-.507,1.968,1.968,0,0,0,.767.155h1.168v2.158c0,.139,0,.277.012.415H35.778a.916.916,0,0,1-.915-.915Zm3.952,1.806V19.578H50.366v2.158a5.776,5.776,0,0,1-11.551,0Zm12.012,4.4a7.623,7.623,0,0,0,1.056-2.125H53.4a2.781,2.781,0,0,0,2.778-2.778V19.93a2.774,2.774,0,0,0-.838-1.987,1.952,1.952,0,0,0,.032-.343,1.98,1.98,0,0,0-1.491-1.915,7.438,7.438,0,0,0-.734-2.693.931.931,0,1,0-1.674.817,5.6,5.6,0,0,1,.532,1.812H45.521V13.89c0-.014,0-.027,0-.04a2.536,2.536,0,0,0,2.462-2.531v-.463a5.634,5.634,0,0,1,1.078.442.932.932,0,0,0,.882-1.641,7.454,7.454,0,0,0-1.994-.728,2.535,2.535,0,0,0-2.5-2.142H43.733a2.535,2.535,0,0,0-2.5,2.141A7.539,7.539,0,0,0,35.3,15.685a1.962,1.962,0,0,0-1.458,2.26A2.789,2.789,0,0,0,33,19.93v1.306a2.781,2.781,0,0,0,2.778,2.778H37.3a7.62,7.62,0,0,0,1.056,2.126,9.379,9.379,0,0,0-1.911.653,7.537,7.537,0,0,0-4.649-3.171V23.51a2.537,2.537,0,0,0-2.534-2.534H27.545a2.537,2.537,0,0,0-2.534,2.534v.112a7.416,7.416,0,0,0-1.64.563V20.99l4.481-.89a.932.932,0,0,0,.726-.706,16.3,16.3,0,0,1,2.083-5.025.931.931,0,0,0-.015-1.012l-2.54-3.8L31.065,6.6l3.8,2.54a.931.931,0,0,0,1.012.015A16.287,16.287,0,0,1,40.9,7.07a.932.932,0,0,0,.705-.726l.89-4.481h4.184l.891,4.481a.933.933,0,0,0,.705.727A16.3,16.3,0,0,1,53.3,9.154a.932.932,0,0,0,1.012-.015l3.8-2.54,2.959,2.959-2.54,3.8a.932.932,0,0,0-.015,1.012A16.288,16.288,0,0,1,60.6,19.394a.933.933,0,0,0,.727.705l4.481.89v3.191a7.427,7.427,0,0,0-1.64-.56V23.51a2.537,2.537,0,0,0-2.534-2.534H59.92a2.537,2.537,0,0,0-2.534,2.534v.111a7.523,7.523,0,0,0-4.652,3.169,9.42,9.42,0,0,0-1.907-.651ZM52.019,38.7h1.467a7.609,7.609,0,0,0,1.057,2.127,9.5,9.5,0,0,0-2.524.964ZM55,36.422V34.264H66.553v2.158a5.775,5.775,0,1,1-11.551,0Zm0,0" transform="translate(-14.725)"/>
      <path id="Trazado_1049624" data-name="Trazado 1049624" d="M466.923,462.016a.932.932,0,0,0-.931.931v4.344a.931.931,0,0,0,1.863,0v-4.344A.931.931,0,0,0,466.923,462.016Zm0,0" transform="translate(-408.124 -404.642)"/>
      <path id="Trazado_1049625" data-name="Trazado 1049625" d="M340.126,280.633H340.1a.931.931,0,0,0,.008,1.863h.023a.931.931,0,0,0-.008-1.863Zm0,0" transform="translate(-297.06 -245.783)"/>
      <path id="Trazado_1049626" data-name="Trazado 1049626" d="M388.348,280.633h-.023a.931.931,0,0,0,.007,1.863h.023a.931.931,0,0,0-.007-1.863Zm0,0" transform="translate(-339.293 -245.783)"/>
      <path id="Trazado_1049627" data-name="Trazado 1049627" d="M311.962,393.109a.931.931,0,0,0-.931.931v12.9a.931.931,0,1,0,1.863,0v-12.9A.931.931,0,0,0,311.962,393.109Zm0,0" transform="translate(-272.406 -344.292)"/>
      <path id="Trazado_1049628" data-name="Trazado 1049628" d="M416.6,393.109a.931.931,0,0,0-.931.931v12.9a.931.931,0,1,0,1.863,0v-12.9A.932.932,0,0,0,416.6,393.109Zm0,0" transform="translate(-364.053 -344.292)"/>
      <path id="Trazado_1049629" data-name="Trazado 1049629" d="M348.1,388.516a3.226,3.226,0,1,0,3.226,3.226A3.23,3.23,0,0,0,348.1,388.516Zm0,4.589a1.363,1.363,0,1,1,1.363-1.364A1.365,1.365,0,0,1,348.1,393.105Zm0,0" transform="translate(-302.045 -340.269)"/>
      <path id="Trazado_1049630" data-name="Trazado 1049630" d="M358.857,445.332h-1.793a.931.931,0,0,0,0,1.863h1.793a.931.931,0,0,0,0-1.863Zm0,0" transform="translate(-311.907 -390.029)"/>
    </g>
  </g>
</svg>
