<svg xmlns="http://www.w3.org/2000/svg" xmlns:xlink="http://www.w3.org/1999/xlink" width="113" height="113" viewBox="0 0 113 113">
  <defs>
    <filter id="Trazado_982547" x="0" y="0" width="113" height="113" filterUnits="userSpaceOnUse">
      <feOffset dy="3" input="SourceAlpha"/>
      <feGaussianBlur stdDeviation="3" result="blur"/>
      <feFlood flood-opacity="0.161"/>
      <feComposite operator="in" in2="blur"/>
      <feComposite in="SourceGraphic"/>
    </filter>
  </defs>
  <g id="Grupo_1209302" data-name="Grupo 1209302" transform="translate(-1911.49 -1299.608)">
    <g id="Grupo_1209035" data-name="Grupo 1209035" transform="translate(1118 -2043.392)">
      <g id="Grupo_1208891" data-name="Grupo 1208891" transform="translate(0 -2284.425)">
        <g id="Grupo_1177675" data-name="Grupo 1177675" transform="translate(-4493 3707.152)">
          <g id="Grupo_1176928" data-name="Grupo 1176928" transform="translate(5295.49 1926.273)">
            <g id="Grupo_1172322" data-name="Grupo 1172322" transform="translate(0 0)">
              <g id="Grupo_1164700" data-name="Grupo 1164700">
                <g id="Grupo_1160931" data-name="Grupo 1160931">
                  <g id="Grupo_1160749" data-name="Grupo 1160749">
                    <g id="Grupo_1158891" data-name="Grupo 1158891">
                      <g id="Grupo_1157406" data-name="Grupo 1157406">
                        <g id="Grupo_1155793" data-name="Grupo 1155793">
                          <g id="Grupo_1154704" data-name="Grupo 1154704">
                            <g id="Grupo_1150790" data-name="Grupo 1150790">
                              <g id="Grupo_1154214" data-name="Grupo 1154214">
                                <g id="Grupo_1152583" data-name="Grupo 1152583">
                                  <g id="Grupo_1146973" data-name="Grupo 1146973">
                                    <g id="Grupo_1146954" data-name="Grupo 1146954">
                                      <g transform="matrix(1, 0, 0, 1, -9, -6)" filter="url(#Trazado_982547)">
                                        <g id="Trazado_982547-2" data-name="Trazado 982547" transform="translate(9 6)" fill="#fcebe9">
                                          <path d="M 47.5000114440918 93.49987030029297 C 41.28938293457031 93.49987030029297 35.26534652709961 92.28384399414062 29.5951976776123 89.88558959960938 C 24.11773109436035 87.56881713867188 19.19814491271973 84.25183868408203 14.97310447692871 80.02680206298828 C 10.74805164337158 75.80176544189453 7.43107795715332 70.88218688964844 5.114304542541504 65.40472412109375 C 2.716038227081299 59.73458862304688 1.500011444091797 53.71054840087891 1.500011444091797 47.49993515014648 C 1.500011444091797 41.28932189941406 2.716038227081299 35.26528167724609 5.114304542541504 29.59514808654785 C 7.43107795715332 24.1176815032959 10.74805164337158 19.1981086730957 14.97310447692871 14.97306823730469 C 19.19814491271973 10.74802875518799 24.11773109436035 7.431055068969727 29.5951976776123 5.11428165435791 C 35.26534652709961 2.716028451919556 41.28938293457031 1.500001788139343 47.5000114440918 1.500001788139343 C 53.71063995361328 1.500001788139343 59.73467636108398 2.716028451919556 65.40482330322266 5.11428165435791 C 70.88229370117188 7.431055068969727 75.8018798828125 10.74802875518799 80.02691650390625 14.97306823730469 C 84.25196838378906 19.1981086730957 87.56894683837891 24.1176815032959 89.88571929931641 29.59514808654785 C 92.28398132324219 35.26528167724609 93.50001525878906 41.28932189941406 93.50001525878906 47.49993515014648 C 93.50001525878906 53.71054840087891 92.28398132324219 59.73458862304688 89.88571929931641 65.40472412109375 C 87.56894683837891 70.88218688964844 84.25196838378906 75.80176544189453 80.02691650390625 80.02680206298828 C 75.8018798828125 84.25183868408203 70.88229370117188 87.56881713867188 65.40482330322266 89.88558959960938 C 59.73467636108398 92.28384399414062 53.71063995361328 93.49987030029297 47.5000114440918 93.49987030029297 Z" stroke="none"/>
                                          <path d="M 47.5000114440918 3 C 41.49122619628906 3 35.66378021240234 4.1761474609375 30.17951965332031 6.495796203613281 C 24.880859375 8.7369384765625 20.12153625488281 11.94596862792969 16.03376770019531 16.03373718261719 C 11.94598388671875 20.12149047851562 8.736968994140625 24.88081359863281 6.495811462402344 30.17947387695312 C 4.176162719726562 35.66371917724609 3.000007629394531 41.49116516113281 3.000007629394531 47.49993515014648 C 3.000007629394531 53.50870513916016 4.176162719726562 59.33615112304688 6.495811462402344 64.82039642333984 C 8.736968994140625 70.11905670166016 11.94598388671875 74.87837982177734 16.03376770019531 78.96613311767578 C 20.12153625488281 83.05390167236328 24.880859375 86.26293182373047 30.17951965332031 88.50407409667969 C 35.66378021240234 90.82372283935547 41.49122619628906 91.99987030029297 47.5000114440918 91.99987030029297 C 53.50879669189453 91.99987030029297 59.33624267578125 90.82372283935547 64.82050323486328 88.50407409667969 C 70.11916351318359 86.26293182373047 74.87848663330078 83.05390167236328 78.96625518798828 78.96613311767578 C 83.05403900146484 74.87837982177734 86.2630615234375 70.11905670166016 88.50421142578125 64.82039642333984 C 90.82386016845703 59.33615112304688 92.00001525878906 53.50870513916016 92.00001525878906 47.49993515014648 C 92.00001525878906 41.49116516113281 90.82386016845703 35.66371917724609 88.50421142578125 30.17947387695312 C 86.2630615234375 24.88081359863281 83.05403900146484 20.12149047851562 78.96625518798828 16.03373718261719 C 74.87848663330078 11.94596862792969 70.11916351318359 8.7369384765625 64.82050323486328 6.495796203613281 C 59.33624267578125 4.1761474609375 53.50879669189453 3 47.5000114440918 3 M 47.5000114440918 0 C 73.73353576660156 0 95.00001525878906 21.26644134521484 95.00001525878906 47.49993515014648 C 95.00001525878906 73.73342895507812 73.73353576660156 94.99987030029297 47.5000114440918 94.99987030029297 C 21.26648712158203 94.99987030029297 7.62939453125e-06 73.73342895507812 7.62939453125e-06 47.49993515014648 C 7.62939453125e-06 21.26644134521484 21.26648712158203 0 47.5000114440918 0 Z" stroke="none" fill="#e44b36"/>
                                        </g>
                                      </g>
                                    </g>
                                  </g>
                                </g>
                              </g>
                            </g>
                          </g>
                        </g>
                      </g>
                    </g>
                  </g>
                </g>
              </g>
            </g>
          </g>
        </g>
      </g>
    </g>
    <g id="Layer_29" data-name="Layer 29" transform="translate(1936 1318)">
      <path id="Trazado_1049631" data-name="Trazado 1049631" d="M6,54V22a4,4,0,0,1,4-4H54a4,4,0,0,1,4,4V54Z" fill="#939393"/>
      <path id="Trazado_1049632" data-name="Trazado 1049632" d="M10,22H54V50H10Z" fill="#e2e7f6"/>
      <path id="Trazado_1049633" data-name="Trazado 1049633" d="M48,46V22H10V46Z" fill="#f2f2f2"/>
      <path id="Trazado_1049634" data-name="Trazado 1049634" d="M5,54H59a3,3,0,0,1,3,3,5,5,0,0,1-5,5H7a5,5,0,0,1-5-5,3,3,0,0,1,3-3Z" fill="#686868"/>
      <path id="Trazado_1049635" data-name="Trazado 1049635" d="M24,54l2,4H38l2-4" fill="#474747"/>
      <path id="Trazado_1049636" data-name="Trazado 1049636" d="M32,46V39l5-7V46Z" fill="#78a0d4"/>
      <path id="Trazado_1049637" data-name="Trazado 1049637" d="M23,46V40l5-5,4,4v7Z" fill="#5e87ca"/>
      <path id="Trazado_1049638" data-name="Trazado 1049638" d="M23,40l-4-3-5,4v5h9Z" fill="#3b5892"/>
      <path id="Trazado_1049639" data-name="Trazado 1049639" d="M48,25.657a2.336,2.336,0,0,0-.342-1.218L35.04,3.708a3.559,3.559,0,0,0-6.08,0L16.342,24.439a2.342,2.342,0,0,0,2,3.561H45.657A2.343,2.343,0,0,0,48,25.657Z" fill="#f4a93c"/>
      <path id="Trazado_1049640" data-name="Trazado 1049640" d="M44,25.657a2.336,2.336,0,0,0-.342-1.218L31.04,3.708A3.547,3.547,0,0,0,30,2.623a3.547,3.547,0,0,0-1.04,1.085L16.342,24.439a2.342,2.342,0,0,0,2,3.561H41.657A2.343,2.343,0,0,0,44,25.657Z" fill="#f6b940"/>
      <path id="Trazado_1049641" data-name="Trazado 1049641" d="M30.859,18.01l-.718-5.02A14.092,14.092,0,0,1,30,11a2,2,0,0,1,4,0,14.1,14.1,0,0,1-.141,1.991l-.718,5.019a1.153,1.153,0,0,1-2.282,0Z" fill="#474747"/>
      <circle id="Elipse_12565" data-name="Elipse 12565" cx="2" cy="2" r="2" transform="translate(30 21)" fill="#474747"/>
      <path id="Trazado_1049642" data-name="Trazado 1049642" d="M40,47H14a1,1,0,0,1-1-1V30h2V45H40Z" fill="#213d68"/>
      <g id="Grupo_1209301" data-name="Grupo 1209301">
        <path id="Trazado_1049643" data-name="Trazado 1049643" d="M42,45h9v2H42Z" fill="#5e87ca"/>
        <path id="Trazado_1049644" data-name="Trazado 1049644" d="M42,41h9v2H42Z" fill="#5e87ca"/>
        <path id="Trazado_1049645" data-name="Trazado 1049645" d="M42,37h9v2H42Z" fill="#5e87ca"/>
      </g>
      <path id="Trazado_1049646" data-name="Trazado 1049646" d="M59,53V22a5.006,5.006,0,0,0-5-5H44.3L35.894,3.188a4.559,4.559,0,0,0-7.788,0L19.7,17H10a5.006,5.006,0,0,0-5,5V53a4,4,0,0,0-4,4,6.006,6.006,0,0,0,6,6H57a6.006,6.006,0,0,0,6-6A4,4,0,0,0,59,53ZM29.814,4.229a2.559,2.559,0,0,1,4.372,0L46.8,24.959A1.343,1.343,0,0,1,45.657,27H18.343A1.343,1.343,0,0,1,17.2,24.958ZM18.343,29H45.657a3.342,3.342,0,0,0,2.855-5.081L47.953,23H53V49H11V23h5.047l-.559.918A3.343,3.343,0,0,0,18.343,29ZM7,22a3,3,0,0,1,3-3h8.481l-1.217,2H10a1,1,0,0,0-1,1V50a1,1,0,0,0,1,1H54a1,1,0,0,0,1-1V22a1,1,0,0,0-1-1H46.736l-1.218-2H54a3,3,0,0,1,3,3V53H7ZM38.382,55l-1,2H26.618l-1-2ZM57,61H7a4,4,0,0,1-4-4,2,2,0,0,1,2-2H23.382L25.1,58.447A1,1,0,0,0,26,59H38a1,1,0,0,0,.9-.553L40.618,55H59a2,2,0,0,1,2,2A4,4,0,0,1,57,61Z"/>
      <path id="Trazado_1049647" data-name="Trazado 1049647" d="M29.869,18.151a2.153,2.153,0,0,0,4.262,0l.717-5.019A15.062,15.062,0,0,0,35,11a3,3,0,0,0-6,0,15.053,15.053,0,0,0,.152,2.13ZM32,10a1,1,0,0,1,1,1,13.16,13.16,0,0,1-.131,1.849l-.717,5.019a.159.159,0,0,1-.3,0l-.717-5.019A13.16,13.16,0,0,1,31,11a1,1,0,0,1,1-1Z"/>
      <circle id="Elipse_12566" data-name="Elipse 12566" cx="2" cy="2" r="2" transform="translate(30 21)"/>
      <path id="Trazado_1049648" data-name="Trazado 1049648" d="M15,30H13V46a1,1,0,0,0,1,1H40V45H38V32a1,1,0,0,0-1.814-.581l-4.313,6.039-3.166-3.165a1,1,0,0,0-1.414,0L22.906,38.68,19.6,36.2a1,1,0,0,0-1.225.019L15,38.919ZM36,45H33V39.321l3-4.2Zm-8-8.586,3,3V45H24V40.414Zm-8.98,1.851L22,40.5V45H15V41.481Z"/>
      <path id="Trazado_1049649" data-name="Trazado 1049649" d="M42,45h9v2H42Z"/>
      <path id="Trazado_1049650" data-name="Trazado 1049650" d="M42,41h9v2H42Z"/>
      <path id="Trazado_1049651" data-name="Trazado 1049651" d="M42,37h9v2H42Z"/>
    </g>
  </g>
</svg>
